<?xml version="1.0" encoding="UTF-8"?>
<!DOCTYPE svg PUBLIC "-//W3C//DTD SVG 1.1//EN" "http://www.w3.org/Graphics/SVG/1.1/DTD/svg11.dtd">
<svg version="1.1" xmlns="http://www.w3.org/2000/svg" xmlns:xlink="http://www.w3.org/1999/xlink" x="0" y="0" width="600" height="600" viewBox="0, 0, 600, 600">
  <g id="Background">
    <rect x="0" y="0" width="600" height="600" fill="#FFFFFF"/>
  </g>
  <g id="Background">
    <path d="M235,235 L365,235 L365,365 L235,365 z" fill="#FFFFFF"/>
  </g>
  <g id="Layer_1">
    <g>
      <path d="M106.351,451.799 C106.351,453.941 104.397,455.679 101.987,455.679 C99.578,455.679 97.625,453.941 97.625,451.799 C97.625,449.656 99.578,447.918 101.987,447.918 C104.397,447.918 106.351,449.656 106.351,451.799 z" fill="#000000"/>
      <path d="M119.165,431.779 L112.3,419.113 C110.515,415.821 106.702,413.721 102.512,413.721 L24.294,413.721 C20.104,413.721 16.29,415.821 14.506,419.113 L7.641,431.779 C6.963,433.029 6.611,434.395 6.611,435.777 L6.611,457.414 C6.611,461.162 10.113,464.202 14.43,464.202 L112.376,464.202 C116.693,464.202 120.195,461.162 120.195,457.414 L120.195,435.777 C120.195,434.395 119.843,433.029 119.165,431.779 z M10.088,432.778 L16.953,420.114 C18.285,417.656 21.166,416.069 24.294,416.069 L102.512,416.069 C105.639,416.069 108.521,417.656 109.853,420.114 L116.717,432.778 C117.138,433.554 117.383,434.404 117.456,435.261 C117.382,435.835 117.151,436.393 116.765,436.883 C116.02,437.831 114.85,438.374 113.557,438.374 L13.249,438.374 C11.956,438.374 10.786,437.831 10.041,436.883 C9.654,436.393 9.424,435.835 9.349,435.261 C9.423,434.404 9.668,433.554 10.088,432.778 z M117.49,457.414 C117.49,459.862 115.196,461.854 112.376,461.854 L14.43,461.854 C11.609,461.854 9.316,459.862 9.316,457.414 L9.316,437.98 C10.669,438.928 11.647,439.548 13.249,439.548 L113.557,439.548 C115.159,439.548 116.137,438.928 117.49,437.98 L117.49,457.414 z" fill="#000000"/>
      <g id="wifi">
        <path d="M100.151,346.776 C90.089,335.151 77.402,329.086 63.403,329.086 C49.403,329.086 36.279,335.656 26.654,346.776 C25.78,347.787 25.78,349.303 26.654,350.314 C27.529,351.325 28.842,351.325 29.717,350.314 C38.466,339.7 50.716,334.14 62.965,334.14 C75.215,334.14 87.464,340.205 96.214,350.314 C96.651,350.819 97.526,350.819 97.964,350.819 C98.401,350.819 99.276,350.314 100.151,350.314 C101.026,349.303 101.026,347.787 100.151,346.776 z" fill="#000000"/>
        <path d="M37.591,359.917 C36.717,360.928 36.717,362.444 37.591,363.455 C38.466,364.466 39.779,364.466 40.654,363.455 C52.903,349.809 72.59,349.809 84.402,363.455 C84.839,363.961 85.714,363.961 86.152,363.961 C87.027,363.961 87.464,363.961 87.464,363.455 C88.339,362.444 88.339,360.928 87.464,359.917 C73.465,344.249 51.153,344.249 37.591,359.917 z" fill="#000000"/>
        <path d="M49.841,373.564 C48.966,374.575 48.966,376.091 49.841,377.102 C50.716,378.113 52.029,378.113 52.904,377.102 C58.153,370.532 67.34,370.532 73.028,377.102 C73.465,377.608 74.34,377.608 74.778,377.608 C75.215,377.608 75.652,377.102 76.09,377.102 C76.965,376.091 76.965,374.575 76.09,373.564 C69.09,364.971 57.278,364.971 49.841,373.564 z" fill="#000000"/>
        <path d="M61.215,386.705 C60.778,387.211 60.778,388.222 60.778,388.727 C60.778,389.232 60.778,389.738 61.215,390.243 C61.653,390.749 62.528,391.254 62.965,391.254 C63.403,391.254 64.278,390.749 64.715,390.243 C64.715,390.243 65.152,389.738 65.152,388.727 C65.152,387.716 64.715,387.211 64.278,386.705 C63.403,385.694 62.091,385.694 61.215,386.705 z" fill="#000000"/>
      </g>
    </g>
    <path d="M573.172,135.798 L193.249,135.798 C182.129,135.798 173.032,144.895 173.032,156.015 L173.032,378.305 C173.032,389.424 182.129,398.521 193.249,398.521 L343.802,398.521 C343.802,404.166 340.879,428.35 329.126,451.066 L310.962,451.066 L310.962,456.156 C310.962,460.583 314.581,464.202 319.007,464.202 L447.417,464.202 C451.84,464.202 455.459,460.583 455.459,456.156 L455.459,451.066 L437.295,451.066 C425.542,428.35 422.619,404.166 422.619,398.521 L573.172,398.521 C584.292,398.521 593.389,389.424 593.389,378.305 L593.389,156.015 C593.389,144.895 584.292,135.798 573.172,135.798 z M452.175,454.35 L452.175,456.156 C452.175,458.783 450.041,460.918 447.417,460.918 L319.007,460.918 C316.38,460.918 314.246,458.783 314.246,456.156 L314.246,454.35 L452.175,454.35 z M433.597,451.066 L332.82,451.066 C344.206,428.445 347.086,404.248 347.086,398.521 L419.335,398.521 C419.335,404.248 422.215,428.452 433.597,451.066 z M586.821,378.305 C586.821,385.832 580.699,391.953 573.172,391.953 L193.249,391.953 C185.721,391.953 179.6,385.832 179.6,378.305 L179.6,156.015 C179.6,148.488 185.721,142.366 193.249,142.366 L573.172,142.366 C580.699,142.366 586.821,148.488 586.821,156.015 L586.821,378.305 z" fill="#000000"/>
    <path d="M560.144,155.502 L206.276,155.502 C198.799,155.502 192.736,161.565 192.736,169.042 L192.736,365.277 C192.736,372.755 198.799,378.817 206.276,378.817 L560.144,378.817 C567.622,378.817 573.685,372.755 573.685,365.277 L573.685,169.042 C573.685,161.565 567.622,155.502 560.144,155.502 z M570.401,365.277 C570.401,370.932 565.8,375.533 560.144,375.533 L206.276,375.533 C200.621,375.533 196.02,370.932 196.02,365.277 L196.02,169.042 C196.02,163.387 200.621,158.786 206.276,158.786 L560.144,158.786 C565.8,158.786 570.401,163.387 570.401,169.042 L570.401,365.277 z" fill="#000000"/>
    <path d="M202.49,428.122 C161.037,409.466 146.52,420.194 114.886,429.031" fill-opacity="0" stroke="#000000" stroke-width="1"/>
    <path d="M91.072,414.51 L91.072,414.51" fill-opacity="0" stroke="#000000" stroke-width="1"/>
    <path d="M202.49,428.122 C243.943,446.779 258.46,437.869 290.094,429.031" fill-opacity="0" stroke="#000000" stroke-width="1"/>
    <path d="M340.756,428.122 C324.13,428.122 317.549,422.841 290.094,429.031" fill-opacity="0" stroke="#000000" stroke-width="1"/>
  </g>
</svg>
