<?xml version="1.0" encoding="UTF-8"?>
<svg width="410px" height="410px" viewBox="0 0 410 410" version="1.1" xmlns="http://www.w3.org/2000/svg" xmlns:xlink="http://www.w3.org/1999/xlink">
    <!-- Generator: Sketch 46.2 (44496) - http://www.bohemiancoding.com/sketch -->
    <title>Group</title>
    <desc>Created with Sketch.</desc>
    <defs></defs>
    <g id="Page-1" stroke="none" stroke-width="1" fill="none" fill-rule="evenodd">
        <g id="Group">
            <g id="globe" fill-rule="nonzero" fill="#000000">
                <path d="M205.007,404.762 L203.7,404.759 L201.114,404.725 L198.544,404.66 L195.981,404.563 L193.427,404.433 L190.882,404.271 L188.345,404.078 L185.818,403.854 L183.299,403.598 L180.791,403.31 L178.291,402.993 L175.801,402.644 L173.321,402.265 L170.852,401.856 L168.393,401.416 L165.944,400.947 L163.506,400.447 L161.079,399.919 L158.663,399.361 L156.258,398.774 L153.865,398.158 L151.483,397.513 L149.114,396.841 L146.756,396.139 L144.41,395.409 L142.078,394.652 L139.757,393.866 L137.45,393.053 L135.156,392.213 L132.875,391.346 L130.607,390.451 L128.353,389.53 L126.112,388.582 L123.886,387.608 L121.674,386.608 L119.476,385.581 L117.293,384.53 L115.125,383.452 L112.972,382.349 L110.834,381.22 L108.71,380.067 L106.604,378.889 L104.512,377.686 L102.437,376.459 L100.378,375.208 L98.335,373.932 L96.309,372.633 L94.299,371.31 L92.306,369.964 L90.331,368.594 L88.373,367.202 L86.433,365.786 L84.51,364.347 L82.605,362.887 L80.718,361.404 L78.849,359.899 L76.999,358.373 L75.168,356.823 L73.356,355.254 L71.563,353.663 L69.79,352.05 L68.035,350.417 L66.301,348.763 L64.587,347.088 L62.891,345.394 L61.217,343.679 L59.564,341.944 L57.93,340.189 L56.319,338.415 L54.727,336.622 L53.157,334.81 L51.609,332.978 L50.083,331.128 L48.578,329.259 L47.096,327.373 L45.635,325.468 L44.197,323.544 L42.782,321.604 L41.39,319.645 L40.021,317.67 L38.674,315.677 L37.352,313.668 L36.052,311.641 L34.777,309.598 L33.526,307.538 L32.299,305.463 L31.097,303.372 L29.919,301.264 L28.766,299.141 L27.638,297.003 L26.535,294.849 L25.458,292.681 L24.406,290.497 L23.38,288.299 L22.38,286.088 L21.406,283.861 L20.459,281.62 L19.538,279.366 L18.644,277.098 L17.777,274.817 L16.936,272.522 L16.124,270.215 L15.339,267.894 L14.582,265.561 L13.852,263.216 L13.151,260.858 L12.479,258.488 L11.834,256.107 L11.218,253.713 L10.632,251.309 L10.074,248.892 L9.546,246.464 L9.047,244.026 L8.578,241.578 L8.139,239.118 L7.73,236.648 L7.351,234.169 L7.003,231.679 L6.685,229.18 L6.399,226.671 L6.143,224.152 L5.919,221.624 L5.726,219.088 L5.565,216.543 L5.436,213.988 L5.338,211.426 L5.274,208.855 L5.241,206.277 L5.237,204.993 L5.237,205.007 L5.241,203.7 L5.274,201.114 L5.34,198.544 L5.437,195.981 L5.567,193.427 L5.728,190.882 L5.922,188.345 L6.146,185.818 L6.402,183.299 L6.689,180.791 L7.007,178.291 L7.356,175.801 L7.735,173.321 L8.144,170.852 L8.584,168.393 L9.053,165.944 L9.552,163.506 L10.081,161.079 L10.639,158.663 L11.225,156.258 L11.841,153.865 L12.486,151.483 L13.159,149.114 L13.861,146.756 L14.591,144.41 L15.348,142.078 L16.133,139.757 L16.947,137.45 L17.787,135.156 L18.654,132.875 L19.548,130.607 L20.47,128.353 L21.417,126.112 L22.392,123.886 L23.392,121.674 L24.419,119.476 L25.47,117.293 L26.548,115.125 L27.651,112.972 L28.779,110.834 L29.933,108.71 L31.111,106.604 L32.313,104.512 L33.541,102.437 L34.792,100.378 L36.068,98.335 L37.367,96.309 L38.69,94.299 L40.036,92.306 L41.406,90.331 L42.798,88.373 L44.214,86.433 L45.653,84.51 L47.113,82.605 L48.596,80.718 L50.101,78.849 L51.627,76.999 L53.176,75.168 L54.746,73.356 L56.337,71.563 L57.95,69.79 L59.583,68.035 L61.237,66.301 L62.912,64.587 L64.606,62.891 L66.321,61.217 L68.056,59.564 L69.81,57.93 L71.585,56.319 L73.378,54.727 L75.191,53.157 L77.022,51.609 L78.872,50.083 L80.74,48.578 L82.627,47.096 L84.532,45.635 L86.455,44.197 L88.396,42.782 L90.354,41.39 L92.33,40.021 L94.323,38.674 L96.332,37.352 L98.359,36.052 L100.402,34.777 L102.462,33.526 L104.537,32.299 L106.628,31.097 L108.736,29.919 L110.859,28.766 L112.997,27.638 L115.151,26.535 L117.319,25.458 L119.502,24.406 L121.701,23.38 L123.912,22.38 L126.139,21.406 L128.38,20.459 L130.634,19.538 L132.901,18.644 L135.182,17.777 L137.478,16.937 L139.785,16.124 L142.105,15.339 L144.439,14.582 L146.784,13.852 L149.142,13.151 L151.512,12.479 L153.893,11.834 L156.287,11.218 L158.691,10.632 L161.108,10.074 L163.535,9.546 L165.974,9.047 L168.422,8.578 L170.882,8.139 L173.351,7.73 L175.831,7.351 L178.321,7.003 L180.82,6.685 L183.329,6.399 L185.848,6.143 L188.375,5.919 L190.912,5.726 L193.457,5.565 L196.011,5.436 L198.574,5.338 L201.144,5.274 L203.722,5.241 L205.007,5.237 L204.993,5.237 L206.3,5.241 L208.885,5.274 L211.456,5.34 L214.018,5.437 L216.573,5.567 L219.118,5.728 L221.654,5.922 L224.182,6.146 L226.701,6.402 L229.209,6.689 L231.709,7.007 L234.198,7.356 L236.678,7.735 L239.147,8.144 L241.607,8.584 L244.055,9.053 L246.494,9.552 L248.921,10.081 L251.337,10.639 L253.742,11.225 L256.135,11.841 L258.517,12.486 L260.886,13.159 L263.244,13.861 L265.59,14.591 L267.922,15.348 L270.243,16.133 L272.55,16.947 L274.844,17.787 L277.125,18.654 L279.393,19.548 L281.647,20.47 L283.888,21.417 L286.114,22.392 L288.326,23.392 L290.524,24.419 L292.707,25.47 L294.875,26.548 L297.028,27.651 L299.166,28.779 L301.289,29.933 L303.396,31.111 L305.488,32.313 L307.563,33.541 L309.622,34.792 L311.665,36.068 L313.691,37.367 L315.701,38.69 L317.694,40.036 L319.669,41.406 L321.626,42.798 L323.567,44.214 L325.49,45.653 L327.395,47.113 L329.281,48.596 L331.15,50.101 L333,51.627 L334.831,53.176 L336.643,54.746 L338.437,56.337 L340.21,57.95 L341.964,59.583 L343.699,61.237 L345.413,62.912 L347.108,64.606 L348.782,66.321 L350.436,68.056 L352.069,69.81 L353.681,71.585 L355.272,73.378 L356.842,75.191 L358.391,77.022 L359.917,78.872 L361.422,80.741 L362.904,82.627 L364.365,84.532 L365.802,86.455 L367.218,88.396 L368.61,90.354 L369.979,92.33 L371.326,94.323 L372.648,96.332 L373.948,98.359 L375.223,100.402 L376.474,102.462 L377.701,104.537 L378.903,106.628 L380.081,108.736 L381.234,110.859 L382.362,112.997 L383.464,115.151 L384.542,117.319 L385.594,119.502 L386.62,121.701 L387.62,123.912 L388.594,126.139 L389.541,128.38 L390.462,130.634 L391.356,132.901 L392.223,135.183 L393.063,137.478 L393.876,139.785 L394.661,142.106 L395.418,144.439 L396.147,146.784 L396.849,149.142 L397.521,151.512 L398.166,153.893 L398.781,156.287 L399.368,158.691 L399.926,161.108 L400.454,163.535 L400.953,165.974 L401.422,168.422 L401.861,170.882 L402.27,173.351 L402.649,175.831 L402.997,178.321 L403.314,180.82 L403.601,183.329 L403.857,185.848 L404.081,188.375 L404.274,190.912 L404.435,193.457 L404.564,196.011 L404.661,198.574 L404.726,201.144 L404.759,203.722 L404.762,205.007 L404.762,204.993 L404.759,206.3 L404.725,208.885 L404.66,211.456 L404.563,214.018 L404.433,216.573 L404.271,219.118 L404.078,221.654 L403.854,224.182 L403.598,226.701 L403.31,229.209 L402.993,231.709 L402.644,234.198 L402.265,236.678 L401.856,239.147 L401.416,241.607 L400.947,244.055 L400.447,246.494 L399.919,248.921 L399.361,251.337 L398.774,253.742 L398.158,256.135 L397.513,258.517 L396.841,260.886 L396.139,263.244 L395.409,265.59 L394.652,267.922 L393.866,270.243 L393.053,272.55 L392.213,274.844 L391.346,277.125 L390.451,279.393 L389.53,281.647 L388.582,283.888 L387.608,286.114 L386.608,288.326 L385.581,290.524 L384.53,292.707 L383.452,294.875 L382.349,297.028 L381.22,299.166 L380.067,301.289 L378.889,303.396 L377.686,305.488 L376.459,307.563 L375.208,309.622 L373.932,311.665 L372.633,313.691 L371.31,315.701 L369.964,317.694 L368.594,319.669 L367.202,321.627 L365.786,323.567 L364.347,325.49 L362.887,327.395 L361.404,329.281 L359.899,331.15 L358.373,333 L356.823,334.831 L355.254,336.643 L353.663,338.437 L352.05,340.21 L350.417,341.964 L348.763,343.699 L347.088,345.413 L345.393,347.108 L343.679,348.782 L341.944,350.436 L340.189,352.069 L338.415,353.681 L336.622,355.272 L334.81,356.842 L332.978,358.391 L331.128,359.917 L329.259,361.422 L327.373,362.904 L325.468,364.365 L323.544,365.802 L321.604,367.218 L319.645,368.61 L317.67,369.979 L315.677,371.326 L313.668,372.648 L311.641,373.948 L309.598,375.223 L307.538,376.474 L305.463,377.701 L303.372,378.903 L301.264,380.081 L299.141,381.234 L297.003,382.362 L294.849,383.464 L292.681,384.542 L290.497,385.594 L288.299,386.62 L286.088,387.62 L283.861,388.594 L281.62,389.541 L279.366,390.462 L277.098,391.356 L274.817,392.223 L272.522,393.063 L270.215,393.876 L267.894,394.661 L265.561,395.418 L263.216,396.147 L260.858,396.849 L258.488,397.521 L256.107,398.166 L253.713,398.781 L251.309,399.368 L248.892,399.926 L246.464,400.454 L244.026,400.953 L241.578,401.422 L239.118,401.861 L236.648,402.27 L234.169,402.649 L231.679,402.997 L229.18,403.314 L226.671,403.601 L224.152,403.857 L221.624,404.081 L219.088,404.274 L216.543,404.435 L213.988,404.564 L211.426,404.661 L208.855,404.726 L206.277,404.759 L204.993,404.762 L204.993,404.762 C203.684,404.766 202.627,405.831 202.631,407.139 C202.635,408.447 203.699,409.504 205.007,409.5 C205.007,409.5 205.007,409.5 205.007,409.5 L206.337,409.496 L208.975,409.462 L211.606,409.395 L214.228,409.295 L216.842,409.163 L219.448,408.997 L222.044,408.8 L224.631,408.57 L227.208,408.308 L229.777,408.014 L232.336,407.689 L234.885,407.332 L237.423,406.943 L239.951,406.525 L242.469,406.075 L244.976,405.594 L247.473,405.083 L249.958,404.541 L252.431,403.971 L254.893,403.37 L257.344,402.739 L259.782,402.079 L262.209,401.389 L264.623,400.671 L267.024,399.924 L269.413,399.149 L271.789,398.344 L274.151,397.512 L276.501,396.651 L278.836,395.764 L281.158,394.848 L283.466,393.904 L285.76,392.934 L288.039,391.937 L290.304,390.913 L292.554,389.862 L294.789,388.785 L297.009,387.682 L299.214,386.552 L301.402,385.397 L303.575,384.216 L305.733,383.01 L307.874,381.779 L309.998,380.523 L312.107,379.241 L314.197,377.936 L316.272,376.605 L318.329,375.251 L320.369,373.873 L322.391,372.471 L324.396,371.045 L326.382,369.596 L328.35,368.125 L330.3,366.629 L332.231,365.112 L334.144,363.571 L336.037,362.008 L337.911,360.423 L339.766,358.816 L341.602,357.187 L343.417,355.536 L345.213,353.865 L346.988,352.172 L348.744,350.458 L350.478,348.723 L352.192,346.968 L353.885,345.192 L355.556,343.397 L357.206,341.581 L358.834,339.745 L360.441,337.89 L362.026,336.016 L363.588,334.122 L365.129,332.209 L366.647,330.278 L368.141,328.328 L369.613,326.359 L371.062,324.373 L372.487,322.368 L373.889,320.346 L375.267,318.306 L376.621,316.248 L377.951,314.174 L379.256,312.082 L380.537,309.974 L381.793,307.849 L383.024,305.708 L384.23,303.551 L385.41,301.377 L386.565,299.188 L387.694,296.983 L388.797,294.763 L389.874,292.527 L390.924,290.278 L391.948,288.013 L392.946,285.733 L393.915,283.439 L394.859,281.131 L395.774,278.809 L396.661,276.473 L397.522,274.124 L398.353,271.761 L399.157,269.385 L399.933,266.997 L400.68,264.595 L401.397,262.18 L402.087,259.754 L402.747,257.316 L403.377,254.865 L403.978,252.403 L404.548,249.928 L405.089,247.444 L405.599,244.947 L406.08,242.44 L406.53,239.922 L406.948,237.394 L407.336,234.855 L407.693,232.306 L408.017,229.748 L408.311,227.179 L408.572,224.601 L408.802,222.014 L408.999,219.418 L409.164,216.812 L409.297,214.198 L409.396,211.576 L409.463,208.945 L409.496,206.315 L409.5,205.007 L409.5,205.007 C409.5,205.002 409.5,204.998 409.5,204.993 L409.5,204.993 L409.496,203.662 L409.462,201.024 L409.395,198.394 L409.295,195.771 L409.163,193.158 L408.997,190.552 L408.8,187.956 L408.57,185.369 L408.308,182.792 L408.014,180.223 L407.689,177.664 L407.332,175.115 L406.943,172.577 L406.525,170.049 L406.075,167.531 L405.594,165.024 L405.083,162.527 L404.541,160.042 L403.971,157.569 L403.37,155.107 L402.739,152.656 L402.079,150.218 L401.389,147.791 L400.671,145.377 L399.924,142.976 L399.149,140.587 L398.344,138.211 L397.512,135.849 L396.651,133.499 L395.764,131.164 L394.848,128.841 L393.904,126.534 L392.934,124.24 L391.937,121.961 L390.913,119.696 L389.862,117.445 L388.785,115.211 L387.682,112.991 L386.552,110.786 L385.397,108.598 L384.216,106.425 L383.01,104.267 L381.779,102.126 L380.522,100.001 L379.241,97.893 L377.936,95.802 L376.605,93.727 L375.251,91.671 L373.873,89.631 L372.471,87.609 L371.045,85.604 L369.596,83.618 L368.125,81.65 L366.629,79.7 L365.112,77.769 L363.571,75.856 L362.008,73.963 L360.423,72.088 L358.815,70.234 L357.187,68.398 L355.536,66.583 L353.865,64.787 L352.172,63.011 L350.458,61.256 L348.723,59.522 L346.968,57.808 L345.192,56.115 L343.397,54.444 L341.581,52.794 L339.745,51.165 L337.89,49.559 L336.016,47.974 L334.122,46.411 L332.209,44.871 L330.278,43.353 L328.328,41.859 L326.359,40.387 L324.373,38.938 L322.368,37.513 L320.346,36.111 L318.306,34.733 L316.248,33.379 L314.174,32.049 L312.082,30.744 L309.974,29.463 L307.849,28.207 L305.708,26.976 L303.551,25.77 L301.377,24.59 L299.188,23.435 L296.983,22.306 L294.763,21.203 L292.527,20.126 L290.278,19.075 L288.013,18.051 L285.733,17.054 L283.439,16.085 L281.131,15.142 L278.809,14.226 L276.473,13.338 L274.124,12.478 L271.761,11.646 L269.385,10.843 L266.997,10.067 L264.595,9.32 L262.18,8.602 L259.754,7.913 L257.316,7.253 L254.865,6.623 L252.403,6.022 L249.928,5.451 L247.444,4.91 L244.947,4.4 L242.44,3.92 L239.922,3.47 L237.394,3.052 L234.855,2.664 L232.306,2.307 L229.748,1.983 L227.179,1.689 L224.601,1.428 L222.014,1.198 L219.418,1 L216.812,0.835 L214.198,0.703 L211.576,0.603 L208.945,0.537 L206.315,0.504 L205.007,0.5 L205.007,0.5 C205.002,0.5 204.998,0.5 204.993,0.5 L204.993,0.5 L203.662,0.504 L201.024,0.538 L198.394,0.605 L195.771,0.704 L193.158,0.837 L190.552,1.003 L187.956,1.2 L185.369,1.43 L182.792,1.692 L180.223,1.986 L177.664,2.311 L175.115,2.668 L172.577,3.057 L170.049,3.476 L167.531,3.925 L165.024,4.406 L162.527,4.917 L160.042,5.458 L157.569,6.029 L155.107,6.63 L152.656,7.261 L150.218,7.921 L147.791,8.61 L145.377,9.329 L142.976,10.076 L140.587,10.851 L138.211,11.656 L135.849,12.488 L133.499,13.349 L131.164,14.236 L128.841,15.152 L126.533,16.096 L124.24,17.066 L121.961,18.063 L119.696,19.087 L117.445,20.138 L115.211,21.215 L112.991,22.318 L110.786,23.448 L108.598,24.603 L106.425,25.784 L104.267,26.99 L102.126,28.221 L100.001,29.477 L97.893,30.759 L95.802,32.064 L93.727,33.394 L91.671,34.749 L89.631,36.127 L87.609,37.529 L85.604,38.955 L83.618,40.403 L81.65,41.875 L79.7,43.371 L77.769,44.888 L75.856,46.429 L73.963,47.992 L72.088,49.577 L70.234,51.184 L68.398,52.812 L66.583,54.463 L64.787,56.135 L63.011,57.828 L61.256,59.542 L59.522,61.277 L57.808,63.032 L56.115,64.808 L54.444,66.603 L52.794,68.419 L51.165,70.255 L49.559,72.11 L47.974,73.984 L46.411,75.878 L44.871,77.791 L43.353,79.722 L41.859,81.672 L40.387,83.641 L38.938,85.627 L37.513,87.632 L36.111,89.654 L34.733,91.694 L33.379,93.752 L32.049,95.826 L30.744,97.918 L29.463,100.026 L28.207,102.151 L26.976,104.292 L25.77,106.449 L24.59,108.623 L23.435,110.812 L22.306,113.017 L21.203,115.237 L20.126,117.472 L19.075,119.722 L18.051,121.987 L17.054,124.267 L16.085,126.56 L15.142,128.869 L14.226,131.191 L13.338,133.527 L12.478,135.876 L11.646,138.239 L10.843,140.615 L10.067,143.003 L9.32,145.405 L8.602,147.82 L7.913,150.246 L7.253,152.684 L6.623,155.135 L6.022,157.597 L5.451,160.072 L4.91,162.556 L4.4,165.053 L3.92,167.56 L3.47,170.078 L3.052,172.606 L2.664,175.145 L2.307,177.694 L1.983,180.252 L1.689,182.821 L1.428,185.399 L1.198,187.986 L1,190.582 L0.835,193.188 L0.703,195.801 L0.603,198.424 L0.537,201.054 L0.504,203.685 L0.5,204.993 L0.5,204.993 C0.5,204.998 0.5,205.002 0.5,205.007 L0.5,205.007 L0.504,206.337 L0.538,208.975 L0.605,211.606 L0.704,214.228 L0.837,216.842 L1.003,219.448 L1.2,222.044 L1.43,224.631 L1.692,227.208 L1.986,229.777 L2.311,232.336 L2.668,234.885 L3.057,237.423 L3.476,239.951 L3.925,242.469 L4.406,244.976 L4.917,247.473 L5.458,249.958 L6.029,252.431 L6.63,254.893 L7.261,257.344 L7.921,259.782 L8.61,262.209 L9.329,264.623 L10.076,267.024 L10.851,269.413 L11.656,271.789 L12.488,274.151 L13.349,276.501 L14.236,278.836 L15.152,281.158 L16.096,283.466 L17.066,285.76 L18.063,288.039 L19.087,290.304 L20.138,292.554 L21.215,294.789 L22.318,297.009 L23.448,299.214 L24.603,301.402 L25.784,303.575 L26.99,305.733 L28.221,307.874 L29.477,309.998 L30.759,312.107 L32.064,314.197 L33.394,316.272 L34.749,318.329 L36.127,320.369 L37.529,322.391 L38.955,324.396 L40.403,326.382 L41.875,328.35 L43.371,330.3 L44.888,332.231 L46.429,334.144 L47.992,336.037 L49.577,337.911 L51.184,339.766 L52.812,341.602 L54.463,343.417 L56.135,345.213 L57.828,346.988 L59.542,348.744 L61.277,350.478 L63.032,352.192 L64.808,353.885 L66.603,355.556 L68.419,357.206 L70.255,358.834 L72.11,360.441 L73.984,362.026 L75.878,363.589 L77.791,365.129 L79.722,366.647 L81.672,368.141 L83.641,369.613 L85.627,371.062 L87.632,372.487 L89.654,373.889 L91.694,375.267 L93.752,376.621 L95.826,377.951 L97.918,379.256 L100.026,380.537 L102.151,381.793 L104.292,383.024 L106.449,384.23 L108.623,385.41 L110.812,386.565 L113.017,387.694 L115.237,388.797 L117.472,389.874 L119.722,390.924 L121.987,391.948 L124.267,392.946 L126.56,393.915 L128.869,394.859 L131.191,395.774 L133.527,396.661 L135.876,397.522 L138.239,398.353 L140.615,399.157 L143.003,399.933 L145.405,400.68 L147.82,401.397 L150.246,402.087 L152.684,402.747 L155.135,403.377 L157.597,403.978 L160.071,404.548 L162.556,405.089 L165.053,405.599 L167.56,406.08 L170.078,406.53 L172.606,406.948 L175.145,407.336 L177.694,407.693 L180.252,408.017 L182.821,408.311 L185.399,408.572 L187.986,408.802 L190.582,408.999 L193.188,409.164 L195.801,409.297 L198.424,409.396 L201.054,409.463 L203.685,409.496 L204.993,409.5 C206.3,409.504 207.365,408.447 207.369,407.139 C207.373,405.831 206.315,404.766 205.007,404.762 L205.007,404.762" id="Shape"></path>
                <path d="M205.011,404.762 L204.123,404.759 L202.382,404.725 L200.659,404.661 L198.941,404.564 L197.229,404.436 L195.522,404.277 L193.821,404.086 L192.127,403.864 L190.438,403.611 L188.755,403.328 L187.079,403.014 L185.409,402.67 L183.745,402.296 L182.088,401.892 L180.438,401.457 L178.794,400.993 L177.157,400.5 L175.527,399.978 L173.905,399.427 L172.289,398.846 L170.682,398.237 L169.081,397.599 L167.488,396.934 L165.903,396.239 L164.326,395.517 L162.756,394.767 L161.195,393.99 L159.642,393.184 L158.098,392.352 L156.561,391.492 L155.034,390.606 L153.515,389.693 L152.005,388.753 L150.504,387.787 L149.013,386.794 L147.531,385.776 L146.058,384.731 L144.594,383.661 L143.141,382.565 L141.697,381.444 L140.263,380.298 L138.841,379.127 L137.427,377.931 L136.024,376.71 L134.632,375.466 L133.25,374.197 L131.88,372.904 L130.521,371.587 L129.172,370.246 L127.835,368.883 L126.509,367.495 L125.195,366.084 L123.893,364.651 L122.602,363.195 L121.324,361.717 L120.057,360.216 L118.804,358.693 L117.562,357.149 L116.333,355.582 L115.117,353.994 L113.913,352.384 L112.723,350.754 L111.546,349.102 L110.382,347.43 L109.232,345.737 L108.095,344.024 L106.971,342.29 L105.862,340.537 L104.766,338.763 L103.686,336.971 L102.619,335.159 L101.566,333.327 L100.529,331.477 L99.506,329.608 L98.498,327.72 L97.505,325.814 L96.526,323.89 L95.564,321.948 L94.616,319.987 L93.685,318.009 L92.769,316.015 L91.869,314.002 L90.984,311.973 L90.117,309.927 L89.265,307.864 L88.429,305.785 L87.611,303.69 L86.808,301.578 L86.024,299.451 L85.255,297.308 L84.504,295.15 L83.77,292.977 L83.053,290.789 L82.354,288.585 L81.672,286.367 L81.009,284.135 L80.363,281.889 L79.735,279.628 L79.126,277.354 L78.535,275.066 L77.963,272.764 L77.408,270.45 L76.873,268.123 L76.357,265.782 L75.859,263.429 L75.382,261.064 L74.922,258.686 L74.483,256.297 L74.063,253.895 L73.663,251.482 L73.283,249.057 L72.922,246.622 L72.582,244.175 L72.262,241.718 L71.963,239.249 L71.683,236.771 L71.425,234.282 L71.187,231.783 L70.971,229.275 L70.775,226.756 L70.601,224.228 L70.448,221.692 L70.317,219.145 L70.206,216.591 L70.118,214.027 L70.052,211.455 L70.008,208.875 L69.985,206.287 L69.983,204.995 L69.983,205.005 L69.986,203.698 L70.008,201.104 L70.052,198.525 L70.119,195.952 L70.207,193.389 L70.317,190.834 L70.449,188.288 L70.602,185.751 L70.777,183.223 L70.973,180.705 L71.19,178.196 L71.427,175.697 L71.686,173.208 L71.965,170.73 L72.264,168.262 L72.585,165.805 L72.925,163.358 L73.286,160.922 L73.666,158.497 L74.066,156.084 L74.486,153.683 L74.926,151.293 L75.386,148.916 L75.864,146.55 L76.362,144.197 L76.878,141.857 L77.413,139.529 L77.967,137.215 L78.54,134.913 L79.131,132.625 L79.741,130.351 L80.369,128.091 L81.015,125.844 L81.679,123.612 L82.361,121.394 L83.059,119.19 L83.776,117.003 L84.511,114.829 L85.262,112.67 L86.031,110.528 L86.816,108.401 L87.618,106.289 L88.438,104.194 L89.273,102.114 L90.125,100.052 L90.994,98.005 L91.878,95.976 L92.778,93.964 L93.695,91.969 L94.627,89.991 L95.574,88.031 L96.538,86.088 L97.516,84.164 L98.509,82.258 L99.517,80.37 L100.541,78.501 L101.579,76.651 L102.631,74.819 L103.699,73.007 L104.78,71.214 L105.876,69.442 L106.985,67.688 L108.109,65.954 L109.246,64.242 L110.397,62.549 L111.561,60.876 L112.739,59.225 L113.93,57.594 L115.133,55.984 L116.35,54.396 L117.579,52.83 L118.821,51.285 L120.076,49.762 L121.343,48.261 L122.621,46.782 L123.912,45.326 L125.215,43.893 L126.53,42.483 L127.856,41.096 L129.194,39.732 L130.543,38.392 L131.903,37.075 L133.274,35.781 L134.656,34.512 L136.049,33.268 L137.452,32.047 L138.866,30.852 L140.289,29.681 L141.723,28.535 L143.168,27.414 L144.622,26.318 L146.086,25.248 L147.559,24.205 L149.042,23.186 L150.534,22.193 L152.036,21.228 L153.546,20.288 L155.066,19.375 L156.593,18.489 L158.131,17.63 L159.676,16.798 L161.229,15.993 L162.791,15.216 L164.361,14.466 L165.939,13.744 L167.524,13.051 L169.118,12.385 L170.719,11.748 L172.327,11.139 L173.944,10.56 L175.567,10.009 L177.197,9.487 L178.834,8.995 L180.478,8.531 L182.129,8.098 L183.786,7.695 L185.451,7.321 L187.121,6.978 L188.798,6.664 L190.48,6.381 L192.17,6.13 L193.865,5.908 L195.566,5.718 L197.272,5.56 L198.985,5.432 L200.703,5.337 L202.427,5.273 L204.156,5.241 L205.011,5.237 L204.989,5.237 L205.877,5.241 L207.617,5.274 L209.341,5.338 L211.058,5.436 L212.771,5.563 L214.478,5.723 L216.179,5.914 L217.873,6.136 L219.562,6.389 L221.245,6.672 L222.921,6.985 L224.591,7.33 L226.254,7.704 L227.912,8.108 L229.562,8.543 L231.206,9.007 L232.843,9.499 L234.472,10.022 L236.095,10.573 L237.71,11.154 L239.318,11.762 L240.918,12.4 L242.512,13.066 L244.097,13.761 L245.674,14.482 L247.244,15.233 L248.805,16.01 L250.358,16.816 L251.902,17.648 L253.439,18.508 L254.966,19.394 L256.485,20.307 L257.995,21.247 L259.496,22.213 L260.987,23.206 L262.469,24.224 L263.942,25.269 L265.406,26.339 L266.859,27.435 L268.303,28.556 L269.736,29.702 L271.159,30.872 L272.573,32.069 L273.976,33.289 L275.368,34.534 L276.749,35.803 L278.119,37.096 L279.479,38.413 L280.828,39.754 L282.165,41.117 L283.491,42.505 L284.805,43.915 L286.107,45.349 L287.398,46.805 L288.676,48.283 L289.942,49.784 L291.196,51.307 L292.438,52.851 L293.667,54.418 L294.883,56.006 L296.087,57.615 L297.277,59.246 L298.454,60.898 L299.618,62.57 L300.768,64.263 L301.905,65.976 L303.029,67.709 L304.137,69.463 L305.233,71.236 L306.314,73.029 L307.381,74.841 L308.434,76.673 L309.471,78.523 L310.494,80.392 L311.502,82.279 L312.495,84.185 L313.473,86.11 L314.436,88.052 L315.383,90.012 L316.315,91.99 L317.231,93.985 L318.131,95.997 L319.015,98.027 L319.883,100.073 L320.735,102.136 L321.57,104.215 L322.389,106.31 L323.191,108.421 L323.976,110.549 L324.745,112.691 L325.496,114.849 L326.231,117.023 L326.947,119.211 L327.645,121.415 L328.328,123.633 L328.991,125.865 L329.637,128.111 L330.264,130.372 L330.874,132.646 L331.465,134.934 L332.037,137.235 L332.591,139.55 L333.127,141.877 L333.643,144.218 L334.14,146.571 L334.618,148.936 L335.078,151.314 L335.517,153.703 L335.937,156.105 L336.337,158.518 L336.717,160.942 L337.078,163.378 L337.418,165.824 L337.738,168.282 L338.037,170.751 L338.317,173.229 L338.575,175.718 L338.812,178.217 L339.029,180.725 L339.225,183.244 L339.399,185.771 L339.552,188.308 L339.683,190.855 L339.794,193.409 L339.881,195.973 L339.948,198.544 L339.992,201.125 L340.015,203.713 L340.017,205.005 L340.017,204.995 L340.014,206.302 L339.992,208.896 L339.948,211.475 L339.881,214.048 L339.793,216.611 L339.683,219.166 L339.551,221.712 L339.397,224.249 L339.223,226.776 L339.027,229.295 L338.81,231.804 L338.572,234.303 L338.314,236.791 L338.035,239.27 L337.735,241.738 L337.415,244.195 L337.075,246.642 L336.714,249.078 L336.334,251.503 L335.934,253.916 L335.514,256.317 L335.074,258.707 L334.614,261.084 L334.136,263.45 L333.638,265.803 L333.122,268.143 L332.587,270.471 L332.032,272.785 L331.46,275.087 L330.868,277.375 L330.259,279.649 L329.63,281.909 L328.985,284.156 L328.321,286.388 L327.639,288.606 L326.94,290.809 L326.223,292.997 L325.489,295.171 L324.737,297.329 L323.969,299.472 L323.184,301.599 L322.381,303.711 L321.562,305.806 L320.726,307.886 L319.874,309.948 L319.006,311.994 L318.122,314.024 L317.221,316.036 L316.305,318.031 L315.373,320.009 L314.426,321.969 L313.462,323.912 L312.484,325.836 L311.491,327.742 L310.482,329.63 L309.459,331.499 L308.421,333.349 L307.368,335.18 L306.301,336.992 L305.22,338.786 L304.124,340.558 L303.015,342.312 L301.891,344.046 L300.754,345.758 L299.603,347.451 L298.439,349.124 L297.261,350.775 L296.07,352.406 L294.867,354.016 L293.65,355.604 L292.421,357.17 L291.179,358.715 L289.924,360.238 L288.657,361.739 L287.379,363.217 L286.088,364.673 L284.785,366.106 L283.47,367.517 L282.144,368.904 L280.806,370.268 L279.457,371.608 L278.097,372.925 L276.726,374.219 L275.344,375.487 L273.951,376.732 L272.548,377.952 L271.134,379.148 L269.71,380.319 L268.276,381.465 L266.832,382.586 L265.378,383.682 L263.914,384.751 L262.441,385.795 L260.958,386.814 L259.466,387.806 L257.964,388.772 L256.453,389.712 L254.934,390.624 L253.406,391.511 L251.869,392.37 L250.324,393.202 L248.771,394.007 L247.209,394.784 L245.639,395.534 L244.061,396.256 L242.476,396.949 L240.882,397.614 L239.281,398.252 L237.673,398.86 L236.056,399.44 L234.433,399.991 L232.803,400.513 L231.166,401.005 L229.522,401.468 L227.871,401.902 L226.213,402.305 L224.549,402.679 L222.879,403.022 L221.202,403.336 L219.519,403.618 L217.83,403.87 L216.135,404.091 L214.434,404.282 L212.727,404.44 L211.015,404.567 L209.297,404.663 L207.573,404.727 L205.844,404.759 L204.989,404.762 L204.989,404.762 C203.681,404.769 202.625,405.834 202.631,407.142 C202.637,408.451 203.703,409.506 205.011,409.5 C205.011,409.5 205.011,409.5 205.011,409.5 L205.932,409.495 L207.75,409.461 L209.561,409.393 L211.367,409.291 L213.167,409.157 L214.961,408.99 L216.749,408.789 L218.53,408.556 L220.305,408.29 L222.073,407.993 L223.834,407.663 L225.588,407.301 L227.335,406.908 L229.075,406.484 L230.807,406.028 L232.532,405.542 L234.248,405.025 L235.957,404.477 L237.658,403.899 L239.35,403.291 L241.033,402.653 L242.708,401.986 L244.374,401.289 L246.033,400.564 L247.681,399.809 L249.32,399.025 L250.95,398.213 L252.571,397.373 L254.182,396.505 L255.784,395.609 L257.375,394.685 L258.956,393.734 L260.528,392.755 L262.089,391.75 L263.64,390.718 L265.181,389.66 L266.71,388.575 L268.229,387.464 L269.737,386.328 L271.233,385.166 L272.719,383.978 L274.194,382.765 L275.657,381.527 L277.109,380.264 L278.549,378.977 L279.976,377.664 L281.393,376.328 L282.797,374.969 L284.189,373.585 L285.568,372.177 L286.936,370.747 L288.291,369.292 L289.632,367.816 L290.962,366.316 L292.278,364.794 L293.581,363.25 L294.871,361.683 L296.148,360.095 L297.411,358.485 L298.661,356.853 L299.897,355.2 L301.119,353.525 L302.327,351.83 L303.522,350.114 L304.701,348.378 L305.867,346.621 L307.018,344.845 L308.155,343.048 L309.277,341.232 L310.384,339.396 L311.476,337.541 L312.553,335.667 L313.615,333.773 L314.661,331.862 L315.692,329.931 L316.707,327.982 L317.707,326.015 L318.691,324.031 L319.659,322.028 L320.61,320.008 L321.546,317.971 L322.465,315.916 L323.368,313.844 L324.253,311.756 L325.122,309.652 L325.975,307.53 L326.809,305.394 L327.627,303.24 L328.429,301.072 L329.212,298.887 L329.977,296.687 L330.726,294.472 L331.456,292.242 L332.168,289.998 L332.862,287.739 L333.538,285.465 L334.196,283.177 L334.835,280.875 L335.455,278.56 L336.057,276.231 L336.639,273.888 L337.203,271.533 L337.748,269.164 L338.274,266.783 L338.779,264.389 L339.266,261.982 L339.733,259.564 L340.18,257.133 L340.607,254.691 L341.014,252.237 L341.401,249.771 L341.767,247.295 L342.113,244.807 L342.438,242.309 L342.743,239.8 L343.026,237.281 L343.289,234.751 L343.53,232.211 L343.75,229.661 L343.949,227.103 L344.126,224.534 L344.282,221.956 L344.415,219.369 L344.527,216.774 L344.617,214.17 L344.684,211.557 L344.729,208.936 L344.752,206.312 L344.755,205.005 L344.755,205.005 C344.755,205.001 344.755,204.998 344.755,204.995 L344.755,204.995 L344.752,203.673 L344.729,201.043 L344.684,198.423 L344.617,195.81 L344.527,193.205 L344.414,190.61 L344.281,188.023 L344.125,185.445 L343.948,182.877 L343.749,180.318 L343.529,177.768 L343.287,175.228 L343.024,172.699 L342.74,170.18 L342.436,167.67 L342.11,165.172 L341.764,162.684 L341.397,160.208 L341.011,157.742 L340.603,155.288 L340.176,152.846 L339.729,150.416 L339.262,147.997 L338.775,145.591 L338.269,143.197 L337.743,140.815 L337.199,138.447 L336.635,136.091 L336.051,133.749 L335.45,131.419 L334.829,129.104 L334.189,126.802 L333.532,124.515 L332.856,122.241 L332.161,119.982 L331.449,117.737 L330.718,115.507 L329.97,113.292 L329.204,111.092 L328.421,108.908 L327.62,106.739 L326.801,104.586 L325.966,102.448 L325.114,100.327 L324.245,98.222 L323.358,96.134 L322.456,94.063 L321.536,92.009 L320.601,89.971 L319.649,87.951 L318.681,85.948 L317.696,83.964 L316.696,81.997 L315.681,80.047 L314.65,78.117 L313.603,76.205 L312.541,74.312 L311.463,72.437 L310.371,70.583 L309.263,68.746 L308.141,66.93 L307.004,65.133 L305.852,63.356 L304.687,61.6 L303.507,59.863 L302.312,58.148 L301.103,56.452 L299.881,54.778 L298.644,53.125 L297.394,51.494 L296.13,49.883 L294.853,48.294 L293.563,46.728 L292.259,45.184 L290.943,43.662 L289.613,42.162 L288.27,40.685 L286.915,39.232 L285.548,37.801 L284.167,36.393 L282.775,35.01 L281.37,33.649 L279.953,32.313 L278.525,31.002 L277.085,29.715 L275.632,28.452 L274.169,27.214 L272.694,26.001 L271.207,24.813 L269.71,23.651 L268.201,22.515 L266.682,21.404 L265.151,20.32 L263.611,19.261 L262.059,18.23 L260.498,17.225 L258.926,16.247 L257.343,15.296 L255.751,14.373 L254.149,13.477 L252.538,12.609 L250.916,11.77 L249.286,10.958 L247.646,10.175 L245.996,9.421 L244.338,8.695 L242.671,7.999 L240.996,7.332 L239.311,6.695 L237.619,6.088 L235.917,5.511 L234.209,4.963 L232.491,4.447 L230.766,3.961 L229.034,3.506 L227.294,3.082 L225.546,2.689 L223.792,2.329 L222.03,2 L220.262,1.702 L218.487,1.438 L216.705,1.206 L214.918,1.006 L213.123,0.839 L211.323,0.705 L209.517,0.605 L207.706,0.538 L205.899,0.504 L205.011,0.5 L205.011,0.5 C205.004,0.5 204.996,0.5 204.989,0.5 L204.989,0.5 L204.067,0.505 L202.25,0.539 L200.439,0.606 L198.633,0.708 L196.833,0.843 L195.039,1.01 L193.251,1.211 L191.47,1.444 L189.695,1.71 L187.927,2.007 L186.165,2.337 L184.412,2.699 L182.664,3.092 L180.925,3.516 L179.193,3.972 L177.468,4.458 L175.752,4.975 L174.043,5.523 L172.342,6.101 L170.65,6.709 L168.967,7.347 L167.291,8.014 L165.625,8.711 L163.967,9.436 L162.319,10.191 L160.679,10.974 L159.05,11.787 L157.429,12.627 L155.818,13.495 L154.216,14.391 L152.625,15.315 L151.043,16.266 L149.471,17.244 L147.91,18.25 L146.36,19.282 L144.819,20.34 L143.29,21.424 L141.771,22.535 L140.263,23.672 L138.766,24.834 L137.28,26.022 L135.805,27.235 L134.342,28.473 L132.891,29.736 L131.451,31.023 L130.023,32.336 L128.607,33.672 L127.203,35.031 L125.811,36.415 L124.432,37.822 L123.064,39.253 L121.709,40.707 L120.368,42.184 L119.038,43.683 L117.722,45.206 L116.419,46.75 L115.129,48.317 L113.852,49.905 L112.589,51.515 L111.339,53.147 L110.103,54.8 L108.881,56.474 L107.673,58.17 L106.478,59.885 L105.299,61.622 L104.133,63.379 L102.982,65.155 L101.845,66.951 L100.723,68.768 L99.616,70.604 L98.524,72.459 L97.447,74.333 L96.385,76.226 L95.339,78.138 L94.308,80.069 L93.292,82.018 L92.293,83.985 L91.309,85.969 L90.341,87.972 L89.389,89.992 L88.454,92.029 L87.535,94.084 L86.632,96.155 L85.746,98.244 L84.878,100.348 L84.025,102.47 L83.191,104.606 L82.373,106.759 L81.571,108.928 L80.788,111.113 L80.023,113.313 L79.274,115.528 L78.544,117.757 L77.832,120.002 L77.138,122.261 L76.462,124.535 L75.804,126.822 L75.165,129.125 L74.545,131.44 L73.943,133.769 L73.36,136.112 L72.797,138.467 L72.252,140.836 L71.726,143.217 L71.221,145.611 L70.733,148.018 L70.267,150.436 L69.82,152.867 L69.393,155.309 L68.986,157.763 L68.599,160.229 L68.233,162.705 L67.887,165.193 L67.562,167.691 L67.257,170.2 L66.973,172.719 L66.711,175.249 L66.47,177.789 L66.249,180.338 L66.05,182.897 L65.874,185.466 L65.718,188.044 L65.585,190.63 L65.472,193.226 L65.383,195.83 L65.315,198.442 L65.27,201.064 L65.248,203.688 L65.245,204.995 L65.245,204.995 C65.245,204.998 65.245,205.001 65.245,205.005 L65.245,205.005 L65.248,206.327 L65.27,208.956 L65.316,211.577 L65.383,214.19 L65.473,216.795 L65.585,219.39 L65.719,221.977 L65.874,224.555 L66.052,227.123 L66.251,229.682 L66.471,232.232 L66.713,234.772 L66.976,237.301 L67.259,239.82 L67.564,242.329 L67.89,244.828 L68.236,247.316 L68.602,249.792 L68.989,252.258 L69.397,254.712 L69.824,257.154 L70.271,259.584 L70.738,262.003 L71.225,264.409 L71.731,266.803 L72.257,269.185 L72.801,271.553 L73.365,273.909 L73.949,276.251 L74.55,278.58 L75.171,280.896 L75.81,283.198 L76.468,285.485 L77.144,287.759 L77.839,290.018 L78.551,292.263 L79.281,294.493 L80.03,296.708 L80.796,298.908 L81.579,301.092 L82.38,303.261 L83.198,305.414 L84.034,307.552 L84.886,309.672 L85.755,311.777 L86.642,313.866 L87.544,315.937 L88.463,317.991 L89.399,320.029 L90.351,322.049 L91.319,324.052 L92.303,326.036 L93.303,328.003 L94.319,329.953 L95.35,331.883 L96.397,333.795 L97.459,335.688 L98.537,337.562 L99.629,339.417 L100.736,341.254 L101.858,343.07 L102.995,344.867 L104.147,346.643 L105.313,348.4 L106.493,350.137 L107.688,351.852 L108.897,353.547 L110.119,355.221 L111.355,356.875 L112.606,358.506 L113.869,360.117 L115.147,361.705 L116.437,363.272 L117.741,364.816 L119.057,366.338 L120.387,367.838 L121.73,369.314 L123.085,370.768 L124.452,372.199 L125.832,373.607 L127.225,374.99 L128.63,376.35 L130.046,377.686 L131.475,378.998 L132.915,380.285 L134.368,381.548 L135.831,382.786 L137.306,383.999 L138.792,385.187 L140.29,386.349 L141.798,387.485 L143.318,388.596 L144.848,389.68 L146.389,390.739 L147.94,391.77 L149.502,392.775 L151.074,393.753 L152.657,394.704 L154.248,395.627 L155.85,396.522 L157.462,397.391 L159.084,398.23 L160.714,399.042 L162.354,399.825 L164.004,400.579 L165.662,401.305 L167.328,402.001 L169.004,402.668 L170.689,403.305 L172.381,403.912 L174.083,404.489 L175.791,405.036 L177.508,405.553 L179.234,406.039 L180.966,406.494 L182.706,406.918 L184.454,407.31 L186.208,407.671 L187.97,408 L189.737,408.297 L191.513,408.562 L193.294,408.794 L195.082,408.994 L196.877,409.161 L198.677,409.295 L200.483,409.395 L202.294,409.462 L204.101,409.496 L204.989,409.5 C204.989,409.5 204.989,409.5 204.989,409.5 C206.297,409.506 207.362,408.451 207.369,407.142 C207.375,405.834 206.319,404.769 205.011,404.762 L205.011,404.762" id="Shape"></path>
                <path d="M205.028,404.762 L204.686,404.759 L204.09,404.728 L203.523,404.67 L202.956,404.586 L202.39,404.473 L201.823,404.333 L201.255,404.166 L200.686,403.97 L200.115,403.746 L199.542,403.494 L198.967,403.212 L198.389,402.901 L197.81,402.561 L197.228,402.191 L196.645,401.791 L196.061,401.362 L195.475,400.902 L194.888,400.413 L194.3,399.893 L193.711,399.343 L193.123,398.763 L192.534,398.154 L191.946,397.514 L191.358,396.845 L190.771,396.146 L190.184,395.418 L189.6,394.661 L189.017,393.875 L188.435,393.06 L187.854,392.217 L187.276,391.345 L186.7,390.445 L186.127,389.517 L185.555,388.562 L184.987,387.58 L184.42,386.57 L183.857,385.533 L183.298,384.469 L182.461,382.818 L181.358,380.527 L180.272,378.14 L179.201,375.652 L178.145,373.066 L177.106,370.38 L176.083,367.6 L175.077,364.726 L174.09,361.76 L173.12,358.703 L172.17,355.557 L171.239,352.324 L170.329,349.006 L169.438,345.604 L168.569,342.12 L167.722,338.556 L166.896,334.913 L166.093,331.193 L165.312,327.398 L164.555,323.529 L163.821,319.588 L163.112,315.576 L162.428,311.495 L161.768,307.349 L161.134,303.135 L160.526,298.858 L159.944,294.519 L159.39,290.119 L158.863,285.661 L158.363,281.143 L157.891,276.572 L157.448,271.945 L157.033,267.266 L156.648,262.535 L156.293,257.756 L155.968,252.929 L155.674,248.055 L155.411,243.137 L155.178,238.176 L154.979,233.174 L154.811,228.131 L154.676,223.051 L154.574,217.934 L154.506,212.782 L154.471,207.597 L154.467,204.996 L154.467,205.004 L154.471,202.391 L154.506,197.202 L154.574,192.05 L154.676,186.933 L154.811,181.853 L154.979,176.81 L155.179,171.808 L155.411,166.847 L155.674,161.929 L155.969,157.055 L156.294,152.227 L156.649,147.448 L157.035,142.717 L157.449,138.038 L157.892,133.411 L158.364,128.838 L158.864,124.322 L159.392,119.862 L159.947,115.462 L160.529,111.123 L161.137,106.845 L161.771,102.632 L162.431,98.484 L163.116,94.403 L163.825,90.391 L164.559,86.45 L165.317,82.58 L166.098,78.784 L166.901,75.063 L167.727,71.42 L168.575,67.855 L169.445,64.369 L170.336,60.967 L171.247,57.648 L172.179,54.414 L173.129,51.266 L174.1,48.208 L175.088,45.24 L176.095,42.364 L177.12,39.582 L178.161,36.895 L179.219,34.306 L180.292,31.815 L181.38,29.425 L182.482,27.139 L183.314,25.499 L183.872,24.441 L184.436,23.402 L185.003,22.392 L185.572,21.408 L186.145,20.452 L186.72,19.523 L187.297,18.623 L187.876,17.75 L188.458,16.906 L189.042,16.09 L189.628,15.303 L190.214,14.544 L190.803,13.815 L191.392,13.116 L191.982,12.445 L192.574,11.805 L193.165,11.194 L193.757,10.614 L194.349,10.063 L194.94,9.543 L195.531,9.053 L196.12,8.592 L196.709,8.163 L197.297,7.764 L197.883,7.394 L198.466,7.056 L199.048,6.746 L199.628,6.467 L200.206,6.216 L200.782,5.995 L201.355,5.803 L201.927,5.639 L202.497,5.503 L203.066,5.396 L203.635,5.316 L204.203,5.263 L204.773,5.239 L205.028,5.237 L204.971,5.237 L205.313,5.241 L205.91,5.272 L206.477,5.33 L207.043,5.414 L207.609,5.526 L208.176,5.667 L208.744,5.834 L209.314,6.03 L209.885,6.254 L210.458,6.506 L211.033,6.788 L211.611,7.098 L212.19,7.439 L212.772,7.809 L213.354,8.209 L213.939,8.638 L214.525,9.098 L215.112,9.587 L215.699,10.107 L216.288,10.657 L216.877,11.237 L217.466,11.846 L218.054,12.486 L218.641,13.155 L219.229,13.854 L219.815,14.582 L220.4,15.339 L220.983,16.125 L221.565,16.94 L222.146,17.783 L222.724,18.655 L223.3,19.555 L223.873,20.482 L224.445,21.438 L225.013,22.42 L225.579,23.43 L226.142,24.467 L226.702,25.531 L227.539,27.182 L228.642,29.473 L229.728,31.859 L230.799,34.347 L231.855,36.934 L232.894,39.619 L233.917,42.4 L234.922,45.274 L235.91,48.24 L236.88,51.297 L237.83,54.443 L238.761,57.676 L239.671,60.994 L240.562,64.396 L241.431,67.88 L242.278,71.444 L243.104,75.087 L243.907,78.807 L244.688,82.602 L245.445,86.471 L246.179,90.412 L246.888,94.424 L247.572,98.504 L248.232,102.651 L248.866,106.864 L249.474,111.142 L250.055,115.481 L250.61,119.881 L251.137,124.339 L251.637,128.856 L252.109,133.428 L252.552,138.055 L252.967,142.734 L253.352,147.464 L253.707,152.244 L254.032,157.071 L254.326,161.944 L254.589,166.863 L254.821,171.824 L255.021,176.826 L255.189,181.869 L255.324,186.949 L255.426,192.066 L255.494,197.218 L255.529,202.403 L255.533,205.004 L255.533,204.996 L255.529,207.609 L255.494,212.798 L255.425,217.95 L255.323,223.067 L255.188,228.147 L255.021,233.189 L254.821,238.192 L254.588,243.153 L254.325,248.071 L254.031,252.945 L253.706,257.773 L253.35,262.552 L252.965,267.282 L252.551,271.962 L252.108,276.588 L251.635,281.162 L251.136,285.678 L250.607,290.137 L250.053,294.538 L249.471,298.877 L248.862,303.154 L248.228,307.368 L247.569,311.516 L246.884,315.597 L246.175,319.608 L245.441,323.55 L244.683,327.42 L243.902,331.216 L243.099,334.936 L242.273,338.58 L241.425,342.145 L240.554,345.63 L239.664,349.033 L238.753,352.352 L237.821,355.586 L236.87,358.733 L235.9,361.792 L234.911,364.76 L233.905,367.636 L232.88,370.418 L231.839,373.105 L230.781,375.694 L229.708,378.185 L228.62,380.575 L227.518,382.861 L226.686,384.501 L226.127,385.559 L225.564,386.598 L224.997,387.608 L224.427,388.592 L223.855,389.548 L223.28,390.477 L222.703,391.377 L222.123,392.25 L221.542,393.094 L220.958,393.91 L220.372,394.697 L219.785,395.456 L219.197,396.185 L218.607,396.884 L218.018,397.554 L217.426,398.195 L216.835,398.806 L216.243,399.386 L215.651,399.937 L215.06,400.457 L214.469,400.947 L213.879,401.408 L213.29,401.837 L212.703,402.236 L212.117,402.605 L211.534,402.944 L210.952,403.254 L210.371,403.533 L209.793,403.783 L209.218,404.004 L208.645,404.197 L208.073,404.361 L207.503,404.496 L206.934,404.604 L206.365,404.684 L205.797,404.736 L205.227,404.761 L204.971,404.762 L204.971,404.762 C203.663,404.778 202.615,405.852 202.631,407.16 C202.647,408.468 203.721,409.516 205.028,409.5 C205.028,409.5 205.028,409.5 205.028,409.5 L205.456,409.493 L206.253,409.452 L207.046,409.372 L207.834,409.255 L208.618,409.101 L209.395,408.91 L210.167,408.684 L210.932,408.421 L211.69,408.125 L212.441,407.794 L213.185,407.431 L213.922,407.036 L214.652,406.608 L215.373,406.149 L216.089,405.659 L216.797,405.139 L217.499,404.59 L218.194,404.01 L218.882,403.402 L219.564,402.765 L220.24,402.099 L220.91,401.405 L221.574,400.684 L222.232,399.934 L222.885,399.158 L223.533,398.353 L224.175,397.523 L224.812,396.665 L225.444,395.78 L226.071,394.87 L226.692,393.933 L227.309,392.969 L227.921,391.98 L228.528,390.965 L229.129,389.925 L229.727,388.858 L230.319,387.767 L230.911,386.644 L231.785,384.917 L232.932,382.537 L234.059,380.059 L235.167,377.485 L236.257,374.816 L237.326,372.054 L238.376,369.201 L239.406,366.257 L240.416,363.224 L241.405,360.103 L242.374,356.898 L243.321,353.607 L244.247,350.233 L245.151,346.777 L246.033,343.241 L246.893,339.627 L247.729,335.937 L248.543,332.171 L249.333,328.33 L250.098,324.417 L250.84,320.433 L251.556,316.381 L252.247,312.26 L252.913,308.073 L253.553,303.822 L254.166,299.507 L254.753,295.13 L255.312,290.694 L255.844,286.199 L256.348,281.648 L256.823,277.041 L257.27,272.38 L257.687,267.667 L258.075,262.903 L258.433,258.091 L258.76,253.231 L259.056,248.325 L259.321,243.374 L259.554,238.382 L259.755,233.347 L259.924,228.273 L260.06,223.161 L260.163,218.013 L260.232,212.829 L260.266,207.617 L260.27,205.004 L260.27,205.004 C260.27,205.001 260.27,204.998 260.27,204.996 L260.27,204.996 L260.265,202.371 L260.232,197.155 L260.162,191.972 L260.06,186.823 L259.924,181.711 L259.755,176.637 L259.554,171.602 L259.32,166.609 L259.055,161.659 L258.759,156.753 L258.431,151.892 L258.074,147.08 L257.686,142.316 L257.268,137.603 L256.821,132.942 L256.346,128.335 L255.842,123.783 L255.31,119.288 L254.75,114.851 L254.164,110.474 L253.55,106.159 L252.911,101.907 L252.244,97.72 L251.552,93.599 L250.836,89.545 L250.094,85.561 L249.328,81.648 L248.538,77.806 L247.725,74.039 L246.887,70.348 L246.027,66.733 L245.144,63.197 L244.239,59.74 L243.313,56.365 L242.365,53.073 L241.395,49.865 L240.405,46.744 L239.395,43.709 L238.363,40.764 L237.312,37.908 L236.241,35.144 L235.15,32.473 L234.04,29.897 L232.91,27.416 L231.764,25.039 L230.893,23.323 L230.305,22.206 L229.711,21.114 L229.114,20.047 L228.51,19.005 L227.902,17.99 L227.289,17 L226.671,16.035 L226.048,15.097 L225.42,14.185 L224.786,13.3 L224.148,12.441 L223.504,11.608 L222.854,10.804 L222.198,10.026 L221.538,9.275 L220.871,8.553 L220.198,7.858 L219.519,7.192 L218.833,6.554 L218.142,5.945 L217.443,5.365 L216.738,4.815 L216.025,4.295 L215.305,3.806 L214.578,3.348 L213.845,2.921 L213.103,2.527 L212.355,2.165 L211.599,1.837 L210.836,1.544 L210.067,1.285 L209.291,1.062 L208.51,0.876 L207.724,0.726 L206.934,0.614 L206.139,0.54 L205.371,0.504 L205.028,0.5 L205.028,0.5 C205.009,0.5 204.99,0.5 204.971,0.5 L204.971,0.5 L204.544,0.507 L203.747,0.548 L202.954,0.628 L202.165,0.745 L201.382,0.899 L200.604,1.09 L199.833,1.316 L199.068,1.578 L198.31,1.875 L197.559,2.205 L196.814,2.569 L196.078,2.964 L195.348,3.392 L194.626,3.851 L193.911,4.34 L193.203,4.861 L192.501,5.41 L191.806,5.99 L191.118,6.598 L190.435,7.235 L189.76,7.901 L189.09,8.595 L188.426,9.316 L187.767,10.066 L187.114,10.842 L186.467,11.646 L185.825,12.477 L185.188,13.334 L184.556,14.22 L183.929,15.13 L183.308,16.067 L182.691,17.03 L182.079,18.02 L181.472,19.035 L180.87,20.075 L180.273,21.142 L179.681,22.233 L179.089,23.356 L178.214,25.083 L177.068,27.463 L175.94,29.941 L174.833,32.515 L173.743,35.184 L172.674,37.946 L171.624,40.799 L170.594,43.743 L169.584,46.776 L168.595,49.897 L167.626,53.103 L166.679,56.393 L165.752,59.768 L164.848,63.223 L163.966,66.759 L163.107,70.373 L162.27,74.063 L161.457,77.829 L160.667,81.67 L159.902,85.583 L159.16,89.566 L158.443,93.619 L157.753,97.74 L157.087,101.927 L156.447,106.178 L155.834,110.493 L155.247,114.87 L154.687,119.306 L154.156,123.801 L153.652,128.352 L153.177,132.959 L152.73,137.62 L152.312,142.333 L151.925,147.096 L151.567,151.909 L151.24,156.769 L150.944,161.675 L150.679,166.626 L150.446,171.618 L150.244,176.653 L150.075,181.726 L149.94,186.839 L149.837,191.987 L149.768,197.17 L149.734,202.383 L149.73,204.996 L149.73,204.996 C149.73,204.998 149.73,205.001 149.73,205.004 L149.73,205.004 L149.734,207.628 L149.768,212.845 L149.838,218.028 L149.94,223.177 L150.076,228.289 L150.244,233.363 L150.446,238.397 L150.679,243.391 L150.945,248.341 L151.241,253.247 L151.569,258.108 L151.926,262.92 L152.314,267.684 L152.732,272.396 L153.178,277.058 L153.654,281.665 L154.158,286.217 L154.69,290.712 L155.25,295.149 L155.836,299.526 L156.45,303.841 L157.089,308.092 L157.756,312.28 L158.447,316.401 L159.164,320.455 L159.906,324.439 L160.672,328.352 L161.462,332.193 L162.275,335.96 L163.113,339.652 L163.973,343.267 L164.856,346.803 L165.76,350.26 L166.687,353.635 L167.635,356.927 L168.604,360.135 L169.595,363.256 L170.605,366.291 L171.636,369.236 L172.688,372.092 L173.759,374.856 L174.85,377.527 L175.96,380.103 L177.09,382.584 L178.236,384.961 L179.107,386.676 L179.695,387.794 L180.289,388.886 L180.886,389.953 L181.49,390.995 L182.097,392.01 L182.711,393 L183.328,393.965 L183.952,394.903 L184.58,395.815 L185.214,396.7 L185.852,397.559 L186.496,398.391 L187.146,399.196 L187.801,399.974 L188.462,400.725 L189.129,401.447 L189.802,402.142 L190.481,402.808 L191.167,403.445 L191.858,404.055 L192.557,404.635 L193.262,405.185 L193.975,405.704 L194.694,406.194 L195.422,406.652 L196.155,407.079 L196.896,407.473 L197.645,407.835 L198.401,408.162 L199.163,408.456 L199.933,408.715 L200.709,408.938 L201.489,409.124 L202.276,409.274 L203.066,409.386 L203.861,409.46 L204.629,409.496 L204.971,409.5 C206.279,409.516 207.353,408.468 207.369,407.16 C207.384,405.852 206.337,404.778 205.028,404.762 L205.028,404.762" id="Shape"></path>
                <path d="M404.762,204.993 L404.759,206.3 L404.725,208.885 L404.66,211.456 L404.563,214.018 L404.433,216.573 L404.271,219.118 L404.078,221.654 L403.854,224.182 L403.598,226.701 L403.31,229.209 L402.993,231.709 L402.644,234.198 L402.265,236.678 L401.856,239.147 L401.416,241.607 L400.947,244.055 L400.447,246.494 L399.919,248.921 L399.361,251.337 L398.774,253.742 L398.158,256.135 L397.513,258.517 L396.841,260.886 L396.139,263.244 L395.409,265.59 L394.652,267.922 L393.866,270.243 L393.053,272.55 L392.213,274.844 L391.346,277.125 L390.451,279.393 L389.53,281.647 L388.582,283.888 L387.608,286.114 L386.608,288.326 L385.581,290.524 L384.53,292.707 L383.452,294.875 L382.349,297.028 L381.22,299.166 L380.067,301.289 L378.889,303.396 L377.686,305.488 L376.459,307.563 L375.208,309.622 L373.932,311.665 L372.633,313.691 L371.31,315.701 L369.964,317.694 L368.594,319.669 L367.202,321.626 L365.786,323.567 L364.347,325.49 L362.887,327.395 L361.404,329.281 L359.899,331.15 L358.373,333 L356.823,334.831 L355.254,336.643 L353.663,338.437 L352.05,340.21 L350.417,341.964 L348.763,343.699 L347.088,345.413 L345.394,347.108 L343.679,348.782 L341.944,350.436 L340.189,352.069 L338.415,353.681 L336.622,355.272 L334.81,356.842 L332.978,358.391 L331.128,359.917 L329.259,361.422 L327.373,362.904 L325.468,364.365 L323.544,365.802 L321.604,367.218 L319.645,368.61 L317.67,369.979 L315.677,371.326 L313.668,372.648 L311.641,373.948 L309.598,375.223 L307.538,376.474 L305.463,377.701 L303.372,378.903 L301.264,380.081 L299.141,381.234 L297.003,382.362 L294.849,383.464 L292.681,384.542 L290.497,385.594 L288.299,386.62 L286.088,387.62 L283.861,388.594 L281.62,389.541 L279.366,390.462 L277.098,391.356 L274.817,392.223 L272.522,393.063 L270.215,393.876 L267.894,394.661 L265.561,395.418 L263.216,396.147 L260.858,396.849 L258.488,397.521 L256.107,398.166 L253.713,398.781 L251.309,399.368 L248.892,399.926 L246.464,400.454 L244.026,400.953 L241.578,401.422 L239.118,401.861 L236.648,402.27 L234.169,402.649 L231.679,402.997 L229.18,403.314 L226.671,403.601 L224.152,403.857 L221.624,404.081 L219.088,404.274 L216.543,404.435 L213.988,404.564 L211.426,404.661 L208.855,404.726 L206.277,404.759 L204.993,404.762 L205.007,404.762 L203.7,404.759 L201.114,404.725 L198.544,404.66 L195.981,404.563 L193.427,404.433 L190.882,404.271 L188.345,404.078 L185.818,403.854 L183.299,403.598 L180.791,403.31 L178.291,402.993 L175.801,402.644 L173.321,402.265 L170.852,401.856 L168.393,401.416 L165.944,400.947 L163.506,400.447 L161.079,399.919 L158.663,399.361 L156.258,398.774 L153.865,398.158 L151.483,397.513 L149.114,396.841 L146.756,396.139 L144.41,395.409 L142.078,394.652 L139.757,393.866 L137.45,393.053 L135.156,392.213 L132.875,391.346 L130.607,390.451 L128.353,389.53 L126.112,388.582 L123.886,387.608 L121.674,386.608 L119.476,385.581 L117.293,384.53 L115.125,383.452 L112.972,382.349 L110.834,381.22 L108.71,380.067 L106.604,378.889 L104.512,377.686 L102.437,376.459 L100.378,375.208 L98.335,373.932 L96.309,372.633 L94.299,371.31 L92.306,369.964 L90.331,368.594 L88.373,367.202 L86.433,365.786 L84.51,364.347 L82.605,362.887 L80.718,361.404 L78.849,359.899 L76.999,358.373 L75.168,356.823 L73.356,355.254 L71.563,353.663 L69.79,352.05 L68.035,350.417 L66.301,348.763 L64.587,347.088 L62.891,345.393 L61.217,343.679 L59.564,341.944 L57.93,340.189 L56.319,338.415 L54.727,336.622 L53.157,334.81 L51.609,332.978 L50.083,331.128 L48.578,329.259 L47.096,327.373 L45.635,325.468 L44.197,323.544 L42.782,321.604 L41.39,319.645 L40.021,317.67 L38.674,315.677 L37.352,313.668 L36.052,311.641 L34.777,309.598 L33.526,307.538 L32.299,305.463 L31.097,303.372 L29.919,301.264 L28.766,299.141 L27.638,297.003 L26.535,294.849 L25.458,292.681 L24.406,290.497 L23.38,288.299 L22.38,286.088 L21.406,283.861 L20.459,281.62 L19.538,279.366 L18.644,277.098 L17.777,274.817 L16.937,272.522 L16.124,270.215 L15.339,267.894 L14.582,265.561 L13.852,263.216 L13.151,260.858 L12.479,258.488 L11.834,256.107 L11.218,253.713 L10.632,251.309 L10.074,248.892 L9.546,246.464 L9.047,244.026 L8.578,241.578 L8.139,239.118 L7.73,236.648 L7.351,234.169 L7.003,231.679 L6.685,229.18 L6.399,226.671 L6.143,224.152 L5.919,221.624 L5.726,219.088 L5.565,216.543 L5.436,213.988 L5.338,211.426 L5.274,208.855 L5.241,206.277 L5.237,204.993 L5.237,205.007 L5.241,203.7 L5.274,201.114 L5.34,198.544 L5.437,195.981 L5.567,193.427 L5.728,190.882 L5.922,188.345 L6.146,185.818 L6.402,183.299 L6.689,180.791 L7.007,178.291 L7.356,175.801 L7.735,173.321 L8.144,170.852 L8.584,168.393 L9.053,165.944 L9.552,163.506 L10.081,161.079 L10.639,158.663 L11.225,156.258 L11.841,153.865 L12.486,151.483 L13.159,149.114 L13.861,146.756 L14.591,144.41 L15.348,142.078 L16.133,139.757 L16.947,137.45 L17.787,135.156 L18.654,132.875 L19.548,130.607 L20.47,128.353 L21.417,126.112 L22.392,123.886 L23.392,121.674 L24.419,119.476 L25.47,117.293 L26.548,115.125 L27.651,112.972 L28.779,110.834 L29.933,108.71 L31.111,106.604 L32.313,104.512 L33.541,102.437 L34.792,100.378 L36.068,98.335 L37.367,96.309 L38.69,94.299 L40.036,92.306 L41.406,90.331 L42.798,88.373 L44.214,86.433 L45.653,84.51 L47.113,82.605 L48.596,80.718 L50.101,78.849 L51.627,76.999 L53.176,75.168 L54.746,73.356 L56.337,71.563 L57.95,69.79 L59.583,68.035 L61.237,66.301 L62.912,64.587 L64.606,62.891 L66.321,61.217 L68.056,59.564 L69.81,57.93 L71.585,56.319 L73.378,54.727 L75.191,53.157 L77.022,51.609 L78.872,50.083 L80.741,48.578 L82.627,47.096 L84.532,45.635 L86.455,44.197 L88.396,42.782 L90.354,41.39 L92.33,40.021 L94.323,38.674 L96.332,37.352 L98.359,36.052 L100.402,34.777 L102.462,33.526 L104.537,32.299 L106.628,31.097 L108.736,29.919 L110.859,28.766 L112.997,27.638 L115.151,26.535 L117.319,25.458 L119.502,24.406 L121.701,23.38 L123.912,22.38 L126.139,21.406 L128.38,20.459 L130.634,19.538 L132.901,18.644 L135.183,17.777 L137.478,16.936 L139.785,16.124 L142.106,15.339 L144.439,14.582 L146.784,13.852 L149.142,13.151 L151.512,12.479 L153.893,11.834 L156.287,11.218 L158.691,10.632 L161.108,10.074 L163.535,9.546 L165.974,9.047 L168.422,8.578 L170.882,8.139 L173.351,7.73 L175.831,7.351 L178.321,7.003 L180.82,6.685 L183.329,6.399 L185.848,6.143 L188.375,5.919 L190.912,5.726 L193.457,5.565 L196.011,5.436 L198.574,5.338 L201.144,5.274 L203.722,5.241 L205.007,5.237 L204.993,5.237 L206.3,5.241 L208.885,5.274 L211.456,5.34 L214.018,5.437 L216.573,5.567 L219.118,5.728 L221.654,5.922 L224.182,6.146 L226.701,6.402 L229.209,6.689 L231.709,7.007 L234.198,7.356 L236.678,7.735 L239.147,8.144 L241.607,8.584 L244.055,9.053 L246.494,9.552 L248.921,10.081 L251.337,10.639 L253.742,11.225 L256.135,11.841 L258.517,12.486 L260.886,13.159 L263.244,13.861 L265.59,14.591 L267.922,15.348 L270.243,16.133 L272.55,16.947 L274.844,17.787 L277.125,18.654 L279.393,19.548 L281.647,20.47 L283.888,21.417 L286.114,22.392 L288.326,23.392 L290.524,24.419 L292.707,25.47 L294.875,26.548 L297.028,27.651 L299.166,28.779 L301.289,29.933 L303.396,31.111 L305.488,32.313 L307.563,33.541 L309.622,34.792 L311.665,36.068 L313.691,37.367 L315.701,38.69 L317.694,40.036 L319.669,41.406 L321.627,42.798 L323.567,44.214 L325.49,45.653 L327.395,47.113 L329.281,48.596 L331.15,50.101 L333,51.627 L334.831,53.176 L336.643,54.746 L338.437,56.337 L340.21,57.95 L341.964,59.583 L343.699,61.237 L345.413,62.912 L347.108,64.606 L348.782,66.321 L350.436,68.056 L352.069,69.81 L353.681,71.585 L355.272,73.378 L356.842,75.191 L358.391,77.022 L359.917,78.872 L361.422,80.74 L362.904,82.627 L364.365,84.532 L365.802,86.455 L367.218,88.396 L368.61,90.354 L369.979,92.33 L371.326,94.323 L372.648,96.332 L373.948,98.359 L375.223,100.402 L376.474,102.462 L377.701,104.537 L378.903,106.628 L380.081,108.736 L381.234,110.859 L382.362,112.997 L383.464,115.151 L384.542,117.319 L385.594,119.502 L386.62,121.701 L387.62,123.912 L388.594,126.139 L389.541,128.38 L390.462,130.634 L391.356,132.901 L392.223,135.182 L393.063,137.478 L393.876,139.785 L394.661,142.105 L395.418,144.439 L396.147,146.784 L396.849,149.142 L397.521,151.512 L398.166,153.893 L398.781,156.287 L399.368,158.691 L399.926,161.108 L400.454,163.535 L400.953,165.974 L401.422,168.422 L401.861,170.882 L402.27,173.351 L402.649,175.831 L402.997,178.321 L403.314,180.82 L403.601,183.329 L403.857,185.848 L404.081,188.375 L404.274,190.912 L404.435,193.457 L404.564,196.011 L404.661,198.574 L404.726,201.144 L404.759,203.722 L404.762,205.007 L404.762,205.007 C404.766,206.315 405.831,207.373 407.139,207.369 C408.447,207.365 409.504,206.3 409.5,204.993 L409.496,203.662 L409.462,201.024 L409.395,198.394 L409.295,195.771 L409.163,193.158 L408.997,190.552 L408.8,187.956 L408.57,185.369 L408.308,182.792 L408.014,180.223 L407.689,177.664 L407.332,175.115 L406.943,172.577 L406.525,170.049 L406.075,167.531 L405.594,165.024 L405.083,162.527 L404.541,160.042 L403.971,157.569 L403.37,155.107 L402.739,152.656 L402.079,150.218 L401.389,147.791 L400.671,145.377 L399.924,142.976 L399.149,140.587 L398.344,138.211 L397.512,135.849 L396.651,133.499 L395.764,131.164 L394.848,128.841 L393.904,126.533 L392.934,124.24 L391.937,121.961 L390.913,119.696 L389.862,117.445 L388.785,115.211 L387.682,112.991 L386.552,110.786 L385.397,108.598 L384.216,106.425 L383.01,104.267 L381.779,102.126 L380.523,100.001 L379.241,97.893 L377.936,95.802 L376.605,93.727 L375.251,91.671 L373.873,89.631 L372.471,87.609 L371.045,85.604 L369.596,83.618 L368.125,81.65 L366.629,79.7 L365.112,77.769 L363.571,75.856 L362.008,73.963 L360.423,72.088 L358.816,70.234 L357.187,68.398 L355.536,66.583 L353.865,64.787 L352.172,63.011 L350.458,61.256 L348.723,59.522 L346.968,57.808 L345.192,56.115 L343.397,54.444 L341.581,52.794 L339.745,51.165 L337.89,49.559 L336.016,47.974 L334.122,46.411 L332.209,44.871 L330.278,43.353 L328.328,41.859 L326.359,40.387 L324.373,38.938 L322.368,37.513 L320.346,36.111 L318.306,34.733 L316.248,33.379 L314.174,32.049 L312.082,30.744 L309.974,29.463 L307.849,28.207 L305.708,26.976 L303.551,25.77 L301.377,24.59 L299.188,23.435 L296.983,22.306 L294.763,21.203 L292.527,20.126 L290.278,19.075 L288.013,18.051 L285.733,17.054 L283.439,16.085 L281.131,15.142 L278.809,14.226 L276.473,13.338 L274.124,12.478 L271.761,11.646 L269.385,10.843 L266.997,10.067 L264.595,9.32 L262.18,8.602 L259.754,7.913 L257.316,7.253 L254.865,6.623 L252.403,6.022 L249.928,5.451 L247.444,4.91 L244.947,4.4 L242.44,3.92 L239.922,3.47 L237.394,3.052 L234.855,2.664 L232.306,2.307 L229.748,1.983 L227.179,1.689 L224.601,1.428 L222.014,1.198 L219.418,1 L216.812,0.835 L214.198,0.703 L211.576,0.603 L208.945,0.537 L206.315,0.504 L205.007,0.5 L205.007,0.5 C205.002,0.5 204.998,0.5 204.993,0.5 L204.993,0.5 L203.662,0.504 L201.024,0.538 L198.394,0.605 L195.771,0.704 L193.158,0.837 L190.552,1.003 L187.956,1.2 L185.369,1.43 L182.792,1.692 L180.223,1.986 L177.664,2.311 L175.115,2.668 L172.577,3.057 L170.049,3.476 L167.531,3.925 L165.024,4.406 L162.527,4.917 L160.042,5.458 L157.569,6.029 L155.107,6.63 L152.656,7.261 L150.218,7.921 L147.791,8.61 L145.377,9.329 L142.976,10.076 L140.587,10.851 L138.211,11.656 L135.849,12.488 L133.499,13.349 L131.164,14.236 L128.841,15.152 L126.534,16.096 L124.24,17.066 L121.961,18.063 L119.696,19.087 L117.445,20.138 L115.211,21.215 L112.991,22.318 L110.786,23.448 L108.598,24.603 L106.425,25.784 L104.267,26.99 L102.126,28.221 L100.001,29.477 L97.893,30.759 L95.802,32.064 L93.727,33.394 L91.671,34.749 L89.631,36.127 L87.609,37.529 L85.604,38.955 L83.618,40.403 L81.65,41.875 L79.7,43.371 L77.769,44.888 L75.856,46.429 L73.963,47.992 L72.088,49.577 L70.234,51.184 L68.398,52.812 L66.583,54.463 L64.787,56.135 L63.011,57.828 L61.256,59.542 L59.522,61.277 L57.808,63.032 L56.115,64.808 L54.444,66.603 L52.794,68.419 L51.165,70.255 L49.559,72.11 L47.974,73.984 L46.411,75.878 L44.871,77.791 L43.353,79.722 L41.859,81.672 L40.387,83.641 L38.938,85.627 L37.513,87.632 L36.111,89.654 L34.733,91.694 L33.379,93.752 L32.049,95.826 L30.744,97.918 L29.463,100.026 L28.207,102.151 L26.976,104.292 L25.77,106.449 L24.59,108.623 L23.435,110.812 L22.306,113.017 L21.203,115.237 L20.126,117.472 L19.075,119.722 L18.051,121.987 L17.054,124.267 L16.085,126.56 L15.142,128.869 L14.226,131.191 L13.338,133.527 L12.478,135.876 L11.646,138.239 L10.843,140.615 L10.067,143.003 L9.32,145.405 L8.602,147.82 L7.913,150.246 L7.253,152.684 L6.623,155.135 L6.022,157.597 L5.451,160.071 L4.91,162.556 L4.4,165.053 L3.92,167.56 L3.47,170.078 L3.052,172.606 L2.664,175.145 L2.307,177.694 L1.983,180.252 L1.689,182.821 L1.428,185.399 L1.198,187.986 L1,190.582 L0.835,193.188 L0.703,195.801 L0.603,198.424 L0.537,201.054 L0.504,203.685 L0.5,204.993 L0.5,204.993 C0.5,204.998 0.5,205.002 0.5,205.007 L0.5,205.007 L0.504,206.337 L0.538,208.975 L0.605,211.606 L0.704,214.228 L0.837,216.842 L1.003,219.448 L1.2,222.044 L1.43,224.631 L1.692,227.208 L1.986,229.777 L2.311,232.336 L2.668,234.885 L3.057,237.423 L3.476,239.951 L3.925,242.469 L4.406,244.976 L4.917,247.473 L5.458,249.958 L6.029,252.431 L6.63,254.893 L7.261,257.344 L7.921,259.782 L8.61,262.209 L9.329,264.623 L10.076,267.024 L10.851,269.413 L11.656,271.789 L12.488,274.151 L13.349,276.501 L14.236,278.836 L15.152,281.158 L16.096,283.466 L17.066,285.76 L18.063,288.039 L19.087,290.304 L20.138,292.554 L21.215,294.789 L22.318,297.009 L23.448,299.214 L24.603,301.402 L25.784,303.575 L26.99,305.733 L28.221,307.874 L29.477,309.998 L30.759,312.107 L32.064,314.197 L33.394,316.272 L34.749,318.329 L36.127,320.369 L37.529,322.391 L38.955,324.396 L40.403,326.382 L41.875,328.35 L43.371,330.3 L44.888,332.231 L46.429,334.144 L47.992,336.037 L49.577,337.911 L51.184,339.766 L52.812,341.602 L54.463,343.417 L56.135,345.213 L57.828,346.988 L59.542,348.744 L61.277,350.478 L63.032,352.192 L64.808,353.885 L66.603,355.556 L68.419,357.206 L70.255,358.834 L72.11,360.441 L73.984,362.026 L75.878,363.588 L77.791,365.129 L79.722,366.647 L81.672,368.141 L83.641,369.613 L85.627,371.062 L87.632,372.487 L89.654,373.889 L91.694,375.267 L93.752,376.621 L95.826,377.951 L97.918,379.256 L100.026,380.537 L102.151,381.793 L104.292,383.024 L106.449,384.23 L108.623,385.41 L110.812,386.565 L113.017,387.694 L115.237,388.797 L117.472,389.874 L119.722,390.924 L121.987,391.948 L124.267,392.946 L126.56,393.915 L128.869,394.859 L131.191,395.774 L133.527,396.661 L135.876,397.522 L138.239,398.353 L140.615,399.157 L143.003,399.933 L145.405,400.68 L147.82,401.397 L150.246,402.087 L152.684,402.747 L155.135,403.377 L157.597,403.978 L160.072,404.548 L162.556,405.089 L165.053,405.599 L167.56,406.08 L170.078,406.53 L172.606,406.948 L175.145,407.336 L177.694,407.693 L180.252,408.017 L182.821,408.311 L185.399,408.572 L187.986,408.802 L190.582,408.999 L193.188,409.164 L195.801,409.297 L198.424,409.396 L201.054,409.463 L203.685,409.496 L204.993,409.5 L204.993,409.5 C204.998,409.5 205.002,409.5 205.007,409.5 L205.007,409.5 L206.337,409.496 L208.975,409.462 L211.606,409.395 L214.228,409.295 L216.842,409.163 L219.448,408.997 L222.044,408.8 L224.631,408.57 L227.208,408.308 L229.777,408.014 L232.336,407.689 L234.885,407.332 L237.423,406.943 L239.951,406.525 L242.469,406.075 L244.976,405.594 L247.473,405.083 L249.958,404.541 L252.431,403.971 L254.893,403.37 L257.344,402.739 L259.782,402.079 L262.209,401.389 L264.623,400.671 L267.024,399.924 L269.413,399.149 L271.789,398.344 L274.151,397.512 L276.501,396.651 L278.836,395.764 L281.158,394.848 L283.466,393.904 L285.76,392.934 L288.039,391.937 L290.304,390.913 L292.554,389.862 L294.789,388.785 L297.009,387.682 L299.214,386.552 L301.402,385.397 L303.575,384.216 L305.733,383.01 L307.874,381.779 L309.998,380.522 L312.107,379.241 L314.197,377.936 L316.272,376.605 L318.329,375.251 L320.369,373.873 L322.391,372.471 L324.396,371.045 L326.382,369.596 L328.35,368.125 L330.3,366.629 L332.231,365.112 L334.144,363.571 L336.037,362.008 L337.911,360.423 L339.766,358.815 L341.602,357.187 L343.417,355.536 L345.213,353.865 L346.988,352.172 L348.744,350.458 L350.478,348.723 L352.192,346.968 L353.885,345.192 L355.556,343.397 L357.206,341.581 L358.834,339.745 L360.441,337.89 L362.026,336.016 L363.589,334.122 L365.129,332.209 L366.647,330.278 L368.141,328.328 L369.613,326.359 L371.062,324.373 L372.487,322.368 L373.889,320.346 L375.267,318.306 L376.621,316.248 L377.951,314.174 L379.256,312.082 L380.537,309.974 L381.793,307.849 L383.024,305.708 L384.23,303.551 L385.41,301.377 L386.565,299.188 L387.694,296.983 L388.797,294.763 L389.874,292.527 L390.924,290.278 L391.948,288.013 L392.946,285.733 L393.915,283.439 L394.859,281.131 L395.774,278.809 L396.661,276.473 L397.522,274.124 L398.353,271.761 L399.157,269.385 L399.933,266.997 L400.68,264.595 L401.397,262.18 L402.087,259.754 L402.747,257.316 L403.377,254.865 L403.978,252.403 L404.548,249.928 L405.089,247.444 L405.599,244.947 L406.08,242.44 L406.53,239.922 L406.948,237.394 L407.336,234.855 L407.693,232.306 L408.017,229.748 L408.311,227.179 L408.572,224.601 L408.802,222.014 L408.999,219.418 L409.164,216.812 L409.297,214.198 L409.396,211.576 L409.463,208.945 L409.496,206.315 L409.5,205.007 C409.504,203.699 408.447,202.635 407.139,202.631 C405.831,202.627 404.766,203.684 404.762,204.993 L404.762,204.993" id="Shape"></path>
                <path d="M404.762,204.989 L404.759,205.877 L404.725,207.617 L404.661,209.341 L404.564,211.058 L404.436,212.771 L404.277,214.478 L404.086,216.179 L403.864,217.873 L403.611,219.562 L403.328,221.245 L403.014,222.921 L402.67,224.591 L402.296,226.254 L401.892,227.912 L401.457,229.562 L400.993,231.206 L400.5,232.843 L399.978,234.472 L399.427,236.095 L398.846,237.71 L398.237,239.318 L397.599,240.918 L396.934,242.512 L396.239,244.097 L395.517,245.674 L394.767,247.244 L393.99,248.805 L393.184,250.358 L392.352,251.902 L391.492,253.439 L390.606,254.966 L389.693,256.485 L388.753,257.995 L387.787,259.496 L386.794,260.987 L385.776,262.469 L384.731,263.942 L383.661,265.406 L382.565,266.859 L381.444,268.303 L380.298,269.736 L379.127,271.159 L377.931,272.573 L376.71,273.976 L375.466,275.368 L374.197,276.749 L372.904,278.119 L371.587,279.479 L370.246,280.828 L368.883,282.165 L367.495,283.491 L366.084,284.805 L364.651,286.107 L363.195,287.398 L361.717,288.676 L360.216,289.942 L358.693,291.196 L357.149,292.438 L355.582,293.667 L353.994,294.883 L352.384,296.087 L350.754,297.277 L349.102,298.454 L347.43,299.618 L345.737,300.768 L344.024,301.905 L342.29,303.029 L340.537,304.137 L338.763,305.233 L336.971,306.314 L335.159,307.381 L333.327,308.434 L331.477,309.471 L329.608,310.494 L327.72,311.502 L325.814,312.495 L323.89,313.473 L321.948,314.436 L319.987,315.383 L318.009,316.315 L316.015,317.231 L314.002,318.131 L311.973,319.015 L309.927,319.883 L307.864,320.735 L305.785,321.57 L303.69,322.389 L301.578,323.191 L299.451,323.976 L297.308,324.745 L295.15,325.496 L292.977,326.231 L290.789,326.947 L288.585,327.645 L286.367,328.328 L284.135,328.991 L281.889,329.637 L279.628,330.264 L277.354,330.874 L275.066,331.465 L272.764,332.037 L270.45,332.591 L268.123,333.127 L265.782,333.643 L263.429,334.14 L261.064,334.618 L258.686,335.078 L256.297,335.517 L253.895,335.937 L251.482,336.337 L249.057,336.717 L246.622,337.078 L244.175,337.418 L241.718,337.738 L239.249,338.037 L236.771,338.317 L234.282,338.575 L231.783,338.812 L229.275,339.029 L226.756,339.225 L224.228,339.399 L221.692,339.552 L219.145,339.683 L216.591,339.794 L214.027,339.881 L211.455,339.948 L208.875,339.992 L206.287,340.015 L204.995,340.017 L205.005,340.017 L203.698,340.014 L201.104,339.992 L198.525,339.948 L195.952,339.881 L193.389,339.793 L190.834,339.683 L188.288,339.551 L185.751,339.397 L183.223,339.223 L180.705,339.027 L178.196,338.81 L175.697,338.572 L173.208,338.314 L170.73,338.035 L168.262,337.735 L165.805,337.415 L163.358,337.075 L160.922,336.714 L158.497,336.334 L156.084,335.934 L153.683,335.514 L151.293,335.074 L148.916,334.614 L146.55,334.136 L144.197,333.638 L141.857,333.122 L139.529,332.587 L137.215,332.032 L134.913,331.46 L132.625,330.868 L130.351,330.259 L128.091,329.63 L125.844,328.985 L123.612,328.321 L121.394,327.639 L119.19,326.94 L117.003,326.223 L114.829,325.489 L112.67,324.737 L110.528,323.969 L108.401,323.184 L106.289,322.381 L104.194,321.562 L102.114,320.726 L100.052,319.874 L98.005,319.006 L95.976,318.122 L93.964,317.221 L91.969,316.305 L89.991,315.373 L88.031,314.426 L86.088,313.462 L84.164,312.484 L82.258,311.491 L80.37,310.482 L78.501,309.459 L76.651,308.421 L74.819,307.368 L73.007,306.301 L71.214,305.22 L69.442,304.124 L67.688,303.015 L65.954,301.891 L64.242,300.754 L62.549,299.603 L60.876,298.439 L59.225,297.261 L57.594,296.07 L55.984,294.867 L54.396,293.65 L52.83,292.421 L51.285,291.179 L49.762,289.924 L48.261,288.657 L46.782,287.379 L45.326,286.088 L43.893,284.785 L42.483,283.47 L41.096,282.144 L39.732,280.806 L38.392,279.457 L37.075,278.097 L35.781,276.726 L34.512,275.344 L33.268,273.951 L32.047,272.548 L30.852,271.134 L29.681,269.71 L28.535,268.276 L27.414,266.832 L26.318,265.378 L25.248,263.914 L24.205,262.441 L23.186,260.958 L22.193,259.466 L21.228,257.964 L20.288,256.453 L19.375,254.934 L18.489,253.406 L17.63,251.869 L16.798,250.324 L15.993,248.771 L15.216,247.209 L14.466,245.639 L13.744,244.061 L13.051,242.476 L12.385,240.882 L11.748,239.281 L11.139,237.673 L10.56,236.056 L10.009,234.433 L9.487,232.803 L8.995,231.166 L8.531,229.522 L8.098,227.871 L7.695,226.213 L7.321,224.549 L6.978,222.879 L6.664,221.202 L6.381,219.519 L6.13,217.83 L5.908,216.135 L5.718,214.434 L5.56,212.727 L5.432,211.015 L5.337,209.297 L5.273,207.573 L5.241,205.844 L5.237,204.989 L5.237,205.011 L5.241,204.123 L5.274,202.382 L5.338,200.659 L5.436,198.941 L5.563,197.229 L5.723,195.522 L5.914,193.821 L6.136,192.127 L6.389,190.438 L6.672,188.755 L6.985,187.079 L7.33,185.409 L7.704,183.745 L8.108,182.088 L8.543,180.438 L9.007,178.794 L9.499,177.157 L10.022,175.527 L10.573,173.905 L11.154,172.289 L11.762,170.682 L12.4,169.081 L13.066,167.488 L13.761,165.903 L14.482,164.326 L15.233,162.756 L16.01,161.195 L16.816,159.642 L17.648,158.098 L18.508,156.561 L19.394,155.034 L20.307,153.515 L21.247,152.005 L22.213,150.504 L23.206,149.013 L24.224,147.531 L25.269,146.058 L26.339,144.594 L27.435,143.141 L28.556,141.697 L29.702,140.263 L30.872,138.841 L32.069,137.427 L33.289,136.024 L34.534,134.632 L35.803,133.25 L37.096,131.88 L38.413,130.521 L39.754,129.172 L41.117,127.835 L42.505,126.509 L43.915,125.195 L45.349,123.893 L46.805,122.602 L48.283,121.324 L49.784,120.057 L51.307,118.804 L52.851,117.562 L54.418,116.333 L56.006,115.117 L57.615,113.913 L59.246,112.723 L60.898,111.546 L62.57,110.382 L64.263,109.232 L65.976,108.095 L67.709,106.971 L69.463,105.862 L71.236,104.766 L73.029,103.686 L74.841,102.619 L76.673,101.566 L78.523,100.529 L80.392,99.506 L82.279,98.498 L84.185,97.505 L86.11,96.526 L88.052,95.564 L90.012,94.616 L91.99,93.685 L93.985,92.769 L95.997,91.869 L98.027,90.984 L100.073,90.117 L102.136,89.265 L104.215,88.429 L106.31,87.611 L108.421,86.808 L110.549,86.024 L112.691,85.255 L114.849,84.504 L117.023,83.77 L119.211,83.053 L121.415,82.354 L123.633,81.672 L125.865,81.009 L128.111,80.363 L130.372,79.735 L132.646,79.126 L134.934,78.535 L137.235,77.963 L139.55,77.408 L141.877,76.873 L144.218,76.357 L146.571,75.859 L148.936,75.382 L151.314,74.922 L153.703,74.483 L156.105,74.063 L158.518,73.663 L160.942,73.283 L163.378,72.922 L165.824,72.582 L168.282,72.262 L170.751,71.963 L173.229,71.683 L175.718,71.425 L178.217,71.187 L180.725,70.971 L183.244,70.775 L185.771,70.601 L188.308,70.448 L190.855,70.317 L193.409,70.206 L195.973,70.118 L198.544,70.052 L201.125,70.008 L203.713,69.985 L205.005,69.983 L204.995,69.983 L206.302,69.986 L208.896,70.008 L211.475,70.052 L214.048,70.119 L216.611,70.207 L219.166,70.317 L221.712,70.449 L224.249,70.602 L226.776,70.777 L229.295,70.973 L231.804,71.19 L234.303,71.427 L236.791,71.686 L239.27,71.965 L241.738,72.264 L244.195,72.585 L246.642,72.925 L249.078,73.286 L251.503,73.666 L253.916,74.066 L256.317,74.486 L258.707,74.926 L261.084,75.386 L263.45,75.864 L265.803,76.362 L268.143,76.878 L270.471,77.413 L272.785,77.967 L275.087,78.54 L277.375,79.131 L279.649,79.741 L281.909,80.369 L284.156,81.015 L286.388,81.679 L288.606,82.361 L290.809,83.059 L292.997,83.776 L295.171,84.511 L297.329,85.262 L299.472,86.031 L301.599,86.816 L303.711,87.618 L305.806,88.438 L307.886,89.273 L309.948,90.125 L311.994,90.994 L314.024,91.878 L316.036,92.778 L318.031,93.695 L320.009,94.627 L321.969,95.574 L323.912,96.538 L325.836,97.516 L327.742,98.509 L329.63,99.517 L331.499,100.541 L333.349,101.579 L335.18,102.631 L336.992,103.699 L338.786,104.78 L340.558,105.876 L342.312,106.985 L344.046,108.109 L345.758,109.246 L347.451,110.397 L349.124,111.561 L350.775,112.739 L352.406,113.93 L354.016,115.133 L355.604,116.35 L357.17,117.579 L358.715,118.821 L360.238,120.076 L361.739,121.343 L363.217,122.621 L364.673,123.912 L366.106,125.215 L367.517,126.53 L368.904,127.856 L370.268,129.194 L371.608,130.543 L372.925,131.903 L374.219,133.274 L375.487,134.656 L376.732,136.049 L377.952,137.452 L379.148,138.866 L380.319,140.289 L381.465,141.723 L382.586,143.168 L383.682,144.622 L384.751,146.086 L385.795,147.559 L386.814,149.042 L387.806,150.534 L388.772,152.036 L389.712,153.546 L390.624,155.066 L391.511,156.593 L392.37,158.131 L393.202,159.676 L394.007,161.229 L394.784,162.791 L395.534,164.361 L396.256,165.939 L396.949,167.524 L397.614,169.118 L398.252,170.719 L398.86,172.327 L399.44,173.944 L399.991,175.567 L400.513,177.197 L401.005,178.834 L401.468,180.478 L401.902,182.129 L402.305,183.786 L402.679,185.451 L403.022,187.121 L403.336,188.798 L403.618,190.48 L403.87,192.17 L404.091,193.865 L404.282,195.566 L404.44,197.272 L404.567,198.985 L404.663,200.703 L404.727,202.427 L404.759,204.156 L404.762,205.011 L404.762,205.011 C404.769,206.319 405.834,207.375 407.142,207.369 C408.451,207.362 409.506,206.297 409.5,204.989 C409.5,204.989 409.5,204.989 409.5,204.989 L409.495,204.067 L409.461,202.25 L409.393,200.439 L409.291,198.633 L409.157,196.833 L408.99,195.039 L408.789,193.251 L408.556,191.47 L408.29,189.695 L407.993,187.927 L407.663,186.165 L407.301,184.412 L406.908,182.664 L406.484,180.925 L406.028,179.193 L405.542,177.468 L405.025,175.752 L404.477,174.043 L403.899,172.342 L403.291,170.65 L402.653,168.967 L401.986,167.291 L401.289,165.625 L400.564,163.967 L399.809,162.319 L399.025,160.679 L398.213,159.05 L397.373,157.429 L396.505,155.818 L395.609,154.216 L394.685,152.625 L393.734,151.043 L392.755,149.471 L391.75,147.91 L390.718,146.36 L389.66,144.819 L388.575,143.29 L387.464,141.771 L386.328,140.263 L385.166,138.766 L383.978,137.28 L382.765,135.805 L381.527,134.342 L380.264,132.891 L378.977,131.451 L377.664,130.023 L376.328,128.607 L374.969,127.203 L373.585,125.811 L372.177,124.432 L370.747,123.064 L369.292,121.709 L367.816,120.368 L366.316,119.038 L364.794,117.722 L363.25,116.419 L361.683,115.129 L360.095,113.852 L358.485,112.589 L356.853,111.339 L355.2,110.103 L353.525,108.881 L351.83,107.673 L350.114,106.478 L348.378,105.299 L346.621,104.133 L344.845,102.982 L343.048,101.845 L341.232,100.723 L339.396,99.616 L337.541,98.524 L335.667,97.447 L333.773,96.385 L331.862,95.339 L329.931,94.308 L327.982,93.292 L326.015,92.293 L324.031,91.309 L322.028,90.341 L320.008,89.389 L317.971,88.454 L315.916,87.535 L313.844,86.632 L311.756,85.746 L309.652,84.878 L307.53,84.025 L305.394,83.191 L303.24,82.373 L301.072,81.571 L298.887,80.788 L296.687,80.023 L294.472,79.274 L292.242,78.544 L289.998,77.832 L287.739,77.138 L285.465,76.462 L283.177,75.804 L280.875,75.165 L278.56,74.545 L276.231,73.943 L273.888,73.36 L271.533,72.797 L269.164,72.252 L266.783,71.726 L264.389,71.221 L261.982,70.733 L259.564,70.267 L257.133,69.82 L254.691,69.393 L252.237,68.986 L249.771,68.599 L247.295,68.233 L244.807,67.887 L242.309,67.562 L239.8,67.257 L237.281,66.973 L234.751,66.711 L232.211,66.47 L229.661,66.249 L227.103,66.05 L224.534,65.874 L221.956,65.718 L219.369,65.585 L216.774,65.472 L214.17,65.383 L211.557,65.315 L208.936,65.27 L206.312,65.248 L205.005,65.245 L205.005,65.245 C205.001,65.245 204.998,65.245 204.995,65.245 L204.995,65.245 L203.673,65.248 L201.043,65.27 L198.423,65.316 L195.81,65.383 L193.205,65.473 L190.61,65.585 L188.023,65.719 L185.445,65.874 L182.877,66.052 L180.318,66.251 L177.768,66.471 L175.228,66.713 L172.699,66.976 L170.18,67.259 L167.67,67.564 L165.172,67.89 L162.684,68.236 L160.208,68.602 L157.742,68.989 L155.288,69.397 L152.846,69.824 L150.416,70.271 L147.997,70.738 L145.591,71.225 L143.197,71.731 L140.815,72.257 L138.447,72.801 L136.091,73.365 L133.749,73.949 L131.419,74.55 L129.104,75.171 L126.802,75.81 L124.515,76.468 L122.241,77.144 L119.982,77.839 L117.737,78.551 L115.507,79.281 L113.292,80.03 L111.092,80.796 L108.908,81.579 L106.739,82.38 L104.586,83.198 L102.448,84.034 L100.327,84.886 L98.222,85.755 L96.134,86.642 L94.063,87.544 L92.009,88.463 L89.971,89.399 L87.951,90.351 L85.948,91.319 L83.964,92.303 L81.997,93.303 L80.047,94.319 L78.117,95.35 L76.205,96.397 L74.312,97.459 L72.437,98.537 L70.583,99.629 L68.746,100.736 L66.93,101.858 L65.133,102.995 L63.356,104.147 L61.6,105.313 L59.863,106.493 L58.148,107.688 L56.452,108.897 L54.778,110.119 L53.125,111.355 L51.494,112.606 L49.883,113.869 L48.294,115.147 L46.728,116.437 L45.184,117.741 L43.662,119.057 L42.162,120.387 L40.685,121.73 L39.232,123.085 L37.801,124.452 L36.393,125.832 L35.01,127.225 L33.649,128.63 L32.313,130.046 L31.002,131.475 L29.715,132.915 L28.452,134.368 L27.214,135.831 L26.001,137.306 L24.813,138.792 L23.651,140.29 L22.515,141.798 L21.404,143.318 L20.32,144.848 L19.261,146.389 L18.23,147.94 L17.225,149.502 L16.247,151.074 L15.296,152.657 L14.373,154.248 L13.477,155.85 L12.609,157.462 L11.77,159.084 L10.958,160.714 L10.175,162.354 L9.421,164.004 L8.695,165.662 L7.999,167.328 L7.332,169.004 L6.695,170.689 L6.088,172.381 L5.511,174.083 L4.963,175.791 L4.447,177.508 L3.961,179.234 L3.506,180.966 L3.082,182.706 L2.689,184.454 L2.329,186.208 L2,187.97 L1.702,189.737 L1.438,191.513 L1.206,193.294 L1.006,195.082 L0.839,196.877 L0.705,198.677 L0.605,200.483 L0.538,202.294 L0.504,204.101 L0.5,204.989 L0.5,204.989 C0.5,204.996 0.5,205.004 0.5,205.011 L0.5,205.011 L0.505,205.932 L0.539,207.75 L0.606,209.561 L0.708,211.367 L0.843,213.167 L1.01,214.961 L1.211,216.749 L1.444,218.53 L1.71,220.305 L2.007,222.073 L2.337,223.834 L2.699,225.588 L3.092,227.335 L3.516,229.075 L3.972,230.807 L4.458,232.532 L4.975,234.248 L5.523,235.957 L6.101,237.658 L6.709,239.35 L7.347,241.033 L8.014,242.708 L8.711,244.374 L9.436,246.033 L10.191,247.681 L10.974,249.32 L11.787,250.95 L12.627,252.571 L13.495,254.182 L14.391,255.784 L15.315,257.375 L16.266,258.956 L17.244,260.528 L18.25,262.089 L19.282,263.64 L20.34,265.181 L21.424,266.71 L22.535,268.229 L23.672,269.737 L24.834,271.233 L26.022,272.719 L27.235,274.194 L28.473,275.657 L29.736,277.109 L31.023,278.549 L32.336,279.976 L33.672,281.393 L35.031,282.797 L36.415,284.189 L37.822,285.568 L39.253,286.936 L40.707,288.291 L42.184,289.632 L43.683,290.962 L45.206,292.278 L46.75,293.581 L48.317,294.871 L49.905,296.148 L51.515,297.411 L53.147,298.661 L54.8,299.897 L56.474,301.119 L58.17,302.327 L59.885,303.522 L61.622,304.701 L63.379,305.867 L65.155,307.018 L66.951,308.155 L68.768,309.277 L70.604,310.384 L72.459,311.476 L74.333,312.553 L76.226,313.615 L78.138,314.661 L80.069,315.692 L82.018,316.707 L83.985,317.707 L85.969,318.691 L87.972,319.659 L89.992,320.61 L92.029,321.546 L94.084,322.465 L96.155,323.368 L98.244,324.253 L100.348,325.122 L102.47,325.975 L104.606,326.809 L106.759,327.627 L108.928,328.429 L111.113,329.212 L113.313,329.977 L115.528,330.726 L117.757,331.456 L120.002,332.168 L122.261,332.862 L124.535,333.538 L126.822,334.196 L129.125,334.835 L131.44,335.455 L133.769,336.057 L136.112,336.639 L138.467,337.203 L140.836,337.748 L143.217,338.274 L145.611,338.779 L148.018,339.266 L150.436,339.733 L152.867,340.18 L155.309,340.607 L157.763,341.014 L160.229,341.401 L162.705,341.767 L165.193,342.113 L167.691,342.438 L170.2,342.743 L172.719,343.026 L175.249,343.289 L177.789,343.53 L180.338,343.75 L182.897,343.949 L185.466,344.126 L188.044,344.282 L190.63,344.415 L193.226,344.527 L195.83,344.617 L198.442,344.684 L201.064,344.729 L203.688,344.752 L204.995,344.755 L204.995,344.755 C204.998,344.755 205.001,344.755 205.005,344.755 L205.005,344.755 L206.327,344.752 L208.956,344.729 L211.577,344.684 L214.19,344.617 L216.795,344.527 L219.39,344.414 L221.977,344.281 L224.555,344.125 L227.123,343.948 L229.682,343.749 L232.232,343.529 L234.772,343.287 L237.301,343.024 L239.82,342.74 L242.329,342.436 L244.828,342.11 L247.316,341.764 L249.792,341.397 L252.258,341.011 L254.712,340.603 L257.154,340.176 L259.584,339.729 L262.003,339.262 L264.409,338.775 L266.803,338.269 L269.185,337.743 L271.553,337.199 L273.909,336.635 L276.251,336.051 L278.58,335.45 L280.896,334.829 L283.198,334.189 L285.485,333.532 L287.759,332.856 L290.018,332.161 L292.263,331.449 L294.493,330.718 L296.708,329.97 L298.908,329.204 L301.092,328.421 L303.261,327.62 L305.414,326.801 L307.552,325.966 L309.672,325.114 L311.777,324.245 L313.866,323.358 L315.937,322.456 L317.991,321.536 L320.029,320.601 L322.049,319.649 L324.052,318.681 L326.036,317.696 L328.003,316.696 L329.953,315.681 L331.883,314.65 L333.795,313.603 L335.688,312.541 L337.562,311.463 L339.417,310.371 L341.254,309.263 L343.07,308.141 L344.867,307.004 L346.643,305.852 L348.4,304.687 L350.137,303.507 L351.852,302.312 L353.547,301.103 L355.221,299.881 L356.875,298.644 L358.506,297.394 L360.117,296.13 L361.705,294.853 L363.272,293.563 L364.816,292.259 L366.338,290.943 L367.838,289.613 L369.314,288.27 L370.768,286.915 L372.199,285.548 L373.607,284.167 L374.99,282.775 L376.35,281.37 L377.686,279.953 L378.998,278.525 L380.285,277.085 L381.548,275.632 L382.786,274.169 L383.999,272.694 L385.187,271.207 L386.349,269.71 L387.485,268.201 L388.596,266.682 L389.68,265.151 L390.739,263.611 L391.77,262.059 L392.775,260.498 L393.753,258.926 L394.704,257.343 L395.627,255.751 L396.522,254.149 L397.391,252.538 L398.23,250.916 L399.042,249.286 L399.825,247.646 L400.579,245.996 L401.305,244.338 L402.001,242.671 L402.668,240.996 L403.305,239.311 L403.912,237.619 L404.489,235.917 L405.036,234.209 L405.553,232.491 L406.039,230.766 L406.494,229.034 L406.918,227.294 L407.31,225.546 L407.671,223.792 L408,222.03 L408.297,220.262 L408.562,218.487 L408.794,216.705 L408.994,214.918 L409.161,213.123 L409.295,211.323 L409.395,209.517 L409.462,207.706 L409.496,205.899 L409.5,205.011 C409.5,205.011 409.5,205.011 409.5,205.011 C409.506,203.703 408.451,202.637 407.142,202.631 C405.834,202.625 404.769,203.681 404.762,204.989 L404.762,204.989" id="Shape"></path>
                <path d="M404.762,204.971 L404.759,205.313 L404.728,205.91 L404.67,206.477 L404.586,207.043 L404.473,207.609 L404.333,208.176 L404.166,208.744 L403.97,209.314 L403.746,209.885 L403.494,210.458 L403.212,211.033 L402.901,211.611 L402.561,212.19 L402.191,212.772 L401.791,213.354 L401.362,213.939 L400.902,214.525 L400.413,215.112 L399.893,215.699 L399.343,216.288 L398.763,216.877 L398.154,217.466 L397.514,218.054 L396.845,218.641 L396.146,219.229 L395.418,219.815 L394.661,220.4 L393.875,220.983 L393.06,221.565 L392.217,222.146 L391.345,222.724 L390.445,223.3 L389.517,223.873 L388.562,224.445 L387.58,225.013 L386.57,225.579 L385.533,226.142 L384.469,226.702 L382.818,227.539 L380.527,228.642 L378.14,229.728 L375.652,230.799 L373.066,231.855 L370.38,232.894 L367.6,233.917 L364.726,234.922 L361.76,235.91 L358.703,236.88 L355.557,237.83 L352.324,238.761 L349.006,239.671 L345.604,240.562 L342.12,241.431 L338.556,242.278 L334.913,243.104 L331.193,243.907 L327.398,244.688 L323.529,245.445 L319.588,246.179 L315.576,246.888 L311.495,247.572 L307.349,248.232 L303.135,248.866 L298.858,249.474 L294.519,250.055 L290.119,250.61 L285.661,251.137 L281.143,251.637 L276.572,252.109 L271.945,252.552 L267.266,252.967 L262.535,253.352 L257.756,253.707 L252.929,254.032 L248.055,254.326 L243.137,254.589 L238.176,254.821 L233.174,255.021 L228.131,255.189 L223.051,255.324 L217.934,255.426 L212.782,255.494 L207.597,255.529 L204.996,255.533 L205.004,255.533 L202.391,255.529 L197.202,255.494 L192.05,255.425 L186.933,255.323 L181.853,255.188 L176.81,255.021 L171.808,254.821 L166.847,254.588 L161.929,254.325 L157.055,254.031 L152.227,253.706 L147.448,253.35 L142.717,252.965 L138.038,252.551 L133.411,252.108 L128.838,251.635 L124.322,251.136 L119.862,250.607 L115.462,250.053 L111.123,249.471 L106.845,248.862 L102.632,248.228 L98.484,247.569 L94.403,246.884 L90.391,246.175 L86.45,245.441 L82.58,244.683 L78.784,243.902 L75.063,243.099 L71.42,242.273 L67.855,241.425 L64.369,240.554 L60.967,239.664 L57.648,238.753 L54.414,237.821 L51.266,236.87 L48.208,235.9 L45.24,234.911 L42.364,233.905 L39.582,232.88 L36.895,231.839 L34.306,230.781 L31.815,229.708 L29.425,228.62 L27.139,227.518 L25.499,226.686 L24.441,226.127 L23.402,225.564 L22.392,224.997 L21.408,224.427 L20.452,223.855 L19.523,223.28 L18.623,222.703 L17.75,222.123 L16.906,221.542 L16.09,220.958 L15.303,220.372 L14.544,219.785 L13.815,219.197 L13.116,218.607 L12.445,218.018 L11.805,217.426 L11.194,216.835 L10.614,216.243 L10.063,215.651 L9.543,215.06 L9.053,214.469 L8.592,213.879 L8.163,213.29 L7.764,212.703 L7.394,212.117 L7.056,211.534 L6.746,210.952 L6.467,210.371 L6.216,209.793 L5.995,209.218 L5.803,208.645 L5.639,208.073 L5.503,207.503 L5.396,206.934 L5.316,206.365 L5.263,205.797 L5.239,205.227 L5.237,204.971 L5.237,205.028 L5.241,204.686 L5.272,204.09 L5.33,203.523 L5.414,202.956 L5.526,202.39 L5.667,201.823 L5.834,201.255 L6.03,200.686 L6.254,200.115 L6.506,199.542 L6.788,198.967 L7.098,198.389 L7.439,197.81 L7.809,197.228 L8.209,196.645 L8.638,196.061 L9.098,195.475 L9.587,194.888 L10.107,194.3 L10.657,193.711 L11.237,193.123 L11.846,192.534 L12.486,191.946 L13.155,191.358 L13.854,190.771 L14.582,190.184 L15.339,189.6 L16.125,189.017 L16.94,188.435 L17.783,187.854 L18.655,187.276 L19.555,186.7 L20.482,186.127 L21.438,185.555 L22.42,184.987 L23.43,184.42 L24.467,183.857 L25.531,183.298 L27.182,182.461 L29.473,181.358 L31.859,180.272 L34.347,179.201 L36.934,178.145 L39.619,177.106 L42.4,176.083 L45.274,175.077 L48.24,174.09 L51.297,173.12 L54.443,172.17 L57.676,171.239 L60.994,170.329 L64.396,169.438 L67.88,168.569 L71.444,167.722 L75.087,166.896 L78.807,166.093 L82.602,165.312 L86.471,164.555 L90.412,163.821 L94.424,163.112 L98.504,162.428 L102.651,161.768 L106.864,161.134 L111.142,160.526 L115.481,159.944 L119.881,159.39 L124.339,158.863 L128.856,158.363 L133.428,157.891 L138.055,157.448 L142.734,157.033 L147.464,156.648 L152.244,156.293 L157.071,155.968 L161.944,155.674 L166.863,155.411 L171.824,155.178 L176.826,154.979 L181.869,154.811 L186.949,154.676 L192.066,154.574 L197.218,154.506 L202.403,154.471 L205.004,154.467 L204.996,154.467 L207.609,154.471 L212.798,154.506 L217.95,154.574 L223.067,154.676 L228.147,154.811 L233.189,154.979 L238.192,155.179 L243.153,155.411 L248.071,155.674 L252.945,155.969 L257.773,156.294 L262.552,156.649 L267.282,157.035 L271.962,157.449 L276.588,157.892 L281.162,158.364 L285.678,158.864 L290.137,159.392 L294.538,159.947 L298.877,160.529 L303.154,161.137 L307.368,161.771 L311.516,162.431 L315.597,163.116 L319.608,163.825 L323.55,164.559 L327.42,165.317 L331.216,166.098 L334.936,166.901 L338.58,167.727 L342.145,168.575 L345.63,169.445 L349.033,170.336 L352.352,171.247 L355.586,172.179 L358.733,173.129 L361.792,174.1 L364.76,175.088 L367.636,176.095 L370.418,177.12 L373.105,178.161 L375.694,179.219 L378.185,180.292 L380.575,181.38 L382.861,182.482 L384.501,183.314 L385.559,183.872 L386.598,184.436 L387.608,185.003 L388.592,185.572 L389.548,186.145 L390.477,186.72 L391.377,187.297 L392.25,187.876 L393.094,188.458 L393.91,189.042 L394.697,189.628 L395.456,190.214 L396.185,190.803 L396.884,191.392 L397.554,191.982 L398.195,192.574 L398.806,193.165 L399.386,193.757 L399.937,194.349 L400.457,194.94 L400.947,195.531 L401.408,196.12 L401.837,196.709 L402.236,197.297 L402.605,197.883 L402.944,198.466 L403.254,199.048 L403.533,199.628 L403.783,200.206 L404.004,200.782 L404.197,201.355 L404.361,201.927 L404.496,202.497 L404.604,203.066 L404.684,203.635 L404.736,204.203 L404.761,204.773 L404.762,205.028 L404.762,205.028 C404.778,206.337 405.852,207.384 407.16,207.369 C408.468,207.353 409.516,206.279 409.5,204.971 L409.493,204.544 L409.452,203.747 L409.372,202.954 L409.255,202.165 L409.101,201.382 L408.91,200.604 L408.684,199.833 L408.421,199.068 L408.125,198.31 L407.794,197.559 L407.431,196.814 L407.036,196.078 L406.608,195.348 L406.149,194.626 L405.659,193.911 L405.139,193.203 L404.59,192.501 L404.01,191.806 L403.402,191.118 L402.765,190.435 L402.099,189.76 L401.405,189.09 L400.684,188.426 L399.934,187.767 L399.158,187.114 L398.353,186.467 L397.523,185.825 L396.665,185.188 L395.78,184.556 L394.87,183.929 L393.933,183.308 L392.969,182.691 L391.98,182.079 L390.965,181.472 L389.925,180.87 L388.858,180.273 L387.767,179.681 L386.644,179.089 L384.917,178.214 L382.537,177.068 L380.059,175.94 L377.485,174.833 L374.816,173.743 L372.054,172.674 L369.201,171.624 L366.257,170.594 L363.224,169.584 L360.103,168.595 L356.898,167.626 L353.607,166.679 L350.233,165.752 L346.777,164.848 L343.241,163.966 L339.627,163.107 L335.937,162.27 L332.171,161.457 L328.33,160.667 L324.417,159.902 L320.433,159.16 L316.381,158.443 L312.26,157.753 L308.073,157.087 L303.822,156.447 L299.507,155.834 L295.13,155.247 L290.694,154.687 L286.199,154.156 L281.648,153.652 L277.041,153.177 L272.38,152.73 L267.667,152.312 L262.903,151.925 L258.091,151.567 L253.231,151.24 L248.325,150.944 L243.374,150.679 L238.382,150.446 L233.347,150.244 L228.273,150.075 L223.161,149.94 L218.013,149.837 L212.829,149.768 L207.617,149.734 L205.004,149.73 L205.004,149.73 C205.001,149.73 204.998,149.73 204.996,149.73 L204.996,149.73 L202.371,149.734 L197.155,149.768 L191.972,149.838 L186.823,149.94 L181.711,150.076 L176.637,150.244 L171.602,150.446 L166.609,150.679 L161.659,150.945 L156.753,151.241 L151.892,151.569 L147.08,151.926 L142.316,152.314 L137.603,152.732 L132.942,153.178 L128.335,153.654 L123.783,154.158 L119.288,154.69 L114.851,155.25 L110.474,155.836 L106.159,156.45 L101.907,157.089 L97.72,157.756 L93.599,158.447 L89.545,159.164 L85.561,159.906 L81.648,160.672 L77.806,161.462 L74.039,162.275 L70.348,163.113 L66.733,163.973 L63.197,164.856 L59.74,165.76 L56.365,166.687 L53.073,167.635 L49.865,168.604 L46.744,169.595 L43.709,170.605 L40.764,171.636 L37.908,172.688 L35.144,173.759 L32.473,174.85 L29.897,175.96 L27.416,177.09 L25.039,178.236 L23.323,179.107 L22.206,179.695 L21.114,180.289 L20.047,180.886 L19.005,181.49 L17.99,182.097 L17,182.711 L16.035,183.328 L15.097,183.952 L14.185,184.58 L13.3,185.214 L12.441,185.852 L11.608,186.496 L10.804,187.146 L10.026,187.801 L9.275,188.462 L8.553,189.129 L7.858,189.802 L7.192,190.481 L6.554,191.167 L5.945,191.858 L5.365,192.557 L4.815,193.262 L4.295,193.975 L3.806,194.694 L3.348,195.422 L2.921,196.155 L2.527,196.896 L2.165,197.645 L1.837,198.401 L1.544,199.163 L1.285,199.933 L1.062,200.709 L0.876,201.489 L0.726,202.276 L0.614,203.066 L0.54,203.861 L0.504,204.629 L0.5,204.971 L0.5,204.971 C0.5,204.99 0.5,205.009 0.5,205.028 L0.5,205.028 L0.507,205.456 L0.548,206.253 L0.628,207.046 L0.745,207.834 L0.899,208.618 L1.09,209.395 L1.316,210.167 L1.578,210.932 L1.875,211.69 L2.205,212.441 L2.569,213.185 L2.964,213.922 L3.392,214.652 L3.851,215.373 L4.34,216.089 L4.861,216.797 L5.41,217.499 L5.99,218.194 L6.598,218.882 L7.235,219.564 L7.901,220.24 L8.595,220.91 L9.316,221.574 L10.066,222.232 L10.842,222.885 L11.646,223.533 L12.477,224.175 L13.334,224.812 L14.22,225.444 L15.13,226.071 L16.067,226.692 L17.03,227.309 L18.02,227.921 L19.035,228.528 L20.075,229.129 L21.142,229.727 L22.233,230.319 L23.356,230.911 L25.083,231.785 L27.463,232.932 L29.941,234.059 L32.515,235.167 L35.184,236.257 L37.946,237.326 L40.799,238.376 L43.743,239.406 L46.776,240.416 L49.897,241.405 L53.103,242.374 L56.393,243.321 L59.768,244.247 L63.223,245.151 L66.759,246.033 L70.373,246.893 L74.063,247.729 L77.829,248.543 L81.67,249.333 L85.583,250.098 L89.566,250.84 L93.619,251.556 L97.74,252.247 L101.927,252.913 L106.178,253.553 L110.493,254.166 L114.87,254.753 L119.306,255.312 L123.801,255.844 L128.352,256.348 L132.959,256.823 L137.62,257.27 L142.333,257.687 L147.096,258.075 L151.909,258.433 L156.769,258.76 L161.675,259.056 L166.626,259.321 L171.618,259.554 L176.653,259.755 L181.726,259.924 L186.839,260.06 L191.987,260.163 L197.17,260.232 L202.383,260.266 L204.996,260.27 L204.996,260.27 C204.998,260.27 205.001,260.27 205.004,260.27 L205.004,260.27 L207.628,260.265 L212.845,260.232 L218.028,260.162 L223.177,260.06 L228.289,259.924 L233.363,259.755 L238.397,259.554 L243.391,259.32 L248.341,259.055 L253.247,258.759 L258.108,258.431 L262.92,258.074 L267.684,257.686 L272.396,257.268 L277.058,256.821 L281.665,256.346 L286.217,255.842 L290.712,255.31 L295.149,254.75 L299.526,254.164 L303.841,253.55 L308.092,252.911 L312.28,252.244 L316.401,251.552 L320.455,250.836 L324.439,250.094 L328.352,249.328 L332.193,248.538 L335.96,247.725 L339.652,246.887 L343.267,246.027 L346.803,245.144 L350.26,244.239 L353.635,243.313 L356.927,242.365 L360.135,241.395 L363.256,240.405 L366.291,239.395 L369.236,238.363 L372.092,237.312 L374.856,236.241 L377.527,235.15 L380.103,234.04 L382.584,232.91 L384.961,231.764 L386.676,230.893 L387.794,230.305 L388.886,229.711 L389.953,229.114 L390.995,228.51 L392.01,227.902 L393,227.289 L393.965,226.671 L394.903,226.048 L395.815,225.42 L396.7,224.786 L397.559,224.148 L398.391,223.504 L399.196,222.854 L399.974,222.198 L400.725,221.538 L401.447,220.871 L402.142,220.198 L402.808,219.519 L403.445,218.833 L404.055,218.142 L404.635,217.443 L405.185,216.738 L405.704,216.025 L406.194,215.305 L406.652,214.578 L407.079,213.845 L407.473,213.103 L407.835,212.355 L408.162,211.599 L408.456,210.836 L408.715,210.067 L408.938,209.291 L409.124,208.51 L409.274,207.724 L409.386,206.934 L409.46,206.139 L409.496,205.371 L409.5,205.028 C409.516,203.721 408.468,202.647 407.16,202.631 C405.852,202.615 404.778,203.663 404.762,204.971 L404.762,204.971" id="Shape"></path>
            </g>
            <g id="pointer" transform="translate(344.000000, 115.000000)">
                <g>
                    <path d="M48.9322816,43.6924925 C53.4699951,36.4852853 54,32.2042042 54,26.4264264 C54,11.8318318 41.4444494,0 26.9237664,0 C12.2215749,0 0,11.8318318 0,26.4264264 C0,32.2042042 0.454981401,36.4852853 4.99269484,43.6924925 C7.01348989,46.9069069 26.9237664,67.8678679 26.9237664,100 C26.9237664,67.8678679 46.9090665,46.9069069 48.9322816,43.6924925 Z" id="Imported-Layers" stroke="#9C3621" fill="#F9785D" stroke-linecap="round" stroke-linejoin="round"></path>
                    <polygon id="" fill="#9C3621" points="18.5142857 11.3636364 43.2 26.8939394 18.5142857 42.4242424"></polygon>
                </g>
            </g>
            <g id="pointer" transform="translate(290.000000, 155.000000)">
                <g>
                    <path d="M48.9322816,43.6924925 C53.4699951,36.4852853 54,32.2042042 54,26.4264264 C54,11.8318318 41.4444494,0 26.9237664,0 C12.2215749,0 0,11.8318318 0,26.4264264 C0,32.2042042 0.454981401,36.4852853 4.99269484,43.6924925 C7.01348989,46.9069069 26.9237664,67.8678679 26.9237664,100 C26.9237664,67.8678679 46.9090665,46.9069069 48.9322816,43.6924925 Z" id="Imported-Layers" stroke="#9C3621" fill="#F9785D" stroke-linecap="round" stroke-linejoin="round"></path>
                    <polygon id="" fill="#9C3621" points="18.5142857 11.3636364 43.2 26.8939394 18.5142857 42.4242424"></polygon>
                </g>
            </g>
            <g id="pointer" transform="translate(205.000000, 92.000000)">
                <g>
                    <path d="M48.9322816,43.6924925 C53.4699951,36.4852853 54,32.2042042 54,26.4264264 C54,11.8318318 41.4444494,0 26.9237664,0 C12.2215749,0 0,11.8318318 0,26.4264264 C0,32.2042042 0.454981401,36.4852853 4.99269484,43.6924925 C7.01348989,46.9069069 26.9237664,67.8678679 26.9237664,100 C26.9237664,67.8678679 46.9090665,46.9069069 48.9322816,43.6924925 Z" id="Imported-Layers" stroke="#9C3621" fill="#F9785D" stroke-linecap="round" stroke-linejoin="round"></path>
                    <polygon id="" fill="#9C3621" points="18.5142857 11.3636364 43.2 26.8939394 18.5142857 42.4242424"></polygon>
                </g>
            </g>
            <g id="pointer" transform="translate(263.000000, 42.000000)">
                <g>
                    <path d="M48.9322816,43.6924925 C53.4699951,36.4852853 54,32.2042042 54,26.4264264 C54,11.8318318 41.4444494,0 26.9237664,0 C12.2215749,0 0,11.8318318 0,26.4264264 C0,32.2042042 0.454981401,36.4852853 4.99269484,43.6924925 C7.01348989,46.9069069 26.9237664,67.8678679 26.9237664,100 C26.9237664,67.8678679 46.9090665,46.9069069 48.9322816,43.6924925 Z" id="Imported-Layers" stroke="#9C3621" fill="#F9785D" stroke-linecap="round" stroke-linejoin="round"></path>
                    <polygon id="" fill="#9C3621" points="18.5142857 11.3636364 43.2 26.8939394 18.5142857 42.4242424"></polygon>
                </g>
            </g>
            <g id="pointer" transform="translate(236.000000, 265.000000)">
                <g>
                    <path d="M48.9322816,43.6924925 C53.4699951,36.4852853 54,32.2042042 54,26.4264264 C54,11.8318318 41.4444494,0 26.9237664,0 C12.2215749,0 0,11.8318318 0,26.4264264 C0,32.2042042 0.454981401,36.4852853 4.99269484,43.6924925 C7.01348989,46.9069069 26.9237664,67.8678679 26.9237664,100 C26.9237664,67.8678679 46.9090665,46.9069069 48.9322816,43.6924925 Z" id="Imported-Layers" stroke="#9C3621" fill="#F9785D" stroke-linecap="round" stroke-linejoin="round"></path>
                    <polygon id="" fill="#9C3621" points="18.5142857 11.3636364 43.2 26.8939394 18.5142857 42.4242424"></polygon>
                </g>
            </g>
            <g id="pointer" transform="translate(166.000000, 205.000000)">
                <g>
                    <path d="M48.9322816,43.6924925 C53.4699951,36.4852853 54,32.2042042 54,26.4264264 C54,11.8318318 41.4444494,0 26.9237664,0 C12.2215749,0 0,11.8318318 0,26.4264264 C0,32.2042042 0.454981401,36.4852853 4.99269484,43.6924925 C7.01348989,46.9069069 26.9237664,67.8678679 26.9237664,100 C26.9237664,67.8678679 46.9090665,46.9069069 48.9322816,43.6924925 Z" id="Imported-Layers" stroke="#9C3621" fill="#F9785D" stroke-linecap="round" stroke-linejoin="round"></path>
                    <polygon id="" fill="#9C3621" points="18.5142857 11.3636364 43.2 26.8939394 18.5142857 42.4242424"></polygon>
                </g>
            </g>
            <g id="pointer" transform="translate(112.000000, 92.000000)">
                <g>
                    <path d="M48.9322816,43.6924925 C53.4699951,36.4852853 54,32.2042042 54,26.4264264 C54,11.8318318 41.4444494,0 26.9237664,0 C12.2215749,0 0,11.8318318 0,26.4264264 C0,32.2042042 0.454981401,36.4852853 4.99269484,43.6924925 C7.01348989,46.9069069 26.9237664,67.8678679 26.9237664,100 C26.9237664,67.8678679 46.9090665,46.9069069 48.9322816,43.6924925 Z" id="Imported-Layers" stroke="#9C3621" fill="#F9785D" stroke-linecap="round" stroke-linejoin="round"></path>
                    <polygon id="" fill="#9C3621" points="18.5142857 11.3636364 43.2 26.8939394 18.5142857 42.4242424"></polygon>
                </g>
            </g>
            <g id="pointer" transform="translate(92.000000, 215.000000)">
                <g>
                    <path d="M48.9322816,43.6924925 C53.4699951,36.4852853 54,32.2042042 54,26.4264264 C54,11.8318318 41.4444494,0 26.9237664,0 C12.2215749,0 0,11.8318318 0,26.4264264 C0,32.2042042 0.454981401,36.4852853 4.99269484,43.6924925 C7.01348989,46.9069069 26.9237664,67.8678679 26.9237664,100 C26.9237664,67.8678679 46.9090665,46.9069069 48.9322816,43.6924925 Z" id="Imported-Layers" stroke="#9C3621" fill="#F9785D" stroke-linecap="round" stroke-linejoin="round"></path>
                    <polygon id="" fill="#9C3621" points="18.5142857 11.3636364 43.2 26.8939394 18.5142857 42.4242424"></polygon>
                </g>
            </g>
            <g id="pointer" transform="translate(27.000000, 177.000000)">
                <g>
                    <path d="M48.9322816,43.6924925 C53.4699951,36.4852853 54,32.2042042 54,26.4264264 C54,11.8318318 41.4444494,0 26.9237664,0 C12.2215749,0 0,11.8318318 0,26.4264264 C0,32.2042042 0.454981401,36.4852853 4.99269484,43.6924925 C7.01348989,46.9069069 26.9237664,67.8678679 26.9237664,100 C26.9237664,67.8678679 46.9090665,46.9069069 48.9322816,43.6924925 Z" id="Imported-Layers" stroke="#9C3621" fill="#F9785D" stroke-linecap="round" stroke-linejoin="round"></path>
                    <polygon id="" fill="#9C3621" points="18.5142857 11.3636364 43.2 26.8939394 18.5142857 42.4242424"></polygon>
                </g>
            </g>
            <g id="pointer" transform="translate(27.000000, 55.000000)">
                <g>
                    <path d="M48.9322816,43.6924925 C53.4699951,36.4852853 54,32.2042042 54,26.4264264 C54,11.8318318 41.4444494,0 26.9237664,0 C12.2215749,0 0,11.8318318 0,26.4264264 C0,32.2042042 0.454981401,36.4852853 4.99269484,43.6924925 C7.01348989,46.9069069 26.9237664,67.8678679 26.9237664,100 C26.9237664,67.8678679 46.9090665,46.9069069 48.9322816,43.6924925 Z" id="Imported-Layers" stroke="#9C3621" fill="#F9785D" stroke-linecap="round" stroke-linejoin="round"></path>
                    <polygon id="" fill="#9C3621" points="18.5142857 11.3636364 43.2 26.8939394 18.5142857 42.4242424"></polygon>
                </g>
            </g>
        </g>
    </g>
</svg>