<?xml version="1.0" encoding="UTF-8"?>
<!DOCTYPE svg PUBLIC "-//W3C//DTD SVG 1.1//EN" "http://www.w3.org/Graphics/SVG/1.1/DTD/svg11.dtd">
<svg version="1.1" xmlns="http://www.w3.org/2000/svg" xmlns:xlink="http://www.w3.org/1999/xlink" x="0" y="0" width="512" height="512" viewBox="0, 0, 512, 512">
  <g id="Background">
    <rect x="0" y="0" width="512" height="512" fill="#FFFFFF"/>
  </g>
  <g id="Background">
    <g>
      <path d="M256.007,455.762 L254.7,455.759 L252.114,455.725 L249.544,455.66 L246.981,455.563 L244.427,455.433 L241.882,455.271 L239.345,455.078 L236.818,454.854 L234.299,454.598 L231.791,454.31 L229.291,453.993 L226.801,453.644 L224.321,453.265 L221.852,452.856 L219.393,452.416 L216.944,451.947 L214.506,451.447 L212.079,450.919 L209.663,450.361 L207.258,449.774 L204.865,449.158 L202.483,448.513 L200.114,447.841 L197.756,447.139 L195.41,446.409 L193.078,445.652 L190.757,444.866 L188.45,444.053 L186.156,443.213 L183.875,442.346 L181.607,441.451 L179.353,440.53 L177.112,439.582 L174.886,438.608 L172.674,437.608 L170.476,436.581 L168.293,435.53 L166.125,434.452 L163.972,433.349 L161.834,432.22 L159.71,431.067 L157.604,429.889 L155.512,428.686 L153.437,427.459 L151.378,426.208 L149.335,424.932 L147.309,423.633 L145.299,422.31 L143.306,420.964 L141.331,419.594 L139.373,418.202 L137.433,416.786 L135.51,415.347 L133.605,413.887 L131.718,412.404 L129.849,410.899 L127.999,409.373 L126.168,407.823 L124.356,406.254 L122.563,404.663 L120.79,403.05 L119.035,401.417 L117.301,399.763 L115.587,398.088 L113.891,396.394 L112.217,394.679 L110.564,392.944 L108.93,391.189 L107.319,389.415 L105.727,387.622 L104.157,385.81 L102.609,383.978 L101.083,382.128 L99.578,380.259 L98.096,378.373 L96.635,376.468 L95.197,374.544 L93.782,372.604 L92.39,370.645 L91.021,368.67 L89.674,366.677 L88.352,364.668 L87.052,362.641 L85.777,360.598 L84.526,358.538 L83.299,356.463 L82.097,354.372 L80.919,352.264 L79.766,350.141 L78.638,348.003 L77.535,345.849 L76.458,343.681 L75.406,341.497 L74.38,339.299 L73.38,337.088 L72.406,334.861 L71.459,332.62 L70.538,330.366 L69.644,328.098 L68.777,325.817 L67.936,323.522 L67.124,321.215 L66.339,318.894 L65.582,316.561 L64.852,314.216 L64.151,311.858 L63.479,309.488 L62.834,307.107 L62.218,304.713 L61.632,302.309 L61.074,299.892 L60.546,297.464 L60.047,295.026 L59.578,292.578 L59.139,290.118 L58.73,287.648 L58.351,285.169 L58.003,282.679 L57.685,280.18 L57.399,277.671 L57.143,275.152 L56.919,272.624 L56.726,270.088 L56.565,267.543 L56.436,264.988 L56.338,262.426 L56.274,259.855 L56.241,257.277 L56.237,255.993 L56.237,256.007 L56.241,254.7 L56.274,252.114 L56.34,249.544 L56.437,246.981 L56.567,244.427 L56.728,241.882 L56.922,239.345 L57.146,236.818 L57.402,234.299 L57.689,231.791 L58.007,229.291 L58.356,226.801 L58.735,224.321 L59.144,221.852 L59.584,219.393 L60.053,216.944 L60.552,214.506 L61.081,212.079 L61.639,209.663 L62.225,207.258 L62.841,204.865 L63.486,202.483 L64.159,200.114 L64.861,197.756 L65.591,195.41 L66.348,193.078 L67.133,190.757 L67.947,188.45 L68.787,186.156 L69.654,183.875 L70.548,181.607 L71.47,179.353 L72.417,177.112 L73.392,174.886 L74.392,172.674 L75.419,170.476 L76.47,168.293 L77.548,166.125 L78.651,163.972 L79.779,161.834 L80.933,159.71 L82.111,157.604 L83.313,155.512 L84.541,153.437 L85.792,151.378 L87.068,149.335 L88.367,147.309 L89.69,145.299 L91.036,143.306 L92.406,141.331 L93.798,139.373 L95.214,137.433 L96.653,135.51 L98.113,133.605 L99.596,131.718 L101.101,129.849 L102.627,127.999 L104.176,126.168 L105.746,124.356 L107.337,122.563 L108.95,120.79 L110.583,119.035 L112.237,117.301 L113.912,115.587 L115.606,113.891 L117.321,112.217 L119.056,110.564 L120.81,108.93 L122.585,107.319 L124.378,105.727 L126.191,104.157 L128.022,102.609 L129.872,101.083 L131.74,99.578 L133.627,98.096 L135.532,96.635 L137.455,95.197 L139.396,93.782 L141.354,92.39 L143.33,91.021 L145.323,89.674 L147.332,88.352 L149.359,87.052 L151.402,85.777 L153.462,84.526 L155.537,83.299 L157.628,82.097 L159.736,80.919 L161.859,79.766 L163.997,78.638 L166.151,77.535 L168.319,76.458 L170.502,75.406 L172.701,74.38 L174.912,73.38 L177.139,72.406 L179.38,71.459 L181.634,70.538 L183.901,69.644 L186.182,68.777 L188.478,67.937 L190.785,67.124 L193.105,66.339 L195.439,65.582 L197.784,64.852 L200.142,64.151 L202.512,63.479 L204.893,62.834 L207.287,62.218 L209.691,61.632 L212.108,61.074 L214.535,60.546 L216.974,60.047 L219.422,59.578 L221.882,59.139 L224.351,58.73 L226.831,58.351 L229.321,58.003 L231.82,57.685 L234.329,57.399 L236.848,57.143 L239.375,56.919 L241.912,56.726 L244.457,56.565 L247.011,56.436 L249.574,56.338 L252.144,56.274 L254.722,56.241 L256.007,56.237 L255.993,56.237 L257.3,56.241 L259.885,56.274 L262.456,56.34 L265.018,56.437 L267.573,56.567 L270.118,56.728 L272.654,56.922 L275.182,57.146 L277.701,57.402 L280.209,57.689 L282.709,58.007 L285.198,58.356 L287.678,58.735 L290.147,59.144 L292.607,59.584 L295.055,60.053 L297.494,60.552 L299.921,61.081 L302.337,61.639 L304.742,62.225 L307.135,62.841 L309.517,63.486 L311.886,64.159 L314.244,64.861 L316.59,65.591 L318.922,66.348 L321.243,67.133 L323.55,67.947 L325.844,68.787 L328.125,69.654 L330.393,70.548 L332.647,71.47 L334.888,72.417 L337.114,73.392 L339.326,74.392 L341.524,75.419 L343.707,76.47 L345.875,77.548 L348.028,78.651 L350.166,79.779 L352.289,80.933 L354.396,82.111 L356.488,83.313 L358.563,84.541 L360.622,85.792 L362.665,87.068 L364.691,88.367 L366.701,89.69 L368.694,91.036 L370.669,92.406 L372.626,93.798 L374.567,95.214 L376.49,96.653 L378.395,98.113 L380.281,99.596 L382.15,101.101 L384,102.627 L385.831,104.176 L387.643,105.746 L389.437,107.337 L391.21,108.95 L392.964,110.583 L394.699,112.237 L396.413,113.912 L398.108,115.606 L399.782,117.321 L401.436,119.056 L403.069,120.81 L404.681,122.585 L406.272,124.378 L407.842,126.191 L409.391,128.022 L410.917,129.872 L412.422,131.741 L413.904,133.627 L415.365,135.532 L416.802,137.455 L418.218,139.396 L419.61,141.354 L420.979,143.33 L422.326,145.323 L423.648,147.332 L424.948,149.359 L426.223,151.402 L427.474,153.462 L428.701,155.537 L429.903,157.628 L431.081,159.736 L432.234,161.859 L433.362,163.997 L434.464,166.151 L435.542,168.319 L436.594,170.502 L437.62,172.701 L438.62,174.912 L439.594,177.139 L440.541,179.38 L441.462,181.634 L442.356,183.901 L443.223,186.183 L444.063,188.478 L444.876,190.785 L445.661,193.106 L446.418,195.439 L447.147,197.784 L447.849,200.142 L448.521,202.512 L449.166,204.893 L449.781,207.287 L450.368,209.691 L450.926,212.108 L451.454,214.535 L451.953,216.974 L452.422,219.422 L452.861,221.882 L453.27,224.351 L453.649,226.831 L453.997,229.321 L454.314,231.82 L454.601,234.329 L454.857,236.848 L455.081,239.375 L455.274,241.912 L455.435,244.457 L455.564,247.011 L455.661,249.574 L455.726,252.144 L455.759,254.722 L455.762,256.007 L455.762,255.993 L455.759,257.3 L455.725,259.885 L455.66,262.456 L455.563,265.018 L455.433,267.573 L455.271,270.118 L455.078,272.654 L454.854,275.182 L454.598,277.701 L454.31,280.209 L453.993,282.709 L453.644,285.198 L453.265,287.678 L452.856,290.147 L452.416,292.607 L451.947,295.055 L451.447,297.494 L450.919,299.921 L450.361,302.337 L449.774,304.742 L449.158,307.135 L448.513,309.517 L447.841,311.886 L447.139,314.244 L446.409,316.59 L445.652,318.922 L444.866,321.243 L444.053,323.55 L443.213,325.844 L442.346,328.125 L441.451,330.393 L440.53,332.647 L439.582,334.888 L438.608,337.114 L437.608,339.326 L436.581,341.524 L435.53,343.707 L434.452,345.875 L433.349,348.028 L432.22,350.166 L431.067,352.289 L429.889,354.396 L428.686,356.488 L427.459,358.563 L426.208,360.622 L424.932,362.665 L423.633,364.691 L422.31,366.701 L420.964,368.694 L419.594,370.669 L418.202,372.627 L416.786,374.567 L415.347,376.49 L413.887,378.395 L412.404,380.281 L410.899,382.15 L409.373,384 L407.823,385.831 L406.254,387.643 L404.663,389.437 L403.05,391.21 L401.417,392.964 L399.763,394.699 L398.088,396.413 L396.393,398.108 L394.679,399.782 L392.944,401.436 L391.189,403.069 L389.415,404.681 L387.622,406.272 L385.81,407.842 L383.978,409.391 L382.128,410.917 L380.259,412.422 L378.373,413.904 L376.468,415.365 L374.544,416.802 L372.604,418.218 L370.645,419.61 L368.67,420.979 L366.677,422.326 L364.668,423.648 L362.641,424.948 L360.598,426.223 L358.538,427.474 L356.463,428.701 L354.372,429.903 L352.264,431.081 L350.141,432.234 L348.003,433.362 L345.849,434.464 L343.681,435.542 L341.497,436.594 L339.299,437.62 L337.088,438.62 L334.861,439.594 L332.62,440.541 L330.366,441.462 L328.098,442.356 L325.817,443.223 L323.522,444.063 L321.215,444.876 L318.894,445.661 L316.561,446.418 L314.216,447.147 L311.858,447.849 L309.488,448.521 L307.107,449.166 L304.713,449.781 L302.309,450.368 L299.892,450.926 L297.464,451.454 L295.026,451.953 L292.578,452.422 L290.118,452.861 L287.648,453.27 L285.169,453.649 L282.679,453.997 L280.18,454.314 L277.671,454.601 L275.152,454.857 L272.624,455.081 L270.088,455.274 L267.543,455.435 L264.988,455.564 L262.426,455.661 L259.855,455.726 L257.277,455.759 L255.993,455.762 L255.993,455.762 C254.684,455.766 253.627,456.831 253.631,458.139 C253.635,459.447 254.699,460.504 256.007,460.5 C256.007,460.5 256.007,460.5 256.007,460.5 L257.337,460.496 L259.975,460.462 L262.606,460.395 L265.228,460.295 L267.842,460.163 L270.448,459.997 L273.044,459.8 L275.631,459.57 L278.208,459.308 L280.777,459.014 L283.336,458.689 L285.885,458.332 L288.423,457.943 L290.951,457.525 L293.469,457.075 L295.976,456.594 L298.473,456.083 L300.958,455.541 L303.431,454.971 L305.893,454.37 L308.344,453.739 L310.782,453.079 L313.209,452.389 L315.623,451.671 L318.024,450.924 L320.413,450.149 L322.789,449.344 L325.151,448.512 L327.501,447.651 L329.836,446.764 L332.158,445.848 L334.466,444.904 L336.76,443.934 L339.039,442.937 L341.304,441.913 L343.554,440.862 L345.789,439.785 L348.009,438.682 L350.214,437.552 L352.402,436.397 L354.575,435.216 L356.733,434.01 L358.874,432.779 L360.998,431.523 L363.107,430.241 L365.197,428.936 L367.272,427.605 L369.329,426.251 L371.369,424.873 L373.391,423.471 L375.396,422.045 L377.382,420.596 L379.35,419.125 L381.3,417.629 L383.231,416.112 L385.144,414.571 L387.037,413.008 L388.911,411.423 L390.766,409.816 L392.602,408.187 L394.417,406.536 L396.213,404.865 L397.988,403.172 L399.744,401.458 L401.478,399.723 L403.192,397.968 L404.885,396.192 L406.556,394.397 L408.206,392.581 L409.834,390.745 L411.441,388.89 L413.026,387.016 L414.588,385.122 L416.129,383.209 L417.647,381.278 L419.141,379.328 L420.613,377.359 L422.062,375.373 L423.487,373.368 L424.889,371.346 L426.267,369.306 L427.621,367.248 L428.951,365.174 L430.256,363.082 L431.537,360.974 L432.793,358.849 L434.024,356.708 L435.23,354.551 L436.41,352.377 L437.565,350.188 L438.694,347.983 L439.797,345.763 L440.874,343.527 L441.924,341.278 L442.948,339.013 L443.946,336.733 L444.915,334.439 L445.859,332.131 L446.774,329.809 L447.661,327.473 L448.522,325.124 L449.353,322.761 L450.157,320.385 L450.933,317.997 L451.68,315.595 L452.397,313.18 L453.087,310.754 L453.747,308.316 L454.377,305.865 L454.978,303.403 L455.548,300.928 L456.089,298.444 L456.599,295.947 L457.08,293.44 L457.53,290.922 L457.948,288.394 L458.336,285.855 L458.693,283.306 L459.017,280.748 L459.311,278.179 L459.572,275.601 L459.802,273.014 L459.999,270.418 L460.164,267.812 L460.297,265.198 L460.396,262.576 L460.463,259.945 L460.496,257.315 L460.5,256.007 L460.5,256.007 C460.5,256.002 460.5,255.998 460.5,255.993 L460.5,255.993 L460.496,254.662 L460.462,252.024 L460.395,249.394 L460.295,246.771 L460.163,244.158 L459.997,241.552 L459.8,238.956 L459.57,236.369 L459.308,233.792 L459.014,231.223 L458.689,228.664 L458.332,226.115 L457.943,223.577 L457.525,221.049 L457.075,218.531 L456.594,216.024 L456.083,213.527 L455.541,211.042 L454.971,208.569 L454.37,206.107 L453.739,203.656 L453.079,201.218 L452.389,198.791 L451.671,196.377 L450.924,193.976 L450.149,191.587 L449.344,189.211 L448.512,186.849 L447.651,184.499 L446.764,182.164 L445.848,179.841 L444.904,177.534 L443.934,175.24 L442.937,172.961 L441.913,170.696 L440.862,168.445 L439.785,166.211 L438.682,163.991 L437.552,161.786 L436.397,159.598 L435.216,157.425 L434.01,155.267 L432.779,153.126 L431.522,151.001 L430.241,148.893 L428.936,146.802 L427.605,144.727 L426.251,142.671 L424.873,140.631 L423.471,138.609 L422.045,136.604 L420.596,134.618 L419.125,132.65 L417.629,130.7 L416.112,128.769 L414.571,126.856 L413.008,124.963 L411.423,123.088 L409.815,121.234 L408.187,119.398 L406.536,117.583 L404.865,115.787 L403.172,114.011 L401.458,112.256 L399.723,110.522 L397.968,108.808 L396.192,107.115 L394.397,105.444 L392.581,103.794 L390.745,102.165 L388.89,100.559 L387.016,98.974 L385.122,97.411 L383.209,95.871 L381.278,94.353 L379.328,92.859 L377.359,91.387 L375.373,89.938 L373.368,88.513 L371.346,87.111 L369.306,85.733 L367.248,84.379 L365.174,83.049 L363.082,81.744 L360.974,80.463 L358.849,79.207 L356.708,77.976 L354.551,76.77 L352.377,75.59 L350.188,74.435 L347.983,73.306 L345.763,72.203 L343.527,71.126 L341.278,70.075 L339.013,69.051 L336.733,68.054 L334.439,67.085 L332.131,66.142 L329.809,65.226 L327.473,64.338 L325.124,63.478 L322.761,62.646 L320.385,61.843 L317.997,61.067 L315.595,60.32 L313.18,59.602 L310.754,58.913 L308.316,58.253 L305.865,57.623 L303.403,57.022 L300.928,56.451 L298.444,55.91 L295.947,55.4 L293.44,54.92 L290.922,54.47 L288.394,54.052 L285.855,53.664 L283.306,53.307 L280.748,52.983 L278.179,52.689 L275.601,52.428 L273.014,52.198 L270.418,52 L267.812,51.835 L265.198,51.703 L262.576,51.603 L259.945,51.537 L257.315,51.504 L256.007,51.5 L256.007,51.5 C256.002,51.5 255.998,51.5 255.993,51.5 L255.993,51.5 L254.662,51.504 L252.024,51.538 L249.394,51.605 L246.771,51.704 L244.158,51.837 L241.552,52.003 L238.956,52.2 L236.369,52.43 L233.792,52.692 L231.223,52.986 L228.664,53.311 L226.115,53.668 L223.577,54.057 L221.049,54.476 L218.531,54.925 L216.024,55.406 L213.527,55.917 L211.042,56.458 L208.569,57.029 L206.107,57.63 L203.656,58.261 L201.218,58.921 L198.791,59.61 L196.377,60.329 L193.976,61.076 L191.587,61.851 L189.211,62.656 L186.849,63.488 L184.499,64.349 L182.164,65.236 L179.841,66.152 L177.533,67.096 L175.24,68.066 L172.961,69.063 L170.696,70.087 L168.445,71.138 L166.211,72.215 L163.991,73.318 L161.786,74.448 L159.598,75.603 L157.425,76.784 L155.267,77.99 L153.126,79.221 L151.001,80.477 L148.893,81.759 L146.802,83.064 L144.727,84.394 L142.671,85.749 L140.631,87.127 L138.609,88.529 L136.604,89.955 L134.618,91.403 L132.65,92.875 L130.7,94.371 L128.769,95.888 L126.856,97.429 L124.963,98.992 L123.088,100.577 L121.234,102.184 L119.398,103.812 L117.583,105.463 L115.787,107.135 L114.011,108.828 L112.256,110.542 L110.522,112.277 L108.808,114.032 L107.115,115.808 L105.444,117.603 L103.794,119.419 L102.165,121.255 L100.559,123.11 L98.974,124.984 L97.411,126.878 L95.871,128.791 L94.353,130.722 L92.859,132.672 L91.387,134.641 L89.938,136.627 L88.513,138.632 L87.111,140.654 L85.733,142.694 L84.379,144.752 L83.049,146.826 L81.744,148.918 L80.463,151.026 L79.207,153.151 L77.976,155.292 L76.77,157.449 L75.59,159.623 L74.435,161.812 L73.306,164.017 L72.203,166.237 L71.126,168.472 L70.075,170.722 L69.051,172.987 L68.054,175.267 L67.085,177.56 L66.142,179.869 L65.226,182.191 L64.338,184.527 L63.478,186.876 L62.646,189.239 L61.843,191.615 L61.067,194.003 L60.32,196.405 L59.602,198.82 L58.913,201.246 L58.253,203.684 L57.623,206.135 L57.022,208.597 L56.451,211.072 L55.91,213.556 L55.4,216.053 L54.92,218.56 L54.47,221.078 L54.052,223.606 L53.664,226.145 L53.307,228.694 L52.983,231.252 L52.689,233.821 L52.428,236.399 L52.198,238.986 L52,241.582 L51.835,244.188 L51.703,246.801 L51.603,249.424 L51.537,252.054 L51.504,254.685 L51.5,255.993 L51.5,255.993 C51.5,255.998 51.5,256.002 51.5,256.007 L51.5,256.007 L51.504,257.337 L51.538,259.975 L51.605,262.606 L51.704,265.228 L51.837,267.842 L52.003,270.448 L52.2,273.044 L52.43,275.631 L52.692,278.208 L52.986,280.777 L53.311,283.336 L53.668,285.885 L54.057,288.423 L54.476,290.951 L54.925,293.469 L55.406,295.976 L55.917,298.473 L56.458,300.958 L57.029,303.431 L57.63,305.893 L58.261,308.344 L58.921,310.782 L59.61,313.209 L60.329,315.623 L61.076,318.024 L61.851,320.413 L62.656,322.789 L63.488,325.151 L64.349,327.501 L65.236,329.836 L66.152,332.158 L67.096,334.466 L68.066,336.76 L69.063,339.039 L70.087,341.304 L71.138,343.554 L72.215,345.789 L73.318,348.009 L74.448,350.214 L75.603,352.402 L76.784,354.575 L77.99,356.733 L79.221,358.874 L80.477,360.998 L81.759,363.107 L83.064,365.197 L84.394,367.272 L85.749,369.329 L87.127,371.369 L88.529,373.391 L89.955,375.396 L91.403,377.382 L92.875,379.35 L94.371,381.3 L95.888,383.231 L97.429,385.144 L98.992,387.037 L100.577,388.911 L102.184,390.766 L103.812,392.602 L105.463,394.417 L107.135,396.213 L108.828,397.988 L110.542,399.744 L112.277,401.478 L114.032,403.192 L115.808,404.885 L117.603,406.556 L119.419,408.206 L121.255,409.834 L123.11,411.441 L124.984,413.026 L126.878,414.589 L128.791,416.129 L130.722,417.647 L132.672,419.141 L134.641,420.613 L136.627,422.062 L138.632,423.487 L140.654,424.889 L142.694,426.267 L144.752,427.621 L146.826,428.951 L148.918,430.256 L151.026,431.537 L153.151,432.793 L155.292,434.024 L157.449,435.23 L159.623,436.41 L161.812,437.565 L164.017,438.694 L166.237,439.797 L168.472,440.874 L170.722,441.924 L172.987,442.948 L175.267,443.946 L177.56,444.915 L179.869,445.859 L182.191,446.774 L184.527,447.661 L186.876,448.522 L189.239,449.353 L191.615,450.157 L194.003,450.933 L196.405,451.68 L198.82,452.397 L201.246,453.087 L203.684,453.747 L206.135,454.377 L208.597,454.978 L211.071,455.548 L213.556,456.089 L216.053,456.599 L218.56,457.08 L221.078,457.53 L223.606,457.948 L226.145,458.336 L228.694,458.693 L231.252,459.017 L233.821,459.311 L236.399,459.572 L238.986,459.802 L241.582,459.999 L244.188,460.164 L246.801,460.297 L249.424,460.396 L252.054,460.463 L254.685,460.496 L255.993,460.5 C257.3,460.504 258.365,459.447 258.369,458.139 C258.373,456.831 257.315,455.766 256.007,455.762 L256.007,455.762" fill="#000000"/>
      <path d="M256.011,455.762 L255.123,455.759 L253.382,455.725 L251.659,455.661 L249.941,455.564 L248.229,455.436 L246.522,455.277 L244.821,455.086 L243.127,454.864 L241.438,454.611 L239.755,454.328 L238.079,454.014 L236.409,453.67 L234.745,453.296 L233.088,452.892 L231.438,452.457 L229.794,451.993 L228.157,451.5 L226.527,450.978 L224.905,450.427 L223.289,449.846 L221.682,449.237 L220.081,448.599 L218.488,447.934 L216.903,447.239 L215.326,446.517 L213.756,445.767 L212.195,444.99 L210.642,444.184 L209.098,443.352 L207.561,442.492 L206.034,441.606 L204.515,440.693 L203.005,439.753 L201.504,438.787 L200.013,437.794 L198.531,436.776 L197.058,435.731 L195.594,434.661 L194.141,433.565 L192.697,432.444 L191.263,431.298 L189.841,430.127 L188.427,428.931 L187.024,427.71 L185.632,426.466 L184.25,425.197 L182.88,423.904 L181.521,422.587 L180.172,421.246 L178.835,419.883 L177.509,418.495 L176.195,417.084 L174.893,415.651 L173.602,414.195 L172.324,412.717 L171.057,411.216 L169.804,409.693 L168.562,408.149 L167.333,406.582 L166.117,404.994 L164.913,403.384 L163.723,401.754 L162.546,400.102 L161.382,398.43 L160.232,396.737 L159.095,395.024 L157.971,393.29 L156.862,391.537 L155.766,389.763 L154.686,387.971 L153.619,386.159 L152.566,384.327 L151.529,382.477 L150.506,380.608 L149.498,378.72 L148.505,376.814 L147.526,374.89 L146.564,372.948 L145.616,370.987 L144.685,369.009 L143.769,367.015 L142.869,365.002 L141.984,362.973 L141.117,360.927 L140.265,358.864 L139.429,356.785 L138.611,354.69 L137.808,352.578 L137.024,350.451 L136.255,348.308 L135.504,346.15 L134.77,343.977 L134.053,341.789 L133.354,339.585 L132.672,337.367 L132.009,335.135 L131.363,332.889 L130.735,330.628 L130.126,328.354 L129.535,326.066 L128.963,323.764 L128.408,321.45 L127.873,319.123 L127.357,316.782 L126.859,314.429 L126.382,312.064 L125.922,309.686 L125.483,307.297 L125.063,304.895 L124.663,302.482 L124.283,300.057 L123.922,297.622 L123.582,295.175 L123.262,292.718 L122.963,290.249 L122.683,287.771 L122.425,285.282 L122.187,282.783 L121.971,280.275 L121.775,277.756 L121.601,275.228 L121.448,272.692 L121.317,270.145 L121.206,267.591 L121.118,265.027 L121.052,262.455 L121.008,259.875 L120.985,257.287 L120.983,255.995 L120.983,256.005 L120.986,254.698 L121.008,252.104 L121.052,249.525 L121.119,246.952 L121.207,244.389 L121.317,241.834 L121.449,239.288 L121.602,236.751 L121.777,234.223 L121.973,231.705 L122.19,229.196 L122.427,226.697 L122.686,224.208 L122.965,221.73 L123.264,219.262 L123.585,216.805 L123.925,214.358 L124.286,211.922 L124.666,209.497 L125.066,207.084 L125.486,204.683 L125.926,202.293 L126.386,199.916 L126.864,197.55 L127.362,195.197 L127.878,192.857 L128.413,190.529 L128.967,188.215 L129.54,185.913 L130.131,183.625 L130.741,181.351 L131.369,179.091 L132.015,176.844 L132.679,174.612 L133.361,172.394 L134.059,170.19 L134.776,168.003 L135.511,165.829 L136.262,163.67 L137.031,161.528 L137.816,159.401 L138.618,157.289 L139.438,155.194 L140.273,153.114 L141.125,151.052 L141.994,149.005 L142.878,146.976 L143.778,144.964 L144.695,142.969 L145.627,140.991 L146.574,139.031 L147.538,137.088 L148.516,135.164 L149.509,133.258 L150.517,131.37 L151.541,129.501 L152.579,127.651 L153.631,125.819 L154.699,124.007 L155.78,122.214 L156.876,120.442 L157.985,118.688 L159.109,116.954 L160.246,115.242 L161.397,113.549 L162.561,111.876 L163.739,110.225 L164.93,108.594 L166.133,106.984 L167.35,105.396 L168.579,103.83 L169.821,102.285 L171.076,100.762 L172.343,99.261 L173.621,97.782 L174.912,96.326 L176.215,94.893 L177.53,93.483 L178.856,92.096 L180.194,90.732 L181.543,89.392 L182.903,88.075 L184.274,86.781 L185.656,85.512 L187.049,84.268 L188.452,83.047 L189.866,81.852 L191.289,80.681 L192.723,79.535 L194.168,78.414 L195.622,77.318 L197.086,76.248 L198.559,75.205 L200.042,74.186 L201.534,73.193 L203.036,72.228 L204.546,71.288 L206.066,70.375 L207.593,69.489 L209.131,68.63 L210.676,67.798 L212.229,66.993 L213.791,66.216 L215.361,65.466 L216.939,64.744 L218.524,64.051 L220.118,63.385 L221.719,62.748 L223.327,62.139 L224.944,61.56 L226.567,61.009 L228.197,60.487 L229.834,59.995 L231.478,59.531 L233.129,59.098 L234.786,58.695 L236.451,58.321 L238.121,57.978 L239.798,57.664 L241.48,57.381 L243.17,57.13 L244.865,56.908 L246.566,56.718 L248.272,56.56 L249.985,56.432 L251.703,56.337 L253.427,56.273 L255.156,56.241 L256.011,56.237 L255.989,56.237 L256.877,56.241 L258.617,56.274 L260.341,56.338 L262.058,56.436 L263.771,56.563 L265.478,56.723 L267.179,56.914 L268.873,57.136 L270.562,57.389 L272.245,57.672 L273.921,57.985 L275.591,58.33 L277.254,58.704 L278.912,59.108 L280.562,59.543 L282.206,60.007 L283.843,60.499 L285.472,61.022 L287.095,61.573 L288.71,62.154 L290.318,62.762 L291.918,63.4 L293.512,64.066 L295.097,64.761 L296.674,65.482 L298.244,66.233 L299.805,67.01 L301.358,67.816 L302.902,68.648 L304.439,69.508 L305.966,70.394 L307.485,71.307 L308.995,72.247 L310.496,73.213 L311.987,74.206 L313.469,75.224 L314.942,76.269 L316.406,77.339 L317.859,78.435 L319.303,79.556 L320.736,80.702 L322.159,81.872 L323.573,83.069 L324.976,84.289 L326.368,85.534 L327.749,86.803 L329.119,88.096 L330.479,89.413 L331.828,90.754 L333.165,92.117 L334.491,93.505 L335.805,94.915 L337.107,96.349 L338.398,97.805 L339.676,99.283 L340.942,100.784 L342.196,102.307 L343.438,103.851 L344.667,105.418 L345.883,107.006 L347.087,108.615 L348.277,110.246 L349.454,111.898 L350.618,113.57 L351.768,115.263 L352.905,116.976 L354.029,118.709 L355.137,120.463 L356.233,122.236 L357.314,124.029 L358.381,125.841 L359.434,127.673 L360.471,129.523 L361.494,131.392 L362.502,133.279 L363.495,135.185 L364.473,137.11 L365.436,139.052 L366.383,141.012 L367.315,142.99 L368.231,144.985 L369.131,146.997 L370.015,149.027 L370.883,151.073 L371.735,153.136 L372.57,155.215 L373.389,157.31 L374.191,159.421 L374.976,161.549 L375.745,163.691 L376.496,165.849 L377.231,168.023 L377.947,170.211 L378.645,172.415 L379.328,174.633 L379.991,176.865 L380.637,179.111 L381.264,181.372 L381.874,183.646 L382.465,185.934 L383.037,188.235 L383.591,190.55 L384.127,192.877 L384.643,195.218 L385.14,197.571 L385.618,199.936 L386.078,202.314 L386.517,204.703 L386.937,207.105 L387.337,209.518 L387.717,211.942 L388.078,214.378 L388.418,216.824 L388.738,219.282 L389.037,221.751 L389.317,224.229 L389.575,226.718 L389.812,229.217 L390.029,231.725 L390.225,234.244 L390.399,236.771 L390.552,239.308 L390.683,241.855 L390.794,244.409 L390.881,246.973 L390.948,249.544 L390.992,252.125 L391.015,254.713 L391.017,256.005 L391.017,255.995 L391.014,257.302 L390.992,259.896 L390.948,262.475 L390.881,265.048 L390.793,267.611 L390.683,270.166 L390.551,272.712 L390.397,275.249 L390.223,277.776 L390.027,280.295 L389.81,282.804 L389.572,285.303 L389.314,287.791 L389.035,290.27 L388.735,292.738 L388.415,295.195 L388.075,297.642 L387.714,300.078 L387.334,302.503 L386.934,304.916 L386.514,307.317 L386.074,309.707 L385.614,312.084 L385.136,314.45 L384.638,316.803 L384.122,319.143 L383.587,321.471 L383.032,323.785 L382.46,326.087 L381.868,328.375 L381.259,330.649 L380.63,332.909 L379.985,335.156 L379.321,337.388 L378.639,339.606 L377.94,341.809 L377.223,343.997 L376.489,346.171 L375.737,348.329 L374.969,350.472 L374.184,352.599 L373.381,354.711 L372.562,356.806 L371.726,358.886 L370.874,360.948 L370.006,362.994 L369.122,365.024 L368.221,367.036 L367.305,369.031 L366.373,371.009 L365.426,372.969 L364.462,374.912 L363.484,376.836 L362.491,378.742 L361.482,380.63 L360.459,382.499 L359.421,384.349 L358.368,386.18 L357.301,387.992 L356.22,389.786 L355.124,391.558 L354.015,393.312 L352.891,395.046 L351.754,396.758 L350.603,398.451 L349.439,400.124 L348.261,401.775 L347.07,403.406 L345.867,405.016 L344.65,406.604 L343.421,408.17 L342.179,409.715 L340.924,411.238 L339.657,412.739 L338.379,414.217 L337.088,415.673 L335.785,417.106 L334.47,418.517 L333.144,419.904 L331.806,421.268 L330.457,422.608 L329.097,423.925 L327.726,425.219 L326.344,426.487 L324.951,427.732 L323.548,428.952 L322.134,430.148 L320.71,431.319 L319.276,432.465 L317.832,433.586 L316.378,434.682 L314.914,435.751 L313.441,436.795 L311.958,437.814 L310.466,438.806 L308.964,439.772 L307.453,440.712 L305.934,441.624 L304.406,442.511 L302.869,443.37 L301.324,444.202 L299.771,445.007 L298.209,445.784 L296.639,446.534 L295.061,447.256 L293.476,447.949 L291.882,448.614 L290.281,449.252 L288.673,449.86 L287.056,450.44 L285.433,450.991 L283.803,451.513 L282.166,452.005 L280.522,452.468 L278.871,452.902 L277.213,453.305 L275.549,453.679 L273.879,454.022 L272.202,454.336 L270.519,454.618 L268.83,454.87 L267.135,455.091 L265.434,455.282 L263.727,455.44 L262.015,455.567 L260.297,455.663 L258.573,455.727 L256.844,455.759 L255.989,455.762 L255.989,455.762 C254.681,455.769 253.625,456.834 253.631,458.142 C253.637,459.451 254.703,460.506 256.011,460.5 C256.011,460.5 256.011,460.5 256.011,460.5 L256.932,460.495 L258.75,460.461 L260.561,460.393 L262.367,460.291 L264.167,460.157 L265.961,459.99 L267.749,459.789 L269.53,459.556 L271.305,459.29 L273.073,458.993 L274.834,458.663 L276.588,458.301 L278.335,457.908 L280.075,457.484 L281.807,457.028 L283.532,456.542 L285.248,456.025 L286.957,455.477 L288.658,454.899 L290.35,454.291 L292.033,453.653 L293.708,452.986 L295.374,452.289 L297.033,451.564 L298.681,450.809 L300.32,450.025 L301.95,449.213 L303.571,448.373 L305.182,447.505 L306.784,446.609 L308.375,445.685 L309.956,444.734 L311.528,443.755 L313.089,442.75 L314.64,441.718 L316.181,440.66 L317.71,439.575 L319.229,438.464 L320.737,437.328 L322.233,436.166 L323.719,434.978 L325.194,433.765 L326.657,432.527 L328.109,431.264 L329.549,429.977 L330.976,428.664 L332.393,427.328 L333.797,425.969 L335.189,424.585 L336.568,423.177 L337.936,421.747 L339.291,420.292 L340.632,418.816 L341.962,417.316 L343.278,415.794 L344.581,414.25 L345.871,412.683 L347.148,411.095 L348.411,409.485 L349.661,407.853 L350.897,406.2 L352.119,404.525 L353.327,402.83 L354.522,401.114 L355.701,399.378 L356.867,397.621 L358.018,395.845 L359.155,394.048 L360.277,392.232 L361.384,390.396 L362.476,388.541 L363.553,386.667 L364.615,384.773 L365.661,382.862 L366.692,380.931 L367.707,378.982 L368.707,377.015 L369.691,375.031 L370.659,373.028 L371.61,371.008 L372.546,368.971 L373.465,366.916 L374.368,364.844 L375.253,362.756 L376.122,360.652 L376.975,358.53 L377.809,356.394 L378.627,354.24 L379.429,352.072 L380.212,349.887 L380.977,347.687 L381.726,345.472 L382.456,343.242 L383.168,340.998 L383.862,338.739 L384.538,336.465 L385.196,334.177 L385.835,331.875 L386.455,329.56 L387.057,327.231 L387.639,324.888 L388.203,322.533 L388.748,320.164 L389.274,317.783 L389.779,315.389 L390.266,312.982 L390.733,310.564 L391.18,308.133 L391.607,305.691 L392.014,303.237 L392.401,300.771 L392.767,298.295 L393.113,295.807 L393.438,293.309 L393.743,290.8 L394.026,288.281 L394.289,285.751 L394.53,283.211 L394.75,280.661 L394.949,278.103 L395.126,275.534 L395.282,272.956 L395.415,270.369 L395.527,267.774 L395.617,265.17 L395.684,262.557 L395.729,259.936 L395.752,257.312 L395.755,256.005 L395.755,256.005 C395.755,256.001 395.755,255.998 395.755,255.995 L395.755,255.995 L395.752,254.673 L395.729,252.043 L395.684,249.423 L395.617,246.81 L395.527,244.205 L395.414,241.61 L395.281,239.023 L395.125,236.445 L394.948,233.877 L394.749,231.318 L394.529,228.768 L394.287,226.228 L394.024,223.699 L393.74,221.18 L393.436,218.67 L393.11,216.172 L392.764,213.684 L392.397,211.208 L392.011,208.742 L391.603,206.288 L391.176,203.846 L390.729,201.416 L390.262,198.997 L389.775,196.591 L389.269,194.197 L388.743,191.815 L388.199,189.447 L387.635,187.091 L387.051,184.749 L386.45,182.419 L385.829,180.104 L385.189,177.802 L384.532,175.515 L383.856,173.241 L383.161,170.982 L382.449,168.737 L381.718,166.507 L380.97,164.292 L380.204,162.092 L379.421,159.908 L378.62,157.739 L377.801,155.586 L376.966,153.448 L376.114,151.327 L375.245,149.222 L374.358,147.134 L373.456,145.063 L372.536,143.009 L371.601,140.971 L370.649,138.951 L369.681,136.948 L368.696,134.964 L367.696,132.997 L366.681,131.047 L365.65,129.117 L364.603,127.205 L363.541,125.312 L362.463,123.437 L361.371,121.583 L360.263,119.746 L359.141,117.93 L358.004,116.133 L356.852,114.356 L355.687,112.6 L354.507,110.863 L353.312,109.148 L352.103,107.452 L350.881,105.778 L349.644,104.125 L348.394,102.494 L347.13,100.883 L345.853,99.294 L344.563,97.728 L343.259,96.184 L341.943,94.662 L340.613,93.162 L339.27,91.685 L337.915,90.232 L336.548,88.801 L335.167,87.393 L333.775,86.01 L332.37,84.649 L330.953,83.313 L329.525,82.002 L328.085,80.715 L326.632,79.452 L325.169,78.214 L323.694,77.001 L322.207,75.813 L320.71,74.651 L319.201,73.515 L317.682,72.404 L316.151,71.32 L314.611,70.261 L313.059,69.23 L311.498,68.225 L309.926,67.247 L308.343,66.296 L306.751,65.373 L305.149,64.477 L303.538,63.609 L301.916,62.77 L300.286,61.958 L298.646,61.175 L296.996,60.421 L295.338,59.695 L293.671,58.999 L291.996,58.332 L290.311,57.695 L288.619,57.088 L286.917,56.511 L285.209,55.963 L283.491,55.447 L281.766,54.961 L280.034,54.506 L278.294,54.082 L276.546,53.689 L274.792,53.329 L273.03,53 L271.262,52.702 L269.487,52.438 L267.705,52.206 L265.918,52.006 L264.123,51.839 L262.323,51.705 L260.517,51.605 L258.706,51.538 L256.899,51.504 L256.011,51.5 L256.011,51.5 C256.004,51.5 255.996,51.5 255.989,51.5 L255.989,51.5 L255.067,51.505 L253.25,51.539 L251.439,51.606 L249.633,51.708 L247.833,51.843 L246.039,52.01 L244.251,52.211 L242.47,52.444 L240.695,52.71 L238.927,53.007 L237.165,53.337 L235.412,53.699 L233.664,54.092 L231.925,54.516 L230.193,54.972 L228.468,55.458 L226.752,55.975 L225.043,56.523 L223.342,57.101 L221.65,57.709 L219.967,58.347 L218.291,59.014 L216.625,59.711 L214.967,60.436 L213.319,61.191 L211.679,61.974 L210.05,62.787 L208.429,63.627 L206.818,64.495 L205.216,65.391 L203.625,66.315 L202.043,67.266 L200.471,68.244 L198.91,69.25 L197.36,70.282 L195.819,71.34 L194.29,72.424 L192.771,73.535 L191.263,74.672 L189.766,75.834 L188.28,77.022 L186.805,78.235 L185.342,79.473 L183.891,80.736 L182.451,82.023 L181.023,83.336 L179.607,84.672 L178.203,86.031 L176.811,87.415 L175.432,88.822 L174.064,90.253 L172.709,91.707 L171.368,93.184 L170.038,94.683 L168.722,96.206 L167.419,97.75 L166.129,99.317 L164.852,100.905 L163.589,102.515 L162.339,104.147 L161.103,105.8 L159.881,107.474 L158.673,109.17 L157.478,110.885 L156.299,112.622 L155.133,114.379 L153.982,116.155 L152.845,117.951 L151.723,119.768 L150.616,121.604 L149.524,123.459 L148.447,125.333 L147.385,127.226 L146.339,129.138 L145.308,131.069 L144.292,133.018 L143.293,134.985 L142.309,136.969 L141.341,138.972 L140.389,140.992 L139.454,143.029 L138.535,145.084 L137.632,147.155 L136.746,149.244 L135.878,151.348 L135.025,153.47 L134.191,155.606 L133.373,157.759 L132.571,159.928 L131.788,162.113 L131.023,164.313 L130.274,166.528 L129.544,168.757 L128.832,171.002 L128.138,173.261 L127.462,175.535 L126.804,177.822 L126.165,180.125 L125.545,182.44 L124.943,184.769 L124.36,187.112 L123.797,189.467 L123.252,191.836 L122.726,194.217 L122.221,196.611 L121.733,199.018 L121.267,201.436 L120.82,203.867 L120.393,206.309 L119.986,208.763 L119.599,211.229 L119.233,213.705 L118.887,216.193 L118.562,218.691 L118.257,221.2 L117.973,223.719 L117.711,226.249 L117.47,228.789 L117.249,231.338 L117.05,233.897 L116.874,236.466 L116.718,239.044 L116.585,241.63 L116.472,244.226 L116.383,246.83 L116.315,249.442 L116.27,252.064 L116.248,254.688 L116.245,255.995 L116.245,255.995 C116.245,255.998 116.245,256.001 116.245,256.005 L116.245,256.005 L116.248,257.327 L116.27,259.956 L116.316,262.577 L116.383,265.19 L116.473,267.795 L116.585,270.39 L116.719,272.977 L116.874,275.555 L117.052,278.123 L117.251,280.682 L117.471,283.232 L117.713,285.772 L117.976,288.301 L118.259,290.82 L118.564,293.329 L118.89,295.828 L119.236,298.316 L119.602,300.792 L119.989,303.258 L120.397,305.712 L120.824,308.154 L121.271,310.584 L121.738,313.003 L122.225,315.409 L122.731,317.803 L123.257,320.185 L123.801,322.553 L124.365,324.909 L124.949,327.251 L125.55,329.58 L126.171,331.896 L126.81,334.198 L127.468,336.485 L128.144,338.759 L128.839,341.018 L129.551,343.263 L130.281,345.493 L131.03,347.708 L131.796,349.908 L132.579,352.092 L133.38,354.261 L134.198,356.414 L135.034,358.552 L135.886,360.672 L136.755,362.777 L137.642,364.866 L138.544,366.937 L139.463,368.991 L140.399,371.029 L141.351,373.049 L142.319,375.052 L143.303,377.036 L144.303,379.003 L145.319,380.953 L146.35,382.883 L147.397,384.795 L148.459,386.688 L149.537,388.562 L150.629,390.417 L151.736,392.254 L152.858,394.07 L153.995,395.867 L155.147,397.643 L156.313,399.4 L157.493,401.137 L158.688,402.852 L159.897,404.547 L161.119,406.221 L162.355,407.875 L163.606,409.506 L164.869,411.117 L166.147,412.705 L167.437,414.272 L168.741,415.816 L170.057,417.338 L171.387,418.838 L172.73,420.314 L174.085,421.768 L175.452,423.199 L176.832,424.607 L178.225,425.99 L179.63,427.35 L181.046,428.686 L182.475,429.998 L183.915,431.285 L185.368,432.548 L186.831,433.786 L188.306,434.999 L189.792,436.187 L191.29,437.349 L192.798,438.485 L194.318,439.596 L195.848,440.68 L197.389,441.739 L198.94,442.77 L200.502,443.775 L202.074,444.753 L203.657,445.704 L205.248,446.627 L206.85,447.522 L208.462,448.391 L210.084,449.23 L211.714,450.042 L213.354,450.825 L215.004,451.579 L216.662,452.305 L218.328,453.001 L220.004,453.668 L221.689,454.305 L223.381,454.912 L225.083,455.489 L226.791,456.036 L228.508,456.553 L230.234,457.039 L231.966,457.494 L233.706,457.918 L235.454,458.31 L237.208,458.671 L238.97,459 L240.737,459.297 L242.513,459.562 L244.294,459.794 L246.082,459.994 L247.877,460.161 L249.677,460.295 L251.483,460.395 L253.294,460.462 L255.101,460.496 L255.989,460.5 C255.989,460.5 255.989,460.5 255.989,460.5 C257.297,460.506 258.362,459.451 258.369,458.142 C258.375,456.834 257.319,455.769 256.011,455.762 L256.011,455.762" fill="#000000"/>
      <path d="M256.028,455.762 L255.686,455.759 L255.09,455.728 L254.523,455.67 L253.956,455.586 L253.39,455.473 L252.823,455.333 L252.255,455.166 L251.686,454.97 L251.115,454.746 L250.542,454.494 L249.967,454.212 L249.389,453.901 L248.81,453.561 L248.228,453.191 L247.645,452.791 L247.061,452.362 L246.475,451.902 L245.888,451.413 L245.3,450.893 L244.711,450.343 L244.123,449.763 L243.534,449.154 L242.946,448.514 L242.358,447.845 L241.771,447.146 L241.184,446.418 L240.6,445.661 L240.017,444.875 L239.435,444.06 L238.854,443.217 L238.276,442.345 L237.7,441.445 L237.127,440.517 L236.555,439.562 L235.987,438.58 L235.42,437.57 L234.857,436.533 L234.298,435.469 L233.461,433.818 L232.358,431.527 L231.272,429.14 L230.201,426.652 L229.145,424.066 L228.106,421.38 L227.083,418.6 L226.077,415.726 L225.09,412.76 L224.12,409.703 L223.17,406.557 L222.239,403.324 L221.329,400.006 L220.438,396.604 L219.569,393.12 L218.722,389.556 L217.896,385.913 L217.093,382.193 L216.312,378.398 L215.555,374.529 L214.821,370.588 L214.112,366.576 L213.428,362.495 L212.768,358.349 L212.134,354.135 L211.526,349.858 L210.944,345.519 L210.39,341.119 L209.863,336.661 L209.363,332.143 L208.891,327.572 L208.448,322.945 L208.033,318.266 L207.648,313.535 L207.293,308.756 L206.968,303.929 L206.674,299.055 L206.411,294.137 L206.178,289.176 L205.979,284.174 L205.811,279.131 L205.676,274.051 L205.574,268.934 L205.506,263.782 L205.471,258.597 L205.467,255.996 L205.467,256.004 L205.471,253.391 L205.506,248.202 L205.574,243.05 L205.676,237.933 L205.811,232.853 L205.979,227.81 L206.179,222.808 L206.411,217.847 L206.674,212.929 L206.969,208.055 L207.294,203.227 L207.649,198.448 L208.035,193.717 L208.449,189.038 L208.892,184.411 L209.364,179.838 L209.864,175.322 L210.392,170.862 L210.947,166.462 L211.529,162.123 L212.137,157.845 L212.771,153.632 L213.431,149.484 L214.116,145.403 L214.825,141.391 L215.559,137.45 L216.317,133.58 L217.098,129.784 L217.901,126.063 L218.727,122.42 L219.575,118.855 L220.445,115.369 L221.336,111.967 L222.247,108.648 L223.179,105.414 L224.129,102.266 L225.1,99.208 L226.088,96.24 L227.095,93.364 L228.12,90.582 L229.161,87.895 L230.219,85.306 L231.292,82.815 L232.38,80.425 L233.482,78.139 L234.314,76.499 L234.872,75.441 L235.436,74.402 L236.003,73.392 L236.572,72.408 L237.145,71.452 L237.72,70.523 L238.297,69.623 L238.876,68.75 L239.458,67.906 L240.042,67.09 L240.628,66.303 L241.214,65.544 L241.803,64.815 L242.392,64.116 L242.982,63.445 L243.574,62.805 L244.165,62.194 L244.757,61.614 L245.349,61.063 L245.94,60.543 L246.531,60.053 L247.12,59.592 L247.709,59.163 L248.297,58.764 L248.883,58.394 L249.466,58.056 L250.048,57.746 L250.628,57.467 L251.206,57.216 L251.782,56.995 L252.355,56.803 L252.927,56.639 L253.497,56.503 L254.066,56.396 L254.635,56.316 L255.203,56.263 L255.773,56.239 L256.028,56.237 L255.971,56.237 L256.313,56.241 L256.91,56.272 L257.477,56.33 L258.043,56.414 L258.609,56.526 L259.176,56.667 L259.744,56.834 L260.314,57.03 L260.885,57.254 L261.458,57.506 L262.033,57.788 L262.611,58.098 L263.19,58.439 L263.772,58.809 L264.354,59.209 L264.939,59.638 L265.525,60.098 L266.112,60.587 L266.699,61.107 L267.288,61.657 L267.877,62.237 L268.466,62.846 L269.054,63.486 L269.641,64.155 L270.229,64.854 L270.815,65.582 L271.4,66.339 L271.983,67.125 L272.565,67.94 L273.146,68.783 L273.724,69.655 L274.3,70.555 L274.873,71.482 L275.445,72.438 L276.013,73.42 L276.579,74.43 L277.142,75.467 L277.702,76.531 L278.539,78.182 L279.642,80.473 L280.728,82.859 L281.799,85.347 L282.855,87.934 L283.894,90.619 L284.917,93.4 L285.922,96.274 L286.91,99.24 L287.88,102.297 L288.83,105.443 L289.761,108.676 L290.671,111.994 L291.562,115.396 L292.431,118.88 L293.278,122.444 L294.104,126.087 L294.907,129.807 L295.688,133.602 L296.445,137.471 L297.179,141.412 L297.888,145.424 L298.572,149.504 L299.232,153.651 L299.866,157.864 L300.474,162.142 L301.055,166.481 L301.61,170.881 L302.137,175.339 L302.637,179.856 L303.109,184.428 L303.552,189.055 L303.967,193.734 L304.352,198.464 L304.707,203.244 L305.032,208.071 L305.326,212.944 L305.589,217.863 L305.821,222.824 L306.021,227.826 L306.189,232.869 L306.324,237.949 L306.426,243.066 L306.494,248.218 L306.529,253.403 L306.533,256.004 L306.533,255.996 L306.529,258.609 L306.494,263.798 L306.425,268.95 L306.323,274.067 L306.188,279.147 L306.021,284.189 L305.821,289.192 L305.588,294.153 L305.325,299.071 L305.031,303.945 L304.706,308.773 L304.35,313.552 L303.965,318.282 L303.551,322.962 L303.108,327.588 L302.635,332.162 L302.136,336.678 L301.607,341.137 L301.053,345.538 L300.471,349.877 L299.862,354.154 L299.228,358.368 L298.569,362.516 L297.884,366.597 L297.175,370.608 L296.441,374.55 L295.683,378.42 L294.902,382.216 L294.099,385.936 L293.273,389.58 L292.425,393.145 L291.554,396.63 L290.664,400.033 L289.753,403.352 L288.821,406.586 L287.87,409.733 L286.9,412.792 L285.911,415.76 L284.905,418.636 L283.88,421.418 L282.839,424.105 L281.781,426.694 L280.708,429.185 L279.62,431.575 L278.518,433.861 L277.686,435.501 L277.127,436.559 L276.564,437.598 L275.997,438.608 L275.427,439.592 L274.855,440.548 L274.28,441.477 L273.703,442.377 L273.123,443.25 L272.542,444.094 L271.958,444.91 L271.372,445.697 L270.785,446.456 L270.197,447.185 L269.607,447.884 L269.018,448.554 L268.426,449.195 L267.835,449.806 L267.243,450.386 L266.651,450.937 L266.06,451.457 L265.469,451.947 L264.879,452.408 L264.29,452.837 L263.703,453.236 L263.117,453.605 L262.534,453.944 L261.952,454.254 L261.371,454.533 L260.793,454.783 L260.218,455.004 L259.645,455.197 L259.073,455.361 L258.503,455.496 L257.934,455.604 L257.365,455.684 L256.797,455.736 L256.227,455.761 L255.971,455.762 L255.971,455.762 C254.663,455.778 253.615,456.852 253.631,458.16 C253.647,459.468 254.721,460.516 256.028,460.5 C256.028,460.5 256.028,460.5 256.028,460.5 L256.456,460.493 L257.253,460.452 L258.046,460.372 L258.834,460.255 L259.618,460.101 L260.395,459.91 L261.167,459.684 L261.932,459.421 L262.69,459.125 L263.441,458.794 L264.185,458.431 L264.922,458.036 L265.652,457.608 L266.373,457.149 L267.089,456.659 L267.797,456.139 L268.499,455.59 L269.194,455.01 L269.882,454.402 L270.564,453.765 L271.24,453.099 L271.91,452.405 L272.574,451.684 L273.232,450.934 L273.885,450.158 L274.533,449.353 L275.175,448.523 L275.812,447.665 L276.444,446.78 L277.071,445.87 L277.692,444.933 L278.309,443.969 L278.921,442.98 L279.528,441.965 L280.129,440.925 L280.727,439.858 L281.319,438.767 L281.911,437.644 L282.785,435.917 L283.932,433.537 L285.059,431.059 L286.167,428.485 L287.257,425.816 L288.326,423.054 L289.376,420.201 L290.406,417.257 L291.416,414.224 L292.405,411.103 L293.374,407.898 L294.321,404.607 L295.247,401.233 L296.151,397.777 L297.033,394.241 L297.893,390.627 L298.729,386.937 L299.543,383.171 L300.333,379.33 L301.098,375.417 L301.84,371.433 L302.556,367.381 L303.247,363.26 L303.913,359.073 L304.553,354.822 L305.166,350.507 L305.753,346.13 L306.312,341.694 L306.844,337.199 L307.348,332.648 L307.823,328.041 L308.27,323.38 L308.687,318.667 L309.075,313.903 L309.433,309.091 L309.76,304.231 L310.056,299.325 L310.321,294.374 L310.554,289.382 L310.755,284.347 L310.924,279.273 L311.06,274.161 L311.163,269.013 L311.232,263.829 L311.266,258.617 L311.27,256.004 L311.27,256.004 C311.27,256.001 311.27,255.998 311.27,255.996 L311.27,255.996 L311.265,253.371 L311.232,248.155 L311.162,242.972 L311.06,237.823 L310.924,232.711 L310.755,227.637 L310.554,222.602 L310.32,217.609 L310.055,212.659 L309.759,207.753 L309.431,202.892 L309.074,198.08 L308.686,193.316 L308.268,188.603 L307.821,183.942 L307.346,179.335 L306.842,174.783 L306.31,170.288 L305.75,165.851 L305.164,161.474 L304.55,157.159 L303.911,152.907 L303.244,148.72 L302.552,144.599 L301.836,140.545 L301.094,136.561 L300.328,132.648 L299.538,128.806 L298.725,125.039 L297.887,121.348 L297.027,117.733 L296.144,114.197 L295.239,110.74 L294.313,107.365 L293.365,104.073 L292.395,100.865 L291.405,97.744 L290.395,94.709 L289.363,91.764 L288.312,88.908 L287.241,86.144 L286.15,83.473 L285.04,80.897 L283.91,78.416 L282.764,76.039 L281.893,74.323 L281.305,73.206 L280.711,72.114 L280.114,71.047 L279.51,70.005 L278.902,68.99 L278.289,68 L277.671,67.035 L277.048,66.097 L276.42,65.185 L275.786,64.3 L275.148,63.441 L274.504,62.608 L273.854,61.804 L273.198,61.026 L272.538,60.275 L271.871,59.553 L271.198,58.858 L270.519,58.192 L269.833,57.554 L269.142,56.945 L268.443,56.365 L267.738,55.815 L267.025,55.295 L266.305,54.806 L265.578,54.348 L264.845,53.921 L264.103,53.527 L263.355,53.165 L262.599,52.837 L261.836,52.544 L261.067,52.285 L260.291,52.062 L259.51,51.876 L258.724,51.726 L257.934,51.614 L257.139,51.54 L256.371,51.504 L256.028,51.5 L256.028,51.5 C256.009,51.5 255.99,51.5 255.971,51.5 L255.971,51.5 L255.544,51.507 L254.747,51.548 L253.954,51.628 L253.165,51.745 L252.382,51.899 L251.604,52.09 L250.833,52.316 L250.068,52.578 L249.31,52.875 L248.559,53.205 L247.814,53.569 L247.078,53.964 L246.348,54.392 L245.626,54.851 L244.911,55.34 L244.203,55.861 L243.501,56.41 L242.806,56.99 L242.118,57.598 L241.435,58.235 L240.76,58.901 L240.09,59.595 L239.426,60.316 L238.767,61.066 L238.114,61.842 L237.467,62.646 L236.825,63.477 L236.188,64.334 L235.556,65.22 L234.929,66.13 L234.308,67.067 L233.691,68.03 L233.079,69.02 L232.472,70.035 L231.87,71.075 L231.273,72.142 L230.681,73.233 L230.089,74.356 L229.214,76.083 L228.068,78.463 L226.94,80.941 L225.833,83.515 L224.743,86.184 L223.674,88.946 L222.624,91.799 L221.594,94.743 L220.584,97.776 L219.595,100.897 L218.626,104.103 L217.679,107.393 L216.752,110.768 L215.848,114.223 L214.966,117.759 L214.107,121.373 L213.27,125.063 L212.457,128.829 L211.667,132.67 L210.902,136.583 L210.16,140.566 L209.443,144.619 L208.753,148.74 L208.087,152.927 L207.447,157.178 L206.834,161.493 L206.247,165.87 L205.687,170.306 L205.156,174.801 L204.652,179.352 L204.177,183.959 L203.73,188.62 L203.312,193.333 L202.925,198.096 L202.567,202.909 L202.24,207.769 L201.944,212.675 L201.679,217.626 L201.446,222.618 L201.244,227.653 L201.075,232.726 L200.94,237.839 L200.837,242.987 L200.768,248.17 L200.734,253.383 L200.73,255.996 L200.73,255.996 C200.73,255.998 200.73,256.001 200.73,256.004 L200.73,256.004 L200.734,258.628 L200.768,263.845 L200.838,269.028 L200.94,274.177 L201.076,279.289 L201.244,284.363 L201.446,289.397 L201.679,294.391 L201.945,299.341 L202.241,304.247 L202.569,309.108 L202.926,313.92 L203.314,318.684 L203.732,323.396 L204.178,328.058 L204.654,332.665 L205.158,337.217 L205.69,341.712 L206.25,346.149 L206.836,350.526 L207.45,354.841 L208.089,359.092 L208.756,363.28 L209.447,367.401 L210.164,371.455 L210.906,375.439 L211.672,379.352 L212.462,383.193 L213.275,386.96 L214.113,390.652 L214.973,394.267 L215.856,397.803 L216.76,401.26 L217.687,404.635 L218.635,407.927 L219.604,411.135 L220.595,414.256 L221.605,417.291 L222.636,420.236 L223.688,423.092 L224.759,425.856 L225.85,428.527 L226.96,431.103 L228.09,433.584 L229.236,435.961 L230.107,437.676 L230.695,438.794 L231.289,439.886 L231.886,440.953 L232.49,441.995 L233.097,443.01 L233.711,444 L234.328,444.965 L234.952,445.903 L235.58,446.815 L236.214,447.7 L236.852,448.559 L237.496,449.391 L238.146,450.196 L238.801,450.974 L239.462,451.725 L240.129,452.447 L240.802,453.142 L241.481,453.808 L242.167,454.445 L242.858,455.055 L243.557,455.635 L244.262,456.185 L244.975,456.704 L245.694,457.194 L246.422,457.652 L247.155,458.079 L247.896,458.473 L248.645,458.835 L249.401,459.162 L250.163,459.456 L250.933,459.715 L251.709,459.938 L252.489,460.124 L253.276,460.274 L254.066,460.386 L254.861,460.46 L255.629,460.496 L255.971,460.5 C257.279,460.516 258.353,459.468 258.369,458.16 C258.384,456.852 257.337,455.778 256.028,455.762 L256.028,455.762" fill="#000000"/>
    </g>
    <g>
      <path d="M455.762,255.993 L455.759,257.3 L455.725,259.885 L455.66,262.456 L455.563,265.018 L455.433,267.573 L455.271,270.118 L455.078,272.654 L454.854,275.182 L454.598,277.701 L454.31,280.209 L453.993,282.709 L453.644,285.198 L453.265,287.678 L452.856,290.147 L452.416,292.607 L451.947,295.055 L451.447,297.494 L450.919,299.921 L450.361,302.337 L449.774,304.742 L449.158,307.135 L448.513,309.517 L447.841,311.886 L447.139,314.244 L446.409,316.59 L445.652,318.922 L444.866,321.243 L444.053,323.55 L443.213,325.844 L442.346,328.125 L441.451,330.393 L440.53,332.647 L439.582,334.888 L438.608,337.114 L437.608,339.326 L436.581,341.524 L435.53,343.707 L434.452,345.875 L433.349,348.028 L432.22,350.166 L431.067,352.289 L429.889,354.396 L428.686,356.488 L427.459,358.563 L426.208,360.622 L424.932,362.665 L423.633,364.691 L422.31,366.701 L420.964,368.694 L419.594,370.669 L418.202,372.626 L416.786,374.567 L415.347,376.49 L413.887,378.395 L412.404,380.281 L410.899,382.15 L409.373,384 L407.823,385.831 L406.254,387.643 L404.663,389.437 L403.05,391.21 L401.417,392.964 L399.763,394.699 L398.088,396.413 L396.394,398.108 L394.679,399.782 L392.944,401.436 L391.189,403.069 L389.415,404.681 L387.622,406.272 L385.81,407.842 L383.978,409.391 L382.128,410.917 L380.259,412.422 L378.373,413.904 L376.468,415.365 L374.544,416.802 L372.604,418.218 L370.645,419.61 L368.67,420.979 L366.677,422.326 L364.668,423.648 L362.641,424.948 L360.598,426.223 L358.538,427.474 L356.463,428.701 L354.372,429.903 L352.264,431.081 L350.141,432.234 L348.003,433.362 L345.849,434.464 L343.681,435.542 L341.497,436.594 L339.299,437.62 L337.088,438.62 L334.861,439.594 L332.62,440.541 L330.366,441.462 L328.098,442.356 L325.817,443.223 L323.522,444.063 L321.215,444.876 L318.894,445.661 L316.561,446.418 L314.216,447.147 L311.858,447.849 L309.488,448.521 L307.107,449.166 L304.713,449.781 L302.309,450.368 L299.892,450.926 L297.464,451.454 L295.026,451.953 L292.578,452.422 L290.118,452.861 L287.648,453.27 L285.169,453.649 L282.679,453.997 L280.18,454.314 L277.671,454.601 L275.152,454.857 L272.624,455.081 L270.088,455.274 L267.543,455.435 L264.988,455.564 L262.426,455.661 L259.855,455.726 L257.277,455.759 L255.993,455.762 L256.007,455.762 L254.7,455.759 L252.114,455.725 L249.544,455.66 L246.981,455.563 L244.427,455.433 L241.882,455.271 L239.345,455.078 L236.818,454.854 L234.299,454.598 L231.791,454.31 L229.291,453.993 L226.801,453.644 L224.321,453.265 L221.852,452.856 L219.393,452.416 L216.944,451.947 L214.506,451.447 L212.079,450.919 L209.663,450.361 L207.258,449.774 L204.865,449.158 L202.483,448.513 L200.114,447.841 L197.756,447.139 L195.41,446.409 L193.078,445.652 L190.757,444.866 L188.45,444.053 L186.156,443.213 L183.875,442.346 L181.607,441.451 L179.353,440.53 L177.112,439.582 L174.886,438.608 L172.674,437.608 L170.476,436.581 L168.293,435.53 L166.125,434.452 L163.972,433.349 L161.834,432.22 L159.71,431.067 L157.604,429.889 L155.512,428.686 L153.437,427.459 L151.378,426.208 L149.335,424.932 L147.309,423.633 L145.299,422.31 L143.306,420.964 L141.331,419.594 L139.373,418.202 L137.433,416.786 L135.51,415.347 L133.605,413.887 L131.718,412.404 L129.849,410.899 L127.999,409.373 L126.168,407.823 L124.356,406.254 L122.563,404.663 L120.79,403.05 L119.035,401.417 L117.301,399.763 L115.587,398.088 L113.891,396.393 L112.217,394.679 L110.564,392.944 L108.93,391.189 L107.319,389.415 L105.727,387.622 L104.157,385.81 L102.609,383.978 L101.083,382.128 L99.578,380.259 L98.096,378.373 L96.635,376.468 L95.197,374.544 L93.782,372.604 L92.39,370.645 L91.021,368.67 L89.674,366.677 L88.352,364.668 L87.052,362.641 L85.777,360.598 L84.526,358.538 L83.299,356.463 L82.097,354.372 L80.919,352.264 L79.766,350.141 L78.638,348.003 L77.535,345.849 L76.458,343.681 L75.406,341.497 L74.38,339.299 L73.38,337.088 L72.406,334.861 L71.459,332.62 L70.538,330.366 L69.644,328.098 L68.777,325.817 L67.937,323.522 L67.124,321.215 L66.339,318.894 L65.582,316.561 L64.852,314.216 L64.151,311.858 L63.479,309.488 L62.834,307.107 L62.218,304.713 L61.632,302.309 L61.074,299.892 L60.546,297.464 L60.047,295.026 L59.578,292.578 L59.139,290.118 L58.73,287.648 L58.351,285.169 L58.003,282.679 L57.685,280.18 L57.399,277.671 L57.143,275.152 L56.919,272.624 L56.726,270.088 L56.565,267.543 L56.436,264.988 L56.338,262.426 L56.274,259.855 L56.241,257.277 L56.237,255.993 L56.237,256.007 L56.241,254.7 L56.274,252.114 L56.34,249.544 L56.437,246.981 L56.567,244.427 L56.728,241.882 L56.922,239.345 L57.146,236.818 L57.402,234.299 L57.689,231.791 L58.007,229.291 L58.356,226.801 L58.735,224.321 L59.144,221.852 L59.584,219.393 L60.053,216.944 L60.552,214.506 L61.081,212.079 L61.639,209.663 L62.225,207.258 L62.841,204.865 L63.486,202.483 L64.159,200.114 L64.861,197.756 L65.591,195.41 L66.348,193.078 L67.133,190.757 L67.947,188.45 L68.787,186.156 L69.654,183.875 L70.548,181.607 L71.47,179.353 L72.417,177.112 L73.392,174.886 L74.392,172.674 L75.419,170.476 L76.47,168.293 L77.548,166.125 L78.651,163.972 L79.779,161.834 L80.933,159.71 L82.111,157.604 L83.313,155.512 L84.541,153.437 L85.792,151.378 L87.068,149.335 L88.367,147.309 L89.69,145.299 L91.036,143.306 L92.406,141.331 L93.798,139.373 L95.214,137.433 L96.653,135.51 L98.113,133.605 L99.596,131.718 L101.101,129.849 L102.627,127.999 L104.176,126.168 L105.746,124.356 L107.337,122.563 L108.95,120.79 L110.583,119.035 L112.237,117.301 L113.912,115.587 L115.606,113.891 L117.321,112.217 L119.056,110.564 L120.81,108.93 L122.585,107.319 L124.378,105.727 L126.191,104.157 L128.022,102.609 L129.872,101.083 L131.741,99.578 L133.627,98.096 L135.532,96.635 L137.455,95.197 L139.396,93.782 L141.354,92.39 L143.33,91.021 L145.323,89.674 L147.332,88.352 L149.359,87.052 L151.402,85.777 L153.462,84.526 L155.537,83.299 L157.628,82.097 L159.736,80.919 L161.859,79.766 L163.997,78.638 L166.151,77.535 L168.319,76.458 L170.502,75.406 L172.701,74.38 L174.912,73.38 L177.139,72.406 L179.38,71.459 L181.634,70.538 L183.901,69.644 L186.183,68.777 L188.478,67.936 L190.785,67.124 L193.106,66.339 L195.439,65.582 L197.784,64.852 L200.142,64.151 L202.512,63.479 L204.893,62.834 L207.287,62.218 L209.691,61.632 L212.108,61.074 L214.535,60.546 L216.974,60.047 L219.422,59.578 L221.882,59.139 L224.351,58.73 L226.831,58.351 L229.321,58.003 L231.82,57.685 L234.329,57.399 L236.848,57.143 L239.375,56.919 L241.912,56.726 L244.457,56.565 L247.011,56.436 L249.574,56.338 L252.144,56.274 L254.722,56.241 L256.007,56.237 L255.993,56.237 L257.3,56.241 L259.885,56.274 L262.456,56.34 L265.018,56.437 L267.573,56.567 L270.118,56.728 L272.654,56.922 L275.182,57.146 L277.701,57.402 L280.209,57.689 L282.709,58.007 L285.198,58.356 L287.678,58.735 L290.147,59.144 L292.607,59.584 L295.055,60.053 L297.494,60.552 L299.921,61.081 L302.337,61.639 L304.742,62.225 L307.135,62.841 L309.517,63.486 L311.886,64.159 L314.244,64.861 L316.59,65.591 L318.922,66.348 L321.243,67.133 L323.55,67.947 L325.844,68.787 L328.125,69.654 L330.393,70.548 L332.647,71.47 L334.888,72.417 L337.114,73.392 L339.326,74.392 L341.524,75.419 L343.707,76.47 L345.875,77.548 L348.028,78.651 L350.166,79.779 L352.289,80.933 L354.396,82.111 L356.488,83.313 L358.563,84.541 L360.622,85.792 L362.665,87.068 L364.691,88.367 L366.701,89.69 L368.694,91.036 L370.669,92.406 L372.627,93.798 L374.567,95.214 L376.49,96.653 L378.395,98.113 L380.281,99.596 L382.15,101.101 L384,102.627 L385.831,104.176 L387.643,105.746 L389.437,107.337 L391.21,108.95 L392.964,110.583 L394.699,112.237 L396.413,113.912 L398.108,115.606 L399.782,117.321 L401.436,119.056 L403.069,120.81 L404.681,122.585 L406.272,124.378 L407.842,126.191 L409.391,128.022 L410.917,129.872 L412.422,131.74 L413.904,133.627 L415.365,135.532 L416.802,137.455 L418.218,139.396 L419.61,141.354 L420.979,143.33 L422.326,145.323 L423.648,147.332 L424.948,149.359 L426.223,151.402 L427.474,153.462 L428.701,155.537 L429.903,157.628 L431.081,159.736 L432.234,161.859 L433.362,163.997 L434.464,166.151 L435.542,168.319 L436.594,170.502 L437.62,172.701 L438.62,174.912 L439.594,177.139 L440.541,179.38 L441.462,181.634 L442.356,183.901 L443.223,186.182 L444.063,188.478 L444.876,190.785 L445.661,193.105 L446.418,195.439 L447.147,197.784 L447.849,200.142 L448.521,202.512 L449.166,204.893 L449.781,207.287 L450.368,209.691 L450.926,212.108 L451.454,214.535 L451.953,216.974 L452.422,219.422 L452.861,221.882 L453.27,224.351 L453.649,226.831 L453.997,229.321 L454.314,231.82 L454.601,234.329 L454.857,236.848 L455.081,239.375 L455.274,241.912 L455.435,244.457 L455.564,247.011 L455.661,249.574 L455.726,252.144 L455.759,254.722 L455.762,256.007 L455.762,256.007 C455.766,257.315 456.831,258.373 458.139,258.369 C459.447,258.365 460.504,257.3 460.5,255.993 L460.496,254.662 L460.462,252.024 L460.395,249.394 L460.295,246.771 L460.163,244.158 L459.997,241.552 L459.8,238.956 L459.57,236.369 L459.308,233.792 L459.014,231.223 L458.689,228.664 L458.332,226.115 L457.943,223.577 L457.525,221.049 L457.075,218.531 L456.594,216.024 L456.083,213.527 L455.541,211.042 L454.971,208.569 L454.37,206.107 L453.739,203.656 L453.079,201.218 L452.389,198.791 L451.671,196.377 L450.924,193.976 L450.149,191.587 L449.344,189.211 L448.512,186.849 L447.651,184.499 L446.764,182.164 L445.848,179.841 L444.904,177.533 L443.934,175.24 L442.937,172.961 L441.913,170.696 L440.862,168.445 L439.785,166.211 L438.682,163.991 L437.552,161.786 L436.397,159.598 L435.216,157.425 L434.01,155.267 L432.779,153.126 L431.523,151.001 L430.241,148.893 L428.936,146.802 L427.605,144.727 L426.251,142.671 L424.873,140.631 L423.471,138.609 L422.045,136.604 L420.596,134.618 L419.125,132.65 L417.629,130.7 L416.112,128.769 L414.571,126.856 L413.008,124.963 L411.423,123.088 L409.816,121.234 L408.187,119.398 L406.536,117.583 L404.865,115.787 L403.172,114.011 L401.458,112.256 L399.723,110.522 L397.968,108.808 L396.192,107.115 L394.397,105.444 L392.581,103.794 L390.745,102.165 L388.89,100.559 L387.016,98.974 L385.122,97.411 L383.209,95.871 L381.278,94.353 L379.328,92.859 L377.359,91.387 L375.373,89.938 L373.368,88.513 L371.346,87.111 L369.306,85.733 L367.248,84.379 L365.174,83.049 L363.082,81.744 L360.974,80.463 L358.849,79.207 L356.708,77.976 L354.551,76.77 L352.377,75.59 L350.188,74.435 L347.983,73.306 L345.763,72.203 L343.527,71.126 L341.278,70.075 L339.013,69.051 L336.733,68.054 L334.439,67.085 L332.131,66.142 L329.809,65.226 L327.473,64.338 L325.124,63.478 L322.761,62.646 L320.385,61.843 L317.997,61.067 L315.595,60.32 L313.18,59.602 L310.754,58.913 L308.316,58.253 L305.865,57.623 L303.403,57.022 L300.928,56.451 L298.444,55.91 L295.947,55.4 L293.44,54.92 L290.922,54.47 L288.394,54.052 L285.855,53.664 L283.306,53.307 L280.748,52.983 L278.179,52.689 L275.601,52.428 L273.014,52.198 L270.418,52 L267.812,51.835 L265.198,51.703 L262.576,51.603 L259.945,51.537 L257.315,51.504 L256.007,51.5 L256.007,51.5 C256.002,51.5 255.998,51.5 255.993,51.5 L255.993,51.5 L254.662,51.504 L252.024,51.538 L249.394,51.605 L246.771,51.704 L244.158,51.837 L241.552,52.003 L238.956,52.2 L236.369,52.43 L233.792,52.692 L231.223,52.986 L228.664,53.311 L226.115,53.668 L223.577,54.057 L221.049,54.476 L218.531,54.925 L216.024,55.406 L213.527,55.917 L211.042,56.458 L208.569,57.029 L206.107,57.63 L203.656,58.261 L201.218,58.921 L198.791,59.61 L196.377,60.329 L193.976,61.076 L191.587,61.851 L189.211,62.656 L186.849,63.488 L184.499,64.349 L182.164,65.236 L179.841,66.152 L177.534,67.096 L175.24,68.066 L172.961,69.063 L170.696,70.087 L168.445,71.138 L166.211,72.215 L163.991,73.318 L161.786,74.448 L159.598,75.603 L157.425,76.784 L155.267,77.99 L153.126,79.221 L151.001,80.477 L148.893,81.759 L146.802,83.064 L144.727,84.394 L142.671,85.749 L140.631,87.127 L138.609,88.529 L136.604,89.955 L134.618,91.403 L132.65,92.875 L130.7,94.371 L128.769,95.888 L126.856,97.429 L124.963,98.992 L123.088,100.577 L121.234,102.184 L119.398,103.812 L117.583,105.463 L115.787,107.135 L114.011,108.828 L112.256,110.542 L110.522,112.277 L108.808,114.032 L107.115,115.808 L105.444,117.603 L103.794,119.419 L102.165,121.255 L100.559,123.11 L98.974,124.984 L97.411,126.878 L95.871,128.791 L94.353,130.722 L92.859,132.672 L91.387,134.641 L89.938,136.627 L88.513,138.632 L87.111,140.654 L85.733,142.694 L84.379,144.752 L83.049,146.826 L81.744,148.918 L80.463,151.026 L79.207,153.151 L77.976,155.292 L76.77,157.449 L75.59,159.623 L74.435,161.812 L73.306,164.017 L72.203,166.237 L71.126,168.472 L70.075,170.722 L69.051,172.987 L68.054,175.267 L67.085,177.56 L66.142,179.869 L65.226,182.191 L64.338,184.527 L63.478,186.876 L62.646,189.239 L61.843,191.615 L61.067,194.003 L60.32,196.405 L59.602,198.82 L58.913,201.246 L58.253,203.684 L57.623,206.135 L57.022,208.597 L56.451,211.071 L55.91,213.556 L55.4,216.053 L54.92,218.56 L54.47,221.078 L54.052,223.606 L53.664,226.145 L53.307,228.694 L52.983,231.252 L52.689,233.821 L52.428,236.399 L52.198,238.986 L52,241.582 L51.835,244.188 L51.703,246.801 L51.603,249.424 L51.537,252.054 L51.504,254.685 L51.5,255.993 L51.5,255.993 C51.5,255.998 51.5,256.002 51.5,256.007 L51.5,256.007 L51.504,257.337 L51.538,259.975 L51.605,262.606 L51.704,265.228 L51.837,267.842 L52.003,270.448 L52.2,273.044 L52.43,275.631 L52.692,278.208 L52.986,280.777 L53.311,283.336 L53.668,285.885 L54.057,288.423 L54.476,290.951 L54.925,293.469 L55.406,295.976 L55.917,298.473 L56.458,300.958 L57.029,303.431 L57.63,305.893 L58.261,308.344 L58.921,310.782 L59.61,313.209 L60.329,315.623 L61.076,318.024 L61.851,320.413 L62.656,322.789 L63.488,325.151 L64.349,327.501 L65.236,329.836 L66.152,332.158 L67.096,334.466 L68.066,336.76 L69.063,339.039 L70.087,341.304 L71.138,343.554 L72.215,345.789 L73.318,348.009 L74.448,350.214 L75.603,352.402 L76.784,354.575 L77.99,356.733 L79.221,358.874 L80.477,360.998 L81.759,363.107 L83.064,365.197 L84.394,367.272 L85.749,369.329 L87.127,371.369 L88.529,373.391 L89.955,375.396 L91.403,377.382 L92.875,379.35 L94.371,381.3 L95.888,383.231 L97.429,385.144 L98.992,387.037 L100.577,388.911 L102.184,390.766 L103.812,392.602 L105.463,394.417 L107.135,396.213 L108.828,397.988 L110.542,399.744 L112.277,401.478 L114.032,403.192 L115.808,404.885 L117.603,406.556 L119.419,408.206 L121.255,409.834 L123.11,411.441 L124.984,413.026 L126.878,414.588 L128.791,416.129 L130.722,417.647 L132.672,419.141 L134.641,420.613 L136.627,422.062 L138.632,423.487 L140.654,424.889 L142.694,426.267 L144.752,427.621 L146.826,428.951 L148.918,430.256 L151.026,431.537 L153.151,432.793 L155.292,434.024 L157.449,435.23 L159.623,436.41 L161.812,437.565 L164.017,438.694 L166.237,439.797 L168.472,440.874 L170.722,441.924 L172.987,442.948 L175.267,443.946 L177.56,444.915 L179.869,445.859 L182.191,446.774 L184.527,447.661 L186.876,448.522 L189.239,449.353 L191.615,450.157 L194.003,450.933 L196.405,451.68 L198.82,452.397 L201.246,453.087 L203.684,453.747 L206.135,454.377 L208.597,454.978 L211.072,455.548 L213.556,456.089 L216.053,456.599 L218.56,457.08 L221.078,457.53 L223.606,457.948 L226.145,458.336 L228.694,458.693 L231.252,459.017 L233.821,459.311 L236.399,459.572 L238.986,459.802 L241.582,459.999 L244.188,460.164 L246.801,460.297 L249.424,460.396 L252.054,460.463 L254.685,460.496 L255.993,460.5 L255.993,460.5 C255.998,460.5 256.002,460.5 256.007,460.5 L256.007,460.5 L257.337,460.496 L259.975,460.462 L262.606,460.395 L265.228,460.295 L267.842,460.163 L270.448,459.997 L273.044,459.8 L275.631,459.57 L278.208,459.308 L280.777,459.014 L283.336,458.689 L285.885,458.332 L288.423,457.943 L290.951,457.525 L293.469,457.075 L295.976,456.594 L298.473,456.083 L300.958,455.541 L303.431,454.971 L305.893,454.37 L308.344,453.739 L310.782,453.079 L313.209,452.389 L315.623,451.671 L318.024,450.924 L320.413,450.149 L322.789,449.344 L325.151,448.512 L327.501,447.651 L329.836,446.764 L332.158,445.848 L334.466,444.904 L336.76,443.934 L339.039,442.937 L341.304,441.913 L343.554,440.862 L345.789,439.785 L348.009,438.682 L350.214,437.552 L352.402,436.397 L354.575,435.216 L356.733,434.01 L358.874,432.779 L360.998,431.522 L363.107,430.241 L365.197,428.936 L367.272,427.605 L369.329,426.251 L371.369,424.873 L373.391,423.471 L375.396,422.045 L377.382,420.596 L379.35,419.125 L381.3,417.629 L383.231,416.112 L385.144,414.571 L387.037,413.008 L388.911,411.423 L390.766,409.815 L392.602,408.187 L394.417,406.536 L396.213,404.865 L397.988,403.172 L399.744,401.458 L401.478,399.723 L403.192,397.968 L404.885,396.192 L406.556,394.397 L408.206,392.581 L409.834,390.745 L411.441,388.89 L413.026,387.016 L414.589,385.122 L416.129,383.209 L417.647,381.278 L419.141,379.328 L420.613,377.359 L422.062,375.373 L423.487,373.368 L424.889,371.346 L426.267,369.306 L427.621,367.248 L428.951,365.174 L430.256,363.082 L431.537,360.974 L432.793,358.849 L434.024,356.708 L435.23,354.551 L436.41,352.377 L437.565,350.188 L438.694,347.983 L439.797,345.763 L440.874,343.527 L441.924,341.278 L442.948,339.013 L443.946,336.733 L444.915,334.439 L445.859,332.131 L446.774,329.809 L447.661,327.473 L448.522,325.124 L449.353,322.761 L450.157,320.385 L450.933,317.997 L451.68,315.595 L452.397,313.18 L453.087,310.754 L453.747,308.316 L454.377,305.865 L454.978,303.403 L455.548,300.928 L456.089,298.444 L456.599,295.947 L457.08,293.44 L457.53,290.922 L457.948,288.394 L458.336,285.855 L458.693,283.306 L459.017,280.748 L459.311,278.179 L459.572,275.601 L459.802,273.014 L459.999,270.418 L460.164,267.812 L460.297,265.198 L460.396,262.576 L460.463,259.945 L460.496,257.315 L460.5,256.007 C460.504,254.699 459.447,253.635 458.139,253.631 C456.831,253.627 455.766,254.684 455.762,255.993 L455.762,255.993" fill="#000000"/>
      <path d="M455.762,255.989 L455.759,256.877 L455.725,258.617 L455.661,260.341 L455.564,262.058 L455.436,263.771 L455.277,265.478 L455.086,267.179 L454.864,268.873 L454.611,270.562 L454.328,272.245 L454.014,273.921 L453.67,275.591 L453.296,277.254 L452.892,278.912 L452.457,280.562 L451.993,282.206 L451.5,283.843 L450.978,285.472 L450.427,287.095 L449.846,288.71 L449.237,290.318 L448.599,291.918 L447.934,293.512 L447.239,295.097 L446.517,296.674 L445.767,298.244 L444.99,299.805 L444.184,301.358 L443.352,302.902 L442.492,304.439 L441.606,305.966 L440.693,307.485 L439.753,308.995 L438.787,310.496 L437.794,311.987 L436.776,313.469 L435.731,314.942 L434.661,316.406 L433.565,317.859 L432.444,319.303 L431.298,320.736 L430.127,322.159 L428.931,323.573 L427.71,324.976 L426.466,326.368 L425.197,327.749 L423.904,329.119 L422.587,330.479 L421.246,331.828 L419.883,333.165 L418.495,334.491 L417.084,335.805 L415.651,337.107 L414.195,338.398 L412.717,339.676 L411.216,340.942 L409.693,342.196 L408.149,343.438 L406.582,344.667 L404.994,345.883 L403.384,347.087 L401.754,348.277 L400.102,349.454 L398.43,350.618 L396.737,351.768 L395.024,352.905 L393.29,354.029 L391.537,355.137 L389.763,356.233 L387.971,357.314 L386.159,358.381 L384.327,359.434 L382.477,360.471 L380.608,361.494 L378.72,362.502 L376.814,363.495 L374.89,364.473 L372.948,365.436 L370.987,366.383 L369.009,367.315 L367.015,368.231 L365.002,369.131 L362.973,370.015 L360.927,370.883 L358.864,371.735 L356.785,372.57 L354.69,373.389 L352.578,374.191 L350.451,374.976 L348.308,375.745 L346.15,376.496 L343.977,377.231 L341.789,377.947 L339.585,378.645 L337.367,379.328 L335.135,379.991 L332.889,380.637 L330.628,381.264 L328.354,381.874 L326.066,382.465 L323.764,383.037 L321.45,383.591 L319.123,384.127 L316.782,384.643 L314.429,385.14 L312.064,385.618 L309.686,386.078 L307.297,386.517 L304.895,386.937 L302.482,387.337 L300.057,387.717 L297.622,388.078 L295.175,388.418 L292.718,388.738 L290.249,389.037 L287.771,389.317 L285.282,389.575 L282.783,389.812 L280.275,390.029 L277.756,390.225 L275.228,390.399 L272.692,390.552 L270.145,390.683 L267.591,390.794 L265.027,390.881 L262.455,390.948 L259.875,390.992 L257.287,391.015 L255.995,391.017 L256.005,391.017 L254.698,391.014 L252.104,390.992 L249.525,390.948 L246.952,390.881 L244.389,390.793 L241.834,390.683 L239.288,390.551 L236.751,390.397 L234.223,390.223 L231.705,390.027 L229.196,389.81 L226.697,389.572 L224.208,389.314 L221.73,389.035 L219.262,388.735 L216.805,388.415 L214.358,388.075 L211.922,387.714 L209.497,387.334 L207.084,386.934 L204.683,386.514 L202.293,386.074 L199.916,385.614 L197.55,385.136 L195.197,384.638 L192.857,384.122 L190.529,383.587 L188.215,383.032 L185.913,382.46 L183.625,381.868 L181.351,381.259 L179.091,380.63 L176.844,379.985 L174.612,379.321 L172.394,378.639 L170.19,377.94 L168.003,377.223 L165.829,376.489 L163.67,375.737 L161.528,374.969 L159.401,374.184 L157.289,373.381 L155.194,372.562 L153.114,371.726 L151.052,370.874 L149.005,370.006 L146.976,369.122 L144.964,368.221 L142.969,367.305 L140.991,366.373 L139.031,365.426 L137.088,364.462 L135.164,363.484 L133.258,362.491 L131.37,361.482 L129.501,360.459 L127.651,359.421 L125.819,358.368 L124.007,357.301 L122.214,356.22 L120.442,355.124 L118.688,354.015 L116.954,352.891 L115.242,351.754 L113.549,350.603 L111.876,349.439 L110.225,348.261 L108.594,347.07 L106.984,345.867 L105.396,344.65 L103.83,343.421 L102.285,342.179 L100.762,340.924 L99.261,339.657 L97.782,338.379 L96.326,337.088 L94.893,335.785 L93.483,334.47 L92.096,333.144 L90.732,331.806 L89.392,330.457 L88.075,329.097 L86.781,327.726 L85.512,326.344 L84.268,324.951 L83.047,323.548 L81.852,322.134 L80.681,320.71 L79.535,319.276 L78.414,317.832 L77.318,316.378 L76.248,314.914 L75.205,313.441 L74.186,311.958 L73.193,310.466 L72.228,308.964 L71.288,307.453 L70.375,305.934 L69.489,304.406 L68.63,302.869 L67.798,301.324 L66.993,299.771 L66.216,298.209 L65.466,296.639 L64.744,295.061 L64.051,293.476 L63.385,291.882 L62.748,290.281 L62.139,288.673 L61.56,287.056 L61.009,285.433 L60.487,283.803 L59.995,282.166 L59.531,280.522 L59.098,278.871 L58.695,277.213 L58.321,275.549 L57.978,273.879 L57.664,272.202 L57.381,270.519 L57.13,268.83 L56.908,267.135 L56.718,265.434 L56.56,263.727 L56.432,262.015 L56.337,260.297 L56.273,258.573 L56.241,256.844 L56.237,255.989 L56.237,256.011 L56.241,255.123 L56.274,253.382 L56.338,251.659 L56.436,249.941 L56.563,248.229 L56.723,246.522 L56.914,244.821 L57.136,243.127 L57.389,241.438 L57.672,239.755 L57.985,238.079 L58.33,236.409 L58.704,234.745 L59.108,233.088 L59.543,231.438 L60.007,229.794 L60.499,228.157 L61.022,226.527 L61.573,224.905 L62.154,223.289 L62.762,221.682 L63.4,220.081 L64.066,218.488 L64.761,216.903 L65.482,215.326 L66.233,213.756 L67.01,212.195 L67.816,210.642 L68.648,209.098 L69.508,207.561 L70.394,206.034 L71.307,204.515 L72.247,203.005 L73.213,201.504 L74.206,200.013 L75.224,198.531 L76.269,197.058 L77.339,195.594 L78.435,194.141 L79.556,192.697 L80.702,191.263 L81.872,189.841 L83.069,188.427 L84.289,187.024 L85.534,185.632 L86.803,184.25 L88.096,182.88 L89.413,181.521 L90.754,180.172 L92.117,178.835 L93.505,177.509 L94.915,176.195 L96.349,174.893 L97.805,173.602 L99.283,172.324 L100.784,171.057 L102.307,169.804 L103.851,168.562 L105.418,167.333 L107.006,166.117 L108.615,164.913 L110.246,163.723 L111.898,162.546 L113.57,161.382 L115.263,160.232 L116.976,159.095 L118.709,157.971 L120.463,156.862 L122.236,155.766 L124.029,154.686 L125.841,153.619 L127.673,152.566 L129.523,151.529 L131.392,150.506 L133.279,149.498 L135.185,148.505 L137.11,147.526 L139.052,146.564 L141.012,145.616 L142.99,144.685 L144.985,143.769 L146.997,142.869 L149.027,141.984 L151.073,141.117 L153.136,140.265 L155.215,139.429 L157.31,138.611 L159.421,137.808 L161.549,137.024 L163.691,136.255 L165.849,135.504 L168.023,134.77 L170.211,134.053 L172.415,133.354 L174.633,132.672 L176.865,132.009 L179.111,131.363 L181.372,130.735 L183.646,130.126 L185.934,129.535 L188.235,128.963 L190.55,128.408 L192.877,127.873 L195.218,127.357 L197.571,126.859 L199.936,126.382 L202.314,125.922 L204.703,125.483 L207.105,125.063 L209.518,124.663 L211.942,124.283 L214.378,123.922 L216.824,123.582 L219.282,123.262 L221.751,122.963 L224.229,122.683 L226.718,122.425 L229.217,122.187 L231.725,121.971 L234.244,121.775 L236.771,121.601 L239.308,121.448 L241.855,121.317 L244.409,121.206 L246.973,121.118 L249.544,121.052 L252.125,121.008 L254.713,120.985 L256.005,120.983 L255.995,120.983 L257.302,120.986 L259.896,121.008 L262.475,121.052 L265.048,121.119 L267.611,121.207 L270.166,121.317 L272.712,121.449 L275.249,121.602 L277.776,121.777 L280.295,121.973 L282.804,122.19 L285.303,122.427 L287.791,122.686 L290.27,122.965 L292.738,123.264 L295.195,123.585 L297.642,123.925 L300.078,124.286 L302.503,124.666 L304.916,125.066 L307.317,125.486 L309.707,125.926 L312.084,126.386 L314.45,126.864 L316.803,127.362 L319.143,127.878 L321.471,128.413 L323.785,128.967 L326.087,129.54 L328.375,130.131 L330.649,130.741 L332.909,131.369 L335.156,132.015 L337.388,132.679 L339.606,133.361 L341.809,134.059 L343.997,134.776 L346.171,135.511 L348.329,136.262 L350.472,137.031 L352.599,137.816 L354.711,138.618 L356.806,139.438 L358.886,140.273 L360.948,141.125 L362.994,141.994 L365.024,142.878 L367.036,143.778 L369.031,144.695 L371.009,145.627 L372.969,146.574 L374.912,147.538 L376.836,148.516 L378.742,149.509 L380.63,150.517 L382.499,151.541 L384.349,152.579 L386.18,153.631 L387.992,154.699 L389.786,155.78 L391.558,156.876 L393.312,157.985 L395.046,159.109 L396.758,160.246 L398.451,161.397 L400.124,162.561 L401.775,163.739 L403.406,164.93 L405.016,166.133 L406.604,167.35 L408.17,168.579 L409.715,169.821 L411.238,171.076 L412.739,172.343 L414.217,173.621 L415.673,174.912 L417.106,176.215 L418.517,177.53 L419.904,178.856 L421.268,180.194 L422.608,181.543 L423.925,182.903 L425.219,184.274 L426.487,185.656 L427.732,187.049 L428.952,188.452 L430.148,189.866 L431.319,191.289 L432.465,192.723 L433.586,194.168 L434.682,195.622 L435.751,197.086 L436.795,198.559 L437.814,200.042 L438.806,201.534 L439.772,203.036 L440.712,204.546 L441.624,206.066 L442.511,207.593 L443.37,209.131 L444.202,210.676 L445.007,212.229 L445.784,213.791 L446.534,215.361 L447.256,216.939 L447.949,218.524 L448.614,220.118 L449.252,221.719 L449.86,223.327 L450.44,224.944 L450.991,226.567 L451.513,228.197 L452.005,229.834 L452.468,231.478 L452.902,233.129 L453.305,234.786 L453.679,236.451 L454.022,238.121 L454.336,239.798 L454.618,241.48 L454.87,243.17 L455.091,244.865 L455.282,246.566 L455.44,248.272 L455.567,249.985 L455.663,251.703 L455.727,253.427 L455.759,255.156 L455.762,256.011 L455.762,256.011 C455.769,257.319 456.834,258.375 458.142,258.369 C459.451,258.362 460.506,257.297 460.5,255.989 C460.5,255.989 460.5,255.989 460.5,255.989 L460.495,255.067 L460.461,253.25 L460.393,251.439 L460.291,249.633 L460.157,247.833 L459.99,246.039 L459.789,244.251 L459.556,242.47 L459.29,240.695 L458.993,238.927 L458.663,237.165 L458.301,235.412 L457.908,233.664 L457.484,231.925 L457.028,230.193 L456.542,228.468 L456.025,226.752 L455.477,225.043 L454.899,223.342 L454.291,221.65 L453.653,219.967 L452.986,218.291 L452.289,216.625 L451.564,214.967 L450.809,213.319 L450.025,211.679 L449.213,210.05 L448.373,208.429 L447.505,206.818 L446.609,205.216 L445.685,203.625 L444.734,202.043 L443.755,200.471 L442.75,198.91 L441.718,197.36 L440.66,195.819 L439.575,194.29 L438.464,192.771 L437.328,191.263 L436.166,189.766 L434.978,188.28 L433.765,186.805 L432.527,185.342 L431.264,183.891 L429.977,182.451 L428.664,181.023 L427.328,179.607 L425.969,178.203 L424.585,176.811 L423.177,175.432 L421.747,174.064 L420.292,172.709 L418.816,171.368 L417.316,170.038 L415.794,168.722 L414.25,167.419 L412.683,166.129 L411.095,164.852 L409.485,163.589 L407.853,162.339 L406.2,161.103 L404.525,159.881 L402.83,158.673 L401.114,157.478 L399.378,156.299 L397.621,155.133 L395.845,153.982 L394.048,152.845 L392.232,151.723 L390.396,150.616 L388.541,149.524 L386.667,148.447 L384.773,147.385 L382.862,146.339 L380.931,145.308 L378.982,144.292 L377.015,143.293 L375.031,142.309 L373.028,141.341 L371.008,140.389 L368.971,139.454 L366.916,138.535 L364.844,137.632 L362.756,136.746 L360.652,135.878 L358.53,135.025 L356.394,134.191 L354.24,133.373 L352.072,132.571 L349.887,131.788 L347.687,131.023 L345.472,130.274 L343.242,129.544 L340.998,128.832 L338.739,128.138 L336.465,127.462 L334.177,126.804 L331.875,126.165 L329.56,125.545 L327.231,124.943 L324.888,124.36 L322.533,123.797 L320.164,123.252 L317.783,122.726 L315.389,122.221 L312.982,121.733 L310.564,121.267 L308.133,120.82 L305.691,120.393 L303.237,119.986 L300.771,119.599 L298.295,119.233 L295.807,118.887 L293.309,118.562 L290.8,118.257 L288.281,117.973 L285.751,117.711 L283.211,117.47 L280.661,117.249 L278.103,117.05 L275.534,116.874 L272.956,116.718 L270.369,116.585 L267.774,116.472 L265.17,116.383 L262.557,116.315 L259.936,116.27 L257.312,116.248 L256.005,116.245 L256.005,116.245 C256.001,116.245 255.998,116.245 255.995,116.245 L255.995,116.245 L254.673,116.248 L252.043,116.27 L249.423,116.316 L246.81,116.383 L244.205,116.473 L241.61,116.585 L239.023,116.719 L236.445,116.874 L233.877,117.052 L231.318,117.251 L228.768,117.471 L226.228,117.713 L223.699,117.976 L221.18,118.259 L218.67,118.564 L216.172,118.89 L213.684,119.236 L211.208,119.602 L208.742,119.989 L206.288,120.397 L203.846,120.824 L201.416,121.271 L198.997,121.738 L196.591,122.225 L194.197,122.731 L191.815,123.257 L189.447,123.801 L187.091,124.365 L184.749,124.949 L182.419,125.55 L180.104,126.171 L177.802,126.81 L175.515,127.468 L173.241,128.144 L170.982,128.839 L168.737,129.551 L166.507,130.281 L164.292,131.03 L162.092,131.796 L159.908,132.579 L157.739,133.38 L155.586,134.198 L153.448,135.034 L151.327,135.886 L149.222,136.755 L147.134,137.642 L145.063,138.544 L143.009,139.463 L140.971,140.399 L138.951,141.351 L136.948,142.319 L134.964,143.303 L132.997,144.303 L131.047,145.319 L129.117,146.35 L127.205,147.397 L125.312,148.459 L123.437,149.537 L121.583,150.629 L119.746,151.736 L117.93,152.858 L116.133,153.995 L114.356,155.147 L112.6,156.313 L110.863,157.493 L109.148,158.688 L107.452,159.897 L105.778,161.119 L104.125,162.355 L102.494,163.606 L100.883,164.869 L99.294,166.147 L97.728,167.437 L96.184,168.741 L94.662,170.057 L93.162,171.387 L91.685,172.73 L90.232,174.085 L88.801,175.452 L87.393,176.832 L86.01,178.225 L84.649,179.63 L83.313,181.046 L82.002,182.475 L80.715,183.915 L79.452,185.368 L78.214,186.831 L77.001,188.306 L75.813,189.792 L74.651,191.29 L73.515,192.798 L72.404,194.318 L71.32,195.848 L70.261,197.389 L69.23,198.94 L68.225,200.502 L67.247,202.074 L66.296,203.657 L65.373,205.248 L64.477,206.85 L63.609,208.462 L62.77,210.084 L61.958,211.714 L61.175,213.354 L60.421,215.004 L59.695,216.662 L58.999,218.328 L58.332,220.004 L57.695,221.689 L57.088,223.381 L56.511,225.083 L55.963,226.791 L55.447,228.508 L54.961,230.234 L54.506,231.966 L54.082,233.706 L53.689,235.454 L53.329,237.208 L53,238.97 L52.702,240.737 L52.438,242.513 L52.206,244.294 L52.006,246.082 L51.839,247.877 L51.705,249.677 L51.605,251.483 L51.538,253.294 L51.504,255.101 L51.5,255.989 L51.5,255.989 C51.5,255.996 51.5,256.004 51.5,256.011 L51.5,256.011 L51.505,256.932 L51.539,258.75 L51.606,260.561 L51.708,262.367 L51.843,264.167 L52.01,265.961 L52.211,267.749 L52.444,269.53 L52.71,271.305 L53.007,273.073 L53.337,274.834 L53.699,276.588 L54.092,278.335 L54.516,280.075 L54.972,281.807 L55.458,283.532 L55.975,285.248 L56.523,286.957 L57.101,288.658 L57.709,290.35 L58.347,292.033 L59.014,293.708 L59.711,295.374 L60.436,297.033 L61.191,298.681 L61.974,300.32 L62.787,301.95 L63.627,303.571 L64.495,305.182 L65.391,306.784 L66.315,308.375 L67.266,309.956 L68.244,311.528 L69.25,313.089 L70.282,314.64 L71.34,316.181 L72.424,317.71 L73.535,319.229 L74.672,320.737 L75.834,322.233 L77.022,323.719 L78.235,325.194 L79.473,326.657 L80.736,328.109 L82.023,329.549 L83.336,330.976 L84.672,332.393 L86.031,333.797 L87.415,335.189 L88.822,336.568 L90.253,337.936 L91.707,339.291 L93.184,340.632 L94.683,341.962 L96.206,343.278 L97.75,344.581 L99.317,345.871 L100.905,347.148 L102.515,348.411 L104.147,349.661 L105.8,350.897 L107.474,352.119 L109.17,353.327 L110.885,354.522 L112.622,355.701 L114.379,356.867 L116.155,358.018 L117.951,359.155 L119.768,360.277 L121.604,361.384 L123.459,362.476 L125.333,363.553 L127.226,364.615 L129.138,365.661 L131.069,366.692 L133.018,367.707 L134.985,368.707 L136.969,369.691 L138.972,370.659 L140.992,371.61 L143.029,372.546 L145.084,373.465 L147.155,374.368 L149.244,375.253 L151.348,376.122 L153.47,376.975 L155.606,377.809 L157.759,378.627 L159.928,379.429 L162.113,380.212 L164.313,380.977 L166.528,381.726 L168.757,382.456 L171.002,383.168 L173.261,383.862 L175.535,384.538 L177.822,385.196 L180.125,385.835 L182.44,386.455 L184.769,387.057 L187.112,387.639 L189.467,388.203 L191.836,388.748 L194.217,389.274 L196.611,389.779 L199.018,390.266 L201.436,390.733 L203.867,391.18 L206.309,391.607 L208.763,392.014 L211.229,392.401 L213.705,392.767 L216.193,393.113 L218.691,393.438 L221.2,393.743 L223.719,394.026 L226.249,394.289 L228.789,394.53 L231.338,394.75 L233.897,394.949 L236.466,395.126 L239.044,395.282 L241.63,395.415 L244.226,395.527 L246.83,395.617 L249.442,395.684 L252.064,395.729 L254.688,395.752 L255.995,395.755 L255.995,395.755 C255.998,395.755 256.001,395.755 256.005,395.755 L256.005,395.755 L257.327,395.752 L259.956,395.729 L262.577,395.684 L265.19,395.617 L267.795,395.527 L270.39,395.414 L272.977,395.281 L275.555,395.125 L278.123,394.948 L280.682,394.749 L283.232,394.529 L285.772,394.287 L288.301,394.024 L290.82,393.74 L293.329,393.436 L295.828,393.11 L298.316,392.764 L300.792,392.397 L303.258,392.011 L305.712,391.603 L308.154,391.176 L310.584,390.729 L313.003,390.262 L315.409,389.775 L317.803,389.269 L320.185,388.743 L322.553,388.199 L324.909,387.635 L327.251,387.051 L329.58,386.45 L331.896,385.829 L334.198,385.189 L336.485,384.532 L338.759,383.856 L341.018,383.161 L343.263,382.449 L345.493,381.718 L347.708,380.97 L349.908,380.204 L352.092,379.421 L354.261,378.62 L356.414,377.801 L358.552,376.966 L360.672,376.114 L362.777,375.245 L364.866,374.358 L366.937,373.456 L368.991,372.536 L371.029,371.601 L373.049,370.649 L375.052,369.681 L377.036,368.696 L379.003,367.696 L380.953,366.681 L382.883,365.65 L384.795,364.603 L386.688,363.541 L388.562,362.463 L390.417,361.371 L392.254,360.263 L394.07,359.141 L395.867,358.004 L397.643,356.852 L399.4,355.687 L401.137,354.507 L402.852,353.312 L404.547,352.103 L406.221,350.881 L407.875,349.644 L409.506,348.394 L411.117,347.13 L412.705,345.853 L414.272,344.563 L415.816,343.259 L417.338,341.943 L418.838,340.613 L420.314,339.27 L421.768,337.915 L423.199,336.548 L424.607,335.167 L425.99,333.775 L427.35,332.37 L428.686,330.953 L429.998,329.525 L431.285,328.085 L432.548,326.632 L433.786,325.169 L434.999,323.694 L436.187,322.207 L437.349,320.71 L438.485,319.201 L439.596,317.682 L440.68,316.151 L441.739,314.611 L442.77,313.059 L443.775,311.498 L444.753,309.926 L445.704,308.343 L446.627,306.751 L447.522,305.149 L448.391,303.538 L449.23,301.916 L450.042,300.286 L450.825,298.646 L451.579,296.996 L452.305,295.338 L453.001,293.671 L453.668,291.996 L454.305,290.311 L454.912,288.619 L455.489,286.917 L456.036,285.209 L456.553,283.491 L457.039,281.766 L457.494,280.034 L457.918,278.294 L458.31,276.546 L458.671,274.792 L459,273.03 L459.297,271.262 L459.562,269.487 L459.794,267.705 L459.994,265.918 L460.161,264.123 L460.295,262.323 L460.395,260.517 L460.462,258.706 L460.496,256.899 L460.5,256.011 C460.5,256.011 460.5,256.011 460.5,256.011 C460.506,254.703 459.451,253.637 458.142,253.631 C456.834,253.625 455.769,254.681 455.762,255.989 L455.762,255.989" fill="#000000"/>
      <path d="M455.762,255.971 L455.759,256.313 L455.728,256.91 L455.67,257.477 L455.586,258.043 L455.473,258.609 L455.333,259.176 L455.166,259.744 L454.97,260.314 L454.746,260.885 L454.494,261.458 L454.212,262.033 L453.901,262.611 L453.561,263.19 L453.191,263.772 L452.791,264.354 L452.362,264.939 L451.902,265.525 L451.413,266.112 L450.893,266.699 L450.343,267.288 L449.763,267.877 L449.154,268.466 L448.514,269.054 L447.845,269.641 L447.146,270.229 L446.418,270.815 L445.661,271.4 L444.875,271.983 L444.06,272.565 L443.217,273.146 L442.345,273.724 L441.445,274.3 L440.517,274.873 L439.562,275.445 L438.58,276.013 L437.57,276.579 L436.533,277.142 L435.469,277.702 L433.818,278.539 L431.527,279.642 L429.14,280.728 L426.652,281.799 L424.066,282.855 L421.38,283.894 L418.6,284.917 L415.726,285.922 L412.76,286.91 L409.703,287.88 L406.557,288.83 L403.324,289.761 L400.006,290.671 L396.604,291.562 L393.12,292.431 L389.556,293.278 L385.913,294.104 L382.193,294.907 L378.398,295.688 L374.529,296.445 L370.588,297.179 L366.576,297.888 L362.495,298.572 L358.349,299.232 L354.135,299.866 L349.858,300.474 L345.519,301.055 L341.119,301.61 L336.661,302.137 L332.143,302.637 L327.572,303.109 L322.945,303.552 L318.266,303.967 L313.535,304.352 L308.756,304.707 L303.929,305.032 L299.055,305.326 L294.137,305.589 L289.176,305.821 L284.174,306.021 L279.131,306.189 L274.051,306.324 L268.934,306.426 L263.782,306.494 L258.597,306.529 L255.996,306.533 L256.004,306.533 L253.391,306.529 L248.202,306.494 L243.05,306.425 L237.933,306.323 L232.853,306.188 L227.81,306.021 L222.808,305.821 L217.847,305.588 L212.929,305.325 L208.055,305.031 L203.227,304.706 L198.448,304.35 L193.717,303.965 L189.038,303.551 L184.411,303.108 L179.838,302.635 L175.322,302.136 L170.862,301.607 L166.462,301.053 L162.123,300.471 L157.845,299.862 L153.632,299.228 L149.484,298.569 L145.403,297.884 L141.391,297.175 L137.45,296.441 L133.58,295.683 L129.784,294.902 L126.063,294.099 L122.42,293.273 L118.855,292.425 L115.369,291.554 L111.967,290.664 L108.648,289.753 L105.414,288.821 L102.266,287.87 L99.208,286.9 L96.24,285.911 L93.364,284.905 L90.582,283.88 L87.895,282.839 L85.306,281.781 L82.815,280.708 L80.425,279.62 L78.139,278.518 L76.499,277.686 L75.441,277.127 L74.402,276.564 L73.392,275.997 L72.408,275.427 L71.452,274.855 L70.523,274.28 L69.623,273.703 L68.75,273.123 L67.906,272.542 L67.09,271.958 L66.303,271.372 L65.544,270.785 L64.815,270.197 L64.116,269.607 L63.445,269.018 L62.805,268.426 L62.194,267.835 L61.614,267.243 L61.063,266.651 L60.543,266.06 L60.053,265.469 L59.592,264.879 L59.163,264.29 L58.764,263.703 L58.394,263.117 L58.056,262.534 L57.746,261.952 L57.467,261.371 L57.216,260.793 L56.995,260.218 L56.803,259.645 L56.639,259.073 L56.503,258.503 L56.396,257.934 L56.316,257.365 L56.263,256.797 L56.239,256.227 L56.237,255.971 L56.237,256.028 L56.241,255.686 L56.272,255.09 L56.33,254.523 L56.414,253.956 L56.526,253.39 L56.667,252.823 L56.834,252.255 L57.03,251.686 L57.254,251.115 L57.506,250.542 L57.788,249.967 L58.098,249.389 L58.439,248.81 L58.809,248.228 L59.209,247.645 L59.638,247.061 L60.098,246.475 L60.587,245.888 L61.107,245.3 L61.657,244.711 L62.237,244.123 L62.846,243.534 L63.486,242.946 L64.155,242.358 L64.854,241.771 L65.582,241.184 L66.339,240.6 L67.125,240.017 L67.94,239.435 L68.783,238.854 L69.655,238.276 L70.555,237.7 L71.482,237.127 L72.438,236.555 L73.42,235.987 L74.43,235.42 L75.467,234.857 L76.531,234.298 L78.182,233.461 L80.473,232.358 L82.859,231.272 L85.347,230.201 L87.934,229.145 L90.619,228.106 L93.4,227.083 L96.274,226.077 L99.24,225.09 L102.297,224.12 L105.443,223.17 L108.676,222.239 L111.994,221.329 L115.396,220.438 L118.88,219.569 L122.444,218.722 L126.087,217.896 L129.807,217.093 L133.602,216.312 L137.471,215.555 L141.412,214.821 L145.424,214.112 L149.504,213.428 L153.651,212.768 L157.864,212.134 L162.142,211.526 L166.481,210.944 L170.881,210.39 L175.339,209.863 L179.856,209.363 L184.428,208.891 L189.055,208.448 L193.734,208.033 L198.464,207.648 L203.244,207.293 L208.071,206.968 L212.944,206.674 L217.863,206.411 L222.824,206.178 L227.826,205.979 L232.869,205.811 L237.949,205.676 L243.066,205.574 L248.218,205.506 L253.403,205.471 L256.004,205.467 L255.996,205.467 L258.609,205.471 L263.798,205.506 L268.95,205.574 L274.067,205.676 L279.147,205.811 L284.189,205.979 L289.192,206.179 L294.153,206.411 L299.071,206.674 L303.945,206.969 L308.773,207.294 L313.552,207.649 L318.282,208.035 L322.962,208.449 L327.588,208.892 L332.162,209.364 L336.678,209.864 L341.137,210.392 L345.538,210.947 L349.877,211.529 L354.154,212.137 L358.368,212.771 L362.516,213.431 L366.597,214.116 L370.608,214.825 L374.55,215.559 L378.42,216.317 L382.216,217.098 L385.936,217.901 L389.58,218.727 L393.145,219.575 L396.63,220.445 L400.033,221.336 L403.352,222.247 L406.586,223.179 L409.733,224.129 L412.792,225.1 L415.76,226.088 L418.636,227.095 L421.418,228.12 L424.105,229.161 L426.694,230.219 L429.185,231.292 L431.575,232.38 L433.861,233.482 L435.501,234.314 L436.559,234.872 L437.598,235.436 L438.608,236.003 L439.592,236.572 L440.548,237.145 L441.477,237.72 L442.377,238.297 L443.25,238.876 L444.094,239.458 L444.91,240.042 L445.697,240.628 L446.456,241.214 L447.185,241.803 L447.884,242.392 L448.554,242.982 L449.195,243.574 L449.806,244.165 L450.386,244.757 L450.937,245.349 L451.457,245.94 L451.947,246.531 L452.408,247.12 L452.837,247.709 L453.236,248.297 L453.605,248.883 L453.944,249.466 L454.254,250.048 L454.533,250.628 L454.783,251.206 L455.004,251.782 L455.197,252.355 L455.361,252.927 L455.496,253.497 L455.604,254.066 L455.684,254.635 L455.736,255.203 L455.761,255.773 L455.762,256.028 L455.762,256.028 C455.778,257.337 456.852,258.384 458.16,258.369 C459.468,258.353 460.516,257.279 460.5,255.971 L460.493,255.544 L460.452,254.747 L460.372,253.954 L460.255,253.165 L460.101,252.382 L459.91,251.604 L459.684,250.833 L459.421,250.068 L459.125,249.31 L458.794,248.559 L458.431,247.814 L458.036,247.078 L457.608,246.348 L457.149,245.626 L456.659,244.911 L456.139,244.203 L455.59,243.501 L455.01,242.806 L454.402,242.118 L453.765,241.435 L453.099,240.76 L452.405,240.09 L451.684,239.426 L450.934,238.767 L450.158,238.114 L449.353,237.467 L448.523,236.825 L447.665,236.188 L446.78,235.556 L445.87,234.929 L444.933,234.308 L443.969,233.691 L442.98,233.079 L441.965,232.472 L440.925,231.87 L439.858,231.273 L438.767,230.681 L437.644,230.089 L435.917,229.214 L433.537,228.068 L431.059,226.94 L428.485,225.833 L425.816,224.743 L423.054,223.674 L420.201,222.624 L417.257,221.594 L414.224,220.584 L411.103,219.595 L407.898,218.626 L404.607,217.679 L401.233,216.752 L397.777,215.848 L394.241,214.966 L390.627,214.107 L386.937,213.27 L383.171,212.457 L379.33,211.667 L375.417,210.902 L371.433,210.16 L367.381,209.443 L363.26,208.753 L359.073,208.087 L354.822,207.447 L350.507,206.834 L346.13,206.247 L341.694,205.687 L337.199,205.156 L332.648,204.652 L328.041,204.177 L323.38,203.73 L318.667,203.312 L313.903,202.925 L309.091,202.567 L304.231,202.24 L299.325,201.944 L294.374,201.679 L289.382,201.446 L284.347,201.244 L279.273,201.075 L274.161,200.94 L269.013,200.837 L263.829,200.768 L258.617,200.734 L256.004,200.73 L256.004,200.73 C256.001,200.73 255.998,200.73 255.996,200.73 L255.996,200.73 L253.371,200.734 L248.155,200.768 L242.972,200.838 L237.823,200.94 L232.711,201.076 L227.637,201.244 L222.602,201.446 L217.609,201.679 L212.659,201.945 L207.753,202.241 L202.892,202.569 L198.08,202.926 L193.316,203.314 L188.603,203.732 L183.942,204.178 L179.335,204.654 L174.783,205.158 L170.288,205.69 L165.851,206.25 L161.474,206.836 L157.159,207.45 L152.907,208.089 L148.72,208.756 L144.599,209.447 L140.545,210.164 L136.561,210.906 L132.648,211.672 L128.806,212.462 L125.039,213.275 L121.348,214.113 L117.733,214.973 L114.197,215.856 L110.74,216.76 L107.365,217.687 L104.073,218.635 L100.865,219.604 L97.744,220.595 L94.709,221.605 L91.764,222.636 L88.908,223.688 L86.144,224.759 L83.473,225.85 L80.897,226.96 L78.416,228.09 L76.039,229.236 L74.323,230.107 L73.206,230.695 L72.114,231.289 L71.047,231.886 L70.005,232.49 L68.99,233.097 L68,233.711 L67.035,234.328 L66.097,234.952 L65.185,235.58 L64.3,236.214 L63.441,236.852 L62.608,237.496 L61.804,238.146 L61.026,238.801 L60.275,239.462 L59.553,240.129 L58.858,240.802 L58.192,241.481 L57.554,242.167 L56.945,242.858 L56.365,243.557 L55.815,244.262 L55.295,244.975 L54.806,245.694 L54.348,246.422 L53.921,247.155 L53.527,247.896 L53.165,248.645 L52.837,249.401 L52.544,250.163 L52.285,250.933 L52.062,251.709 L51.876,252.489 L51.726,253.276 L51.614,254.066 L51.54,254.861 L51.504,255.629 L51.5,255.971 L51.5,255.971 C51.5,255.99 51.5,256.009 51.5,256.028 L51.5,256.028 L51.507,256.456 L51.548,257.253 L51.628,258.046 L51.745,258.834 L51.899,259.618 L52.09,260.395 L52.316,261.167 L52.578,261.932 L52.875,262.69 L53.205,263.441 L53.569,264.185 L53.964,264.922 L54.392,265.652 L54.851,266.373 L55.34,267.089 L55.861,267.797 L56.41,268.499 L56.99,269.194 L57.598,269.882 L58.235,270.564 L58.901,271.24 L59.595,271.91 L60.316,272.574 L61.066,273.232 L61.842,273.885 L62.646,274.533 L63.477,275.175 L64.334,275.812 L65.22,276.444 L66.13,277.071 L67.067,277.692 L68.03,278.309 L69.02,278.921 L70.035,279.528 L71.075,280.129 L72.142,280.727 L73.233,281.319 L74.356,281.911 L76.083,282.785 L78.463,283.932 L80.941,285.059 L83.515,286.167 L86.184,287.257 L88.946,288.326 L91.799,289.376 L94.743,290.406 L97.776,291.416 L100.897,292.405 L104.103,293.374 L107.393,294.321 L110.768,295.247 L114.223,296.151 L117.759,297.033 L121.373,297.893 L125.063,298.729 L128.829,299.543 L132.67,300.333 L136.583,301.098 L140.566,301.84 L144.619,302.556 L148.74,303.247 L152.927,303.913 L157.178,304.553 L161.493,305.166 L165.87,305.753 L170.306,306.312 L174.801,306.844 L179.352,307.348 L183.959,307.823 L188.62,308.27 L193.333,308.687 L198.096,309.075 L202.909,309.433 L207.769,309.76 L212.675,310.056 L217.626,310.321 L222.618,310.554 L227.653,310.755 L232.726,310.924 L237.839,311.06 L242.987,311.163 L248.17,311.232 L253.383,311.266 L255.996,311.27 L255.996,311.27 C255.998,311.27 256.001,311.27 256.004,311.27 L256.004,311.27 L258.628,311.265 L263.845,311.232 L269.028,311.162 L274.177,311.06 L279.289,310.924 L284.363,310.755 L289.397,310.554 L294.391,310.32 L299.341,310.055 L304.247,309.759 L309.108,309.431 L313.92,309.074 L318.684,308.686 L323.396,308.268 L328.058,307.821 L332.665,307.346 L337.217,306.842 L341.712,306.31 L346.149,305.75 L350.526,305.164 L354.841,304.55 L359.092,303.911 L363.28,303.244 L367.401,302.552 L371.455,301.836 L375.439,301.094 L379.352,300.328 L383.193,299.538 L386.96,298.725 L390.652,297.887 L394.267,297.027 L397.803,296.144 L401.26,295.239 L404.635,294.313 L407.927,293.365 L411.135,292.395 L414.256,291.405 L417.291,290.395 L420.236,289.363 L423.092,288.312 L425.856,287.241 L428.527,286.15 L431.103,285.04 L433.584,283.91 L435.961,282.764 L437.676,281.893 L438.794,281.305 L439.886,280.711 L440.953,280.114 L441.995,279.51 L443.01,278.902 L444,278.289 L444.965,277.671 L445.903,277.048 L446.815,276.42 L447.7,275.786 L448.559,275.148 L449.391,274.504 L450.196,273.854 L450.974,273.198 L451.725,272.538 L452.447,271.871 L453.142,271.198 L453.808,270.519 L454.445,269.833 L455.055,269.142 L455.635,268.443 L456.185,267.738 L456.704,267.025 L457.194,266.305 L457.652,265.578 L458.079,264.845 L458.473,264.103 L458.835,263.355 L459.162,262.599 L459.456,261.836 L459.715,261.067 L459.938,260.291 L460.124,259.51 L460.274,258.724 L460.386,257.934 L460.46,257.139 L460.496,256.371 L460.5,256.028 C460.516,254.721 459.468,253.647 458.16,253.631 C456.852,253.615 455.778,254.663 455.762,255.971 L455.762,255.971" fill="#000000"/>
    </g>
    <path d="M68.19,89.023 L68.19,89.023" fill-opacity="0" stroke="#000000" stroke-width="2"/>
    <path d="M150.9,240.406 C164.291,237.23 177.721,245.511 180.896,258.902 C182.503,265.574 181.135,272.365 177.57,278.146 L172.795,335.606 L143.782,285.957 C137.953,282.551 134.108,276.851 132.405,270.401 C129.23,257.011 137.51,243.582 150.9,240.406 z" fill-opacity="0" stroke="#231F20" stroke-width="12" stroke-miterlimit="10"/>
    <g>
      <path d="M147.05,255.69 L168.008,261.957 L152.099,276.981 z" fill="#231F20"/>
      <path d="M147.05,255.69 L168.008,261.957 L152.099,276.981 z" fill-opacity="0" stroke="#231F20" stroke-width="10" stroke-linejoin="round" stroke-miterlimit="10"/>
    </g>
    <g>
      <path d="M273.27,145.678 C288.8,150.326 297.622,166.684 292.974,182.214 C290.683,189.968 285.287,196.089 278.245,199.887 L239.527,255.69 L239.176,187.951 C235.236,181.043 234.672,172.963 236.734,165.381 C241.382,149.851 257.74,141.03 273.27,145.678 z" fill-opacity="0" stroke="#231F20" stroke-width="12" stroke-miterlimit="10"/>
      <g>
        <path d="M260.339,159 L278.027,177.74 L252.947,183.694 z" fill="#231F20"/>
        <path d="M260.339,159 L278.027,177.74 L252.947,183.694 z" fill-opacity="0" stroke="#231F20" stroke-width="10" stroke-linejoin="round" stroke-miterlimit="10"/>
      </g>
    </g>
    <g>
      <path d="M114.503,68.838 C128.233,60.22 146.35,64.366 154.968,78.095 C159.289,84.928 160.338,93.021 158.554,100.82 L175.011,166.715 L123.831,122.34 C116.038,120.751 109.589,115.851 105.245,109.303 C96.627,95.573 100.772,77.456 114.503,68.838 z" fill-opacity="0" stroke="#231F20" stroke-width="12" stroke-miterlimit="10"/>
      <g>
        <path d="M116,87.345 L141.752,86.389 L129.703,109.177 z" fill="#231F20"/>
        <path d="M116,87.345 L141.752,86.389 L129.703,109.177 z" fill-opacity="0" stroke="#231F20" stroke-width="10" stroke-linejoin="round" stroke-miterlimit="10"/>
      </g>
    </g>
    <g>
      <path d="M357.859,245.223 C373.835,247.971 384.559,263.149 381.812,279.126 C380.47,287.097 375.85,293.824 369.315,298.441 L337.588,358.494 L329.095,291.29 C324.353,284.905 322.821,276.952 323.956,269.177 C326.704,253.2 341.882,242.476 357.859,245.223 z" fill-opacity="0" stroke="#231F20" stroke-width="12" stroke-miterlimit="10"/>
      <g>
        <path d="M346.623,260.004 L366.436,276.481 L342.255,285.408 z" fill="#231F20"/>
        <path d="M346.623,260.004 L366.436,276.481 L342.255,285.408 z" fill-opacity="0" stroke="#231F20" stroke-width="10" stroke-linejoin="round" stroke-miterlimit="10"/>
      </g>
    </g>
    <g>
      <path d="M410.324,64.773 C426.3,67.52 437.025,82.699 434.278,98.675 C432.936,106.647 428.315,113.373 421.781,117.99 L390.053,178.044 L381.561,110.839 C376.818,104.455 375.287,96.501 376.422,88.726 C379.169,72.75 394.348,62.025 410.324,64.773 z" fill-opacity="0" stroke="#231F20" stroke-width="12" stroke-miterlimit="10"/>
      <g>
        <path d="M399.088,79.553 L418.901,96.03 L394.72,104.957 z" fill="#231F20"/>
        <path d="M399.088,79.553 L418.901,96.03 L394.72,104.957 z" fill-opacity="0" stroke="#231F20" stroke-width="10" stroke-linejoin="round" stroke-miterlimit="10"/>
      </g>
    </g>
  </g>
</svg>
