<?xml version="1.0" encoding="UTF-8"?>
<svg width="500px" height="500px" viewBox="0 0 500 500" version="1.1" xmlns="http://www.w3.org/2000/svg" xmlns:xlink="http://www.w3.org/1999/xlink">
    <!-- Generator: Sketch 46.2 (44496) - http://www.bohemiancoding.com/sketch -->
    <title>laptop-colour</title>
    <desc>Created with Sketch.</desc>
    <defs></defs>
    <g id="Page-1" stroke="none" stroke-width="1" fill="none" fill-rule="evenodd">
        <g id="laptop-colour" fill-rule="nonzero">
            <g id="upload" transform="translate(80.000000, 150.000000)">
                <g id="Group" fill="#000000">
                    <path d="M308.482695,179.84274 L308.482695,15.86694 C308.482695,7.13952 301.315548,0 292.559288,0 L48.4407122,0 C39.6844516,0 32.5173051,7.13952 32.5173051,15.86694 L32.5173051,179.84274 L0.678557506,179.84274 L0.678557506,190.41936 C0.678557506,196.24032 5.45396632,201 11.2901289,201 L329.709871,201 C335.546034,201 340.321442,196.24032 340.321442,190.41936 L340.321442,179.84274 L308.482695,179.84274 Z M37.8251074,15.86694 C37.8251074,10.03392 42.5884164,5.29032 48.4407122,5.29032 L292.559288,5.29032 C298.411584,5.29032 303.174893,10.03392 303.174893,15.86694 L303.174893,179.84274 L37.8251074,179.84274 L37.8251074,15.86694 Z M335.01364,190.41936 C335.01364,193.33788 332.634002,195.70968 329.709871,195.70968 L11.2901289,195.70968 C8.3659977,195.70968 5.98635987,193.33788 5.98635987,190.41936 L5.98635987,185.13306 L32.5173051,185.13306 L149.272824,185.13306 C149.272824,188.03952 151.660528,190.41936 154.580626,190.41936 L186.419374,190.41936 C189.339472,190.41936 191.727176,188.03952 191.727176,185.13306 L308.482695,185.13306 L335.01364,185.13306 L335.01364,190.41936 Z" id="Shape"></path>
                    <path d="M289.905387,10.58064 L51.0946133,10.58064 C46.6983333,10.58064 43.1329098,14.1303 43.1329098,18.5121 L43.1329098,166.61694 C43.1329098,170.99874 46.6983333,174.55242 51.0946133,174.55242 L289.905387,174.55242 C294.301667,174.55242 297.86709,170.99874 297.86709,166.61694 L297.86709,18.5121 C297.86709,14.1303 294.301667,10.58064 289.905387,10.58064 Z M295.213189,166.61694 C295.213189,169.53546 292.833551,171.90726 289.905387,171.90726 L51.0946133,171.90726 C48.1664488,171.90726 45.786811,169.53546 45.786811,166.61694 L45.786811,18.5121 C45.786811,15.5976 48.1664488,13.22178 51.0946133,13.22178 L289.905387,13.22178 C292.833551,13.22178 295.213189,15.5976 295.213189,18.5121 L295.213189,166.61694 Z" id="Shape"></path>
                </g>
                <g id="cloud-upload" transform="translate(107.000000, 55.000000)" fill="#497EB7">
                    <path d="M107.597046,33.2104224 C103.995728,23.2604013 94.7467041,16.1774724 83.9064941,16.1774724 C81.4129639,16.1774724 79.0040283,16.5530211 76.723999,17.2556605 C70.548584,6.90182368 59.5150146,0.00868815789 46.930542,0.00868815789 C27.840332,0.00868815789 12.3111572,15.8705724 11.9042969,35.5969737 C4.91918945,39.7966579 0.218139648,47.6468368 0.218139648,56.6075092 C0.218139648,69.9940026 10.6837158,80.8647237 23.5743408,80.8647237 L46.930542,80.8647237 L46.930542,72.7762934 L23.5622559,72.7762934 C14.9859619,72.7762934 8.00488281,65.5358763 8.00488281,56.6075092 C8.00488281,48.9552 13.1329346,42.5304908 20.0213623,40.8586934 C19.7957764,39.4049566 19.6829834,37.9148763 19.6829834,36.3924908 C19.6829834,20.7648197 31.8807373,8.09308026 46.930542,8.09308026 C59.2370605,8.09308026 69.6381836,16.5732118 73.0179443,28.2071447 C76.0109863,25.7357921 79.7855225,24.2618645 83.9064941,24.2618645 C92.9259033,24.2618645 100.354126,31.3367171 101.320923,40.4346868 C110.014038,40.4346868 116.995117,47.6751039 116.995117,56.6075092 C116.995117,65.5237618 110.030151,72.7762934 101.437744,72.7762934 L78.069458,72.7762934 L78.069458,80.8647237 L101.425659,80.8647237 C114.316284,80.8647237 124.78186,69.97785 124.78186,56.6075092 C124.78186,45.4298882 117.498657,36.0169421 107.597046,33.2104224 Z" id="Shape"></path>
                    <polygon id="Shape" points="62.5 36.3924908 43.0351563 60.6497053 54.7132568 60.6497053 54.7132568 92.9913118 70.2867432 92.9913118 70.2867432 60.6497053 81.9648438 60.6497053"></polygon>
                </g>
            </g>
        </g>
    </g>
</svg>