<?xml version="1.0" encoding="UTF-8"?>
<svg width="500px" height="500px" viewBox="0 0 500 500" version="1.1" xmlns="http://www.w3.org/2000/svg" xmlns:xlink="http://www.w3.org/1999/xlink">
    <!-- Generator: Sketch 46.2 (44496) - http://www.bohemiancoding.com/sketch -->
    <title>Artboard</title>
    <desc>Created with Sketch.</desc>
    <defs></defs>
    <g id="icons" stroke="none" stroke-width="1" fill="none" fill-rule="evenodd">
        <g id="Artboard" fill-rule="nonzero" fill="#474545">
            <g id="megaphone" transform="translate(84.000000, 104.000000)">
                <path d="M291.479789,69.803483 L291.479789,16.4182874 C291.479789,10.5393059 288.452883,5.25457334 283.38275,2.28203277 C278.293164,-0.702172444 272.171266,-0.763735852 267.009055,2.12196791 C217.712242,29.6738613 164.085813,45.7639441 107.619875,49.9483118 C107.187367,49.9800655 56.1520938,50.2029899 56.1520938,50.2029899 C43.3344297,50.2029899 32.7402578,59.8736293 31.2741406,72.295181 L20.7986328,72.295181 C9.33101563,72.295181 0,81.6191212 0,93.0802837 L0,138.746076 C0,150.207238 9.33101563,159.531827 20.7986328,159.531827 L31.2728438,159.531827 C32.3285,168.471482 38.1099688,175.980921 46.0474922,179.490684 L83.3229219,282.30028 C85.6527578,288.699634 91.7960547,293 98.6117813,293 L136.018195,293 C141.321117,293 146.302414,290.408505 149.344234,286.06796 C152.386055,281.72612 153.119438,276.161436 151.309,271.189056 L119.28332,182.902593 C171.470867,188.320821 221.113297,204.02921 267.008406,229.679766 C269.540555,231.095077 272.303547,231.800788 275.062,231.800788 C277.926148,231.80014 280.787703,231.039346 283.380805,229.519053 C288.450938,226.545865 291.479141,221.26178 291.479141,215.381503 L291.479141,161.996307 C314.304789,159.041264 332,139.50363 332,115.900219 C332,92.2961603 314.304789,72.7578786 291.479789,69.803483 Z M31.0932266,143.500715 L20.7986328,143.500715 C18.1744063,143.500715 16.0403984,141.368029 16.0403984,138.745428 L16.0403984,93.0802837 C16.0403984,90.4596266 18.1744063,88.3256445 20.7986328,88.3256445 L31.0932266,88.3256445 L31.0932266,143.500715 Z M52.4780469,164.803599 C49.333125,163.394769 47.133625,160.242074 47.133625,156.581319 L47.133625,75.2443922 L47.1342734,75.2443922 C47.1342734,70.2759012 51.179875,66.2334534 56.1514453,66.2334534 L99.8126875,66.2334534 L99.8126875,165.592906 C99.8126875,165.592906 55.7708125,165.576057 55.5808203,165.564393 C53.9720469,165.378406 53.6335625,165.295458 52.4780469,164.803599 Z M136.230883,276.659775 C136.136211,276.967592 136.085633,276.967592 136.017547,276.967592 L98.6111328,276.967592 C98.5158125,276.967592 98.4282734,276.907325 98.3990938,276.828265 L63.8808203,181.622722 L101.756703,181.622722 L136.230883,276.659775 Z M275.439391,215.382151 C275.439391,215.498149 275.439391,215.590818 275.258839,215.69256 C275.0438,215.811799 274.915318,215.743755 274.812532,215.688672 C223.396624,188.134186 167.652215,171.59307 109.014925,166.463866 L109.014925,65.3443481 C167.656948,60.2073677 223.401357,43.6649559 274.810504,16.1130625 C274.915994,16.0579795 275.046505,15.9899357 275.258839,16.1091743 C275.439391,16.2109159 275.439391,16.302289 275.439391,16.4182874 L275.439391,215.382151 Z M292.358209,153.949153 L292.358209,76.9745763 C310.70397,80.576771 324.567164,96.4626669 324.567164,115.461447 C324.567164,134.461062 310.703117,150.347793 292.358209,153.949153 Z" id="Shape"></path>
            </g>
        </g>
    </g>
</svg>