<?xml version="1.0" encoding="iso-8859-1"?>
<!-- Generator: Adobe Illustrator 16.0.0, SVG Export Plug-In . SVG Version: 6.00 Build 0)  -->
<!DOCTYPE svg PUBLIC "-//W3C//DTD SVG 1.1//EN" "http://www.w3.org/Graphics/SVG/1.1/DTD/svg11.dtd">
<svg version="1.1" id="Capa_1" xmlns="http://www.w3.org/2000/svg" xmlns:xlink="http://www.w3.org/1999/xlink" x="0px" y="0px"
	 width="344.539px" height="344.539px" viewBox="0 0 344.539 344.539" style="enable-background:new 0 0 344.539 344.539;"
	 xml:space="preserve">
<g>
	<g>
		<path style="fill:#030303;" d="M110.675,253.568c2.391,1.206,5.061,1.847,7.734,1.847c3.62,0,7.099-1.121,10.061-3.271
			l33.896-24.69c4.386-3.214,7.002-8.371,7.002-13.792c0-5.415-2.616-10.578-7.014-13.792l-33.891-24.69
			c-5.101-3.705-12.145-4.271-17.806-1.406c-5.744,2.944-9.32,8.771-9.32,15.216v49.363
			C101.343,244.797,104.914,250.623,110.675,253.568z M113.054,188.983c0-2.024,1.124-3.854,2.928-4.77
			c0.755-0.383,1.598-0.589,2.441-0.589c1.141,0,2.236,0.36,3.154,1.024l33.874,24.667c1.381,1.018,2.213,2.642,2.213,4.346
			s-0.832,3.328-2.202,4.334l-33.865,24.673c-1.636,1.179-3.854,1.355-5.604,0.458c-1.815-0.921-2.939-2.762-2.939-4.774V188.983z"
			/>
		<path style="fill:#030303;" d="M80.098,36.461v41.964H37.156v42.58H0v187.073h264.441v-42.577h37.155v-41.97h42.942V36.461H80.098
			L80.098,36.461z M252.73,211.821v11.71v30.248v11.711v30.866H11.71V132.709h25.445h11.71h31.232h11.71H252.73V211.821z
			 M289.886,211.821v11.71v30.248h-25.444v-30.248v-11.71v-90.822H91.809h-11.71H48.866V90.13h31.232h11.71h198.077V211.821z
			 M332.828,211.821h-31.231V78.42H91.809V48.166h241.02V211.821z"/>
	</g>
</g>
<g>
</g>
<g>
</g>
<g>
</g>
<g>
</g>
<g>
</g>
<g>
</g>
<g>
</g>
<g>
</g>
<g>
</g>
<g>
</g>
<g>
</g>
<g>
</g>
<g>
</g>
<g>
</g>
<g>
</g>
</svg>
