<?xml version="1.0" encoding="UTF-8"?>
<svg width="343px" height="204px" viewBox="0 0 343 204" version="1.1" xmlns="http://www.w3.org/2000/svg" xmlns:xlink="http://www.w3.org/1999/xlink">
    <!-- Generator: Sketch 47.1 (45422) - http://www.bohemiancoding.com/sketch -->
    <title>macbook with playlist</title>
    <desc>Created with Sketch.</desc>
    <defs></defs>
    <g id="Page-1" stroke="none" stroke-width="1" fill="none" fill-rule="evenodd">
        <g id="macbook-with-playlist" fill-rule="nonzero" fill="#000000">
            <g id="macbook">
                <path d="M310.84375,182.526316 L310.84375,16.1052632 C310.84375,7.24736842 303.608594,0 294.765625,0 L48.234375,0 C39.3914062,0 32.15625,7.24736842 32.15625,16.1052632 L32.15625,182.526316 L0,182.526316 L0,193.263158 C0,199.168421 4.8234375,204 10.71875,204 L332.28125,204 C338.176562,204 343,199.168421 343,193.263158 L343,182.526316 L310.84375,182.526316 Z M37.515625,16.1052632 C37.515625,10.1838947 42.3229844,5.36842105 48.234375,5.36842105 L294.765625,5.36842105 C300.677016,5.36842105 305.484375,10.1838947 305.484375,16.1052632 L305.484375,182.526316 L37.515625,182.526316 L37.515625,16.1052632 Z M337.640625,193.263158 C337.640625,196.223842 335.236945,198.631579 332.28125,198.631579 L10.71875,198.631579 C7.76305469,198.631579 5.359375,196.223842 5.359375,193.263158 L5.359375,187.894737 L32.15625,187.894737 L150.0625,187.894737 C150.0625,190.847368 152.474219,193.263158 155.421875,193.263158 L187.578125,193.263158 C190.525781,193.263158 192.9375,190.847368 192.9375,187.894737 L310.84375,187.894737 L337.640625,187.894737 L337.640625,193.263158 Z" id="Shape"></path>
                <path d="M292.9375,11 L51.0625,11 C46.6093125,11 43,14.5957742 43,19.0322581 L43,168.967742 C43,173.404226 46.6093125,177 51.0625,177 L292.9375,177 C297.390688,177 301,173.404226 301,168.967742 L301,19.0322581 C301,14.5957742 297.390688,11 292.9375,11 Z M298.3125,168.967742 C298.3125,171.920935 295.901813,174.322581 292.9375,174.322581 L51.0625,174.322581 C48.0981875,174.322581 45.6875,171.920935 45.6875,168.967742 L45.6875,19.0322581 C45.6875,16.0790645 48.0981875,13.6774194 51.0625,13.6774194 L292.9375,13.6774194 C295.901813,13.6774194 298.3125,16.0790645 298.3125,19.0322581 L298.3125,168.967742 Z" id="Shape"></path>
            </g>
            <g id="playlist" transform="translate(128.000000, 64.000000)">
                <g id="Group" transform="translate(43.500000, 38.000000) scale(-1, 1) rotate(-180.000000) translate(-43.500000, -38.000000) ">
                    <path d="M15.4469388,75.6474592 C14.8308367,75.3082051 14.3425714,74.2488112 14.5547449,73.6765967 C14.6186633,73.4861538 14.873449,73.1043823 15.1069286,72.8501632 L15.5312755,72.3629837 L43.5,72.3629837 L71.4687245,72.3629837 L71.8930714,72.8501632 C72.7213469,73.7191142 72.550898,75.1177622 71.5317551,75.6474592 C70.6191429,76.1142657 16.3178265,76.1142657 15.4469388,75.6474592 Z" id="Shape"></path>
                    <path d="M8.33246939,68.464662 C6.88809184,67.8286713 6.93070408,65.8374359 8.37508163,65.2439627 C9.43683673,64.7993007 77.5631633,64.7993007 78.6249184,65.2439627 C80.1119082,65.8586946 80.1119082,67.8499301 78.6249184,68.464662 C77.5844694,68.8880653 9.33030612,68.8880653 8.33246939,68.464662 Z" id="Shape"></path>
                    <g id="video">
                        <path d="M0.602785714,60.921352 C0.369306122,60.6883916 0.135826531,60.2853613 0.0719081633,60.0311422 C0.00798979592,59.7556643 -0.0133163265,46.3644289 0.00798979592,30.2600466 L0.0719081633,0.977016317 L0.560173469,0.48983683 L1.04843878,0.00265734266 L43.5,0.00265734266 L85.9515612,0.00265734266 L86.4398265,0.48983683 L86.9280918,0.977016317 L86.9920102,30.2600466 C87.0133163,46.3635431 86.9920102,59.7556643 86.9280918,60.0311422 C86.8641735,60.2853613 86.6306939,60.6883916 86.3972143,60.921352 C85.9728673,61.3447552 85.5050204,61.3447552 43.5,61.3447552 C1.49409184,61.3447552 1.02713265,61.3447552 0.602785714,60.921352 Z M83.3815102,30.6843357 L83.3175918,3.60424242 L43.5,3.60424242 L3.68152041,3.60424242 L3.61760204,30.6843357 L3.5749898,57.7431702 L43.5,57.7431702 L83.4241224,57.7431702 L83.3815102,30.6843357 Z" id="Shape"></path>
                        <path d="M33.2215714,41.4058275 L32.6693878,40.7485781 L32.6693878,30.8118881 C32.6693878,20.3233566 32.712,19.8778089 33.6246122,19.5181818 C34.7076735,19.1160373 35.535949,19.4544056 45.0287143,24.1800466 C50.3170714,26.8072727 54.9671327,29.2015385 55.3497551,29.4770163 C56.1567245,30.113007 56.2632551,31.0235897 55.6045408,31.6808392 C55.3710612,31.9137995 50.6775,34.3505828 45.1778571,37.0841026 C38.0846939,40.6219114 35.0050714,42.0630769 34.4955,42.0630769 C33.9433163,42.0630769 33.6255,41.8938928 33.2215714,41.4058275 Z" id="Shape"></path>
                    </g>
                </g>
            </g>
        </g>
    </g>
</svg>