<?xml version="1.0" encoding="UTF-8"?>
<svg width="500px" height="500px" viewBox="0 0 500 500" version="1.1" xmlns="http://www.w3.org/2000/svg" xmlns:xlink="http://www.w3.org/1999/xlink">
    <!-- Generator: Sketch 46.2 (44496) - http://www.bohemiancoding.com/sketch -->
    <title>Artboard</title>
    <desc>Created with Sketch.</desc>
    <defs></defs>
    <g id="icons" stroke="none" stroke-width="1" fill="none" fill-rule="evenodd">
        <g id="Artboard" stroke="#4A4A4A">
            <g id="Offline" transform="translate(49.000000, 86.000000)">
                <ellipse id="Oval" stroke-width="10" cx="202.049608" cy="296.838141" rx="32.0130548" ry="32.161859"></ellipse>
                <path d="M180.355347,4.5 C180.297822,4.5 180.240301,4.50090249 180.182804,4.50270713 C177.146733,4.59800002 174.762761,7.13647203 174.858054,10.172543 L181.544774,223.21421 C181.63796,226.183137 184.071677,228.541667 187.042067,228.541667 L216.991549,228.541667 C219.961939,228.541667 222.395656,226.183137 222.488842,223.21421 L229.175562,10.172543 C229.177367,10.1150464 229.178269,10.057525 229.178269,10 C229.178269,6.96243388 226.715835,4.5 223.678269,4.5 L180.355347,4.5 Z" id="Rectangle" stroke-width="9"></path>
                <path d="M143.796345,50.6153846 C116.506527,56.2393162 89.2167102,67.1356838 61.926893,83.3044872 C34.6370757,99.4732906 13.9947781,114.587607 0,128.647436 L37.7859008,167.663462 C58.031301,150.019937 74.4751652,137.717586 87.1174935,130.75641 C99.7598218,123.795234 119.352511,115.710833 145.895561,106.503205 L143.796345,50.6153846 Z" id="Path-4" stroke-width="9"></path>
                <path d="M399.900783,50.6153846 C378.431731,57.0736566 363.387344,61.9945968 354.767624,65.3782051 C339.319754,71.4421538 333.775457,73.8141026 309.634465,87.5224359 C294.819917,95.9347976 276.976575,109.643131 256.104439,128.647436 L293.890339,167.663462 C314.13574,150.019937 330.579604,137.717586 343.221932,130.75641 C355.86426,123.795234 375.45695,115.710833 402,106.503205 L399.900783,50.6153846 Z" id="Path-4-Copy" stroke-width="9" transform="translate(329.052219, 109.139423) scale(-1, 1) translate(-329.052219, -109.139423) "></path>
                <path d="M110.208877,240.423077 C117.536537,233.721131 123.484318,228.80019 128.052219,225.660256 C132.620121,222.520322 139.96738,218.302374 150.093995,213.00641 L149.044386,156.064103 C135.049608,159.57906 120.704961,165.905983 106.010444,175.044872 C91.3159269,184.183761 80.4699739,192.971154 73.4725849,201.407051 L110.208877,240.423077 Z" id="Path-2" stroke-width="9"></path>
                <path d="M290.741514,240.423077 C298.069174,233.721131 304.016955,228.80019 308.584856,225.660256 C313.152758,222.520322 320.500017,218.302374 330.626632,213.00641 L329.577023,156.064103 C313.483029,160.985043 299.138381,167.311966 286.543081,175.044872 C273.947781,182.777778 263.101828,191.565171 254.005222,201.407051 L290.741514,240.423077 Z" id="Path-2-Copy" stroke-width="9" transform="translate(292.315927, 198.243590) scale(-1, 1) translate(-292.315927, -198.243590) "></path>
            </g>
        </g>
    </g>
</svg>