<?xml version="1.0" encoding="UTF-8"?>
<svg width="463px" height="271px" viewBox="0 0 463 271" version="1.1" xmlns="http://www.w3.org/2000/svg" xmlns:xlink="http://www.w3.org/1999/xlink">
    <!-- Generator: Sketch 47.1 (45422) - http://www.bohemiancoding.com/sketch -->
    <title>player-and-tv-colour</title>
    <desc>Created with Sketch.</desc>
    <defs></defs>
    <g id="Page-1" stroke="none" stroke-width="1" fill="none" fill-rule="evenodd">
        <g id="player-and-tv-colour" fill-rule="nonzero" fill="#000000">
            <g id="player-with-wifi" transform="translate(369.000000, 158.000000)">
                <g id="player" transform="translate(0.000000, 69.049275)">
                    <path d="M82.0260348,31.8933667 C82.0260348,33.6541232 80.4288522,35.0827856 78.4589391,35.0827856 C76.4898435,35.0827856 74.8934783,33.6541232 74.8934783,31.8933667 C74.8934783,30.1317882 76.4898435,28.7031258 78.4589391,28.7031258 C80.4288522,28.7031258 82.0260348,30.1317882 82.0260348,31.8933667 Z" id="Shape"></path>
                    <path d="M92.500087,15.4366229 L86.8886957,5.02497875 C85.4296522,2.3189048 82.3129391,0.59267294 78.8880696,0.59267294 L14.9533565,0.59267294 C11.528487,0.59267294 8.41095652,2.3189048 6.95273043,5.02497875 L1.34133913,15.4366229 C0.787147826,16.4641419 0.499426087,17.5870146 0.499426087,18.7230396 L0.499426087,36.5089819 C0.499426087,39.5898948 3.36193043,42.0888209 6.8906087,42.0888209 L86.9508174,42.0888209 C90.4794957,42.0888209 93.342,39.5898948 93.342,36.5089819 L93.342,18.7230396 C93.342,17.5870146 93.0542783,16.4641419 92.500087,15.4366229 Z M3.34149565,16.2578161 L8.95288696,5.84781594 C10.0416522,3.82730265 12.3965565,2.52276457 14.9533565,2.52276457 L78.8880696,2.52276457 C81.4440522,2.52276457 83.7997739,3.82730265 84.8885391,5.84781594 L90.499113,16.2578161 C90.8432348,16.8956999 91.0434957,17.5944128 91.1031652,18.2988798 C91.0426783,18.7707165 90.8538609,19.2294009 90.5383478,19.6321884 C89.9293913,20.4114588 88.9730435,20.857813 87.9161565,20.857813 L5.92526957,20.857813 C4.86838261,20.857813 3.91203478,20.4114588 3.30307826,19.6321884 C2.98674783,19.2294009 2.79874783,18.7707165 2.73744348,18.2988798 C2.79793043,17.5944128 2.9981913,16.8956999 3.34149565,16.2578161 Z M91.1309565,36.5089819 C91.1309565,38.5212751 89.2558609,40.1587293 86.9508174,40.1587293 L6.8906087,40.1587293 C4.58474783,40.1587293 2.71046957,38.5212751 2.71046957,36.5089819 L2.71046957,20.533939 C3.8164,21.3132094 4.6158087,21.8228588 5.92526957,21.8228588 L87.9161565,21.8228588 C89.2256174,21.8228588 90.0250261,21.3132094 91.1309565,20.533939 L91.1309565,36.5089819 Z" id="Shape"></path>
                </g>
                <g id="wifi" transform="translate(15.530435, 0.000000)">
                    <path d="M61.4277739,14.6121417 C53.2031826,5.05621533 42.8329391,0.0706933049 31.3902783,0.0706933049 C19.9468,0.0706933049 9.21935652,5.47133299 1.35196522,14.6121417 C0.637565217,15.4431991 0.637565217,16.6893741 1.35196522,17.5204314 C2.06718261,18.3514887 3.14041739,18.3514887 3.85563478,17.5204314 C11.0069913,8.79556235 21.0200348,4.22515799 31.0322609,4.22515799 C41.0453043,4.22515799 51.0575304,9.21068002 58.2097043,17.5204314 C58.5669043,17.9355491 59.2821217,17.9355491 59.6401391,17.9355491 C59.9973391,17.9355491 60.7125565,17.5204314 61.4277739,17.5204314 C62.1429913,16.6893741 62.1429913,15.4431991 61.4277739,14.6121417 Z" id="Shape"></path>
                    <path d="M10.2917739,25.4142431 C9.57737391,26.2453005 9.57737391,27.4914755 10.2917739,28.3225328 C11.0069913,29.1535901 12.0802261,29.1535901 12.7954435,28.3225328 C22.8076696,17.1053137 38.8996522,17.1053137 48.5546783,28.3225328 C48.9118783,28.7384725 49.6270957,28.7384725 49.985113,28.7384725 C50.7003304,28.7384725 51.0575304,28.7384725 51.0575304,28.3225328 C51.7727478,27.4914755 51.7727478,26.2453005 51.0575304,25.4142431 C39.6148696,12.5349094 21.3772348,12.5349094 10.2917739,25.4142431 Z" id="Shape"></path>
                    <path d="M20.3048174,36.6322842 C19.5896,37.4633415 19.5896,38.7095165 20.3048174,39.5405739 C21.0200348,40.3716312 22.0932696,40.3716312 22.808487,39.5405739 C27.0989739,34.1399342 34.6083478,34.1399342 39.2576696,39.5405739 C39.6148696,39.9565135 40.330087,39.9565135 40.6881043,39.9565135 C41.0453043,39.9565135 41.4025043,39.5405739 41.7605217,39.5405739 C42.4757391,38.7095165 42.4757391,37.4633415 41.7605217,36.6322842 C36.0387826,29.5687078 26.3837565,29.5687078 20.3048174,36.6322842 Z" id="Shape"></path>
                    <path d="M29.6018261,47.4343856 C29.2446261,47.8503253 29.2446261,48.6813826 29.2446261,49.0965003 C29.2446261,49.5116179 29.2446261,49.9275576 29.6018261,50.3426753 C29.9598435,50.7586149 30.6750609,51.1737326 31.0322609,51.1737326 C31.3902783,51.1737326 32.1054957,50.7586149 32.4626957,50.3426753 C32.4626957,50.3426753 32.8198957,49.9275576 32.8198957,49.0965003 C32.8198957,48.2654429 32.4626957,47.8503253 32.1054957,47.4343856 C31.3902783,46.6033282 30.3178609,46.6033282 29.6018261,47.4343856 Z" id="Shape"></path>
                </g>
            </g>
            <g id="TV">
                <path d="M329.832979,0.655327273 L16.6897933,0.655327273 C7.52437767,0.655327273 0.0263752969,8.12589394 0.0263752969,17.2577727 L0.0263752969,199.805015 C0.0263752969,208.936073 7.52437767,216.406639 16.6897933,216.406639 L140.779796,216.406639 C140.779796,221.042382 138.370577,240.902576 128.683425,259.55723 L113.712147,259.55723 L113.712147,263.7372 C113.712147,267.372706 116.695029,270.344673 120.343062,270.344673 L226.182183,270.344673 C229.827743,270.344673 232.810625,267.372706 232.810625,263.7372 L232.810625,259.55723 L217.839347,259.55723 C208.152195,240.902576 205.742976,221.042382 205.742976,216.406639 L329.832979,216.406639 C338.998394,216.406639 346.496397,208.936073 346.496397,199.805015 L346.496397,17.2577727 C346.496397,8.12589394 338.998394,0.655327273 329.832979,0.655327273 Z M230.10386,262.254091 L230.10386,263.7372 C230.10386,265.894524 228.344957,267.647812 226.182183,267.647812 L120.343062,267.647812 C118.177815,267.647812 116.418912,265.894524 116.418912,263.7372 L116.418912,262.254091 L230.10386,262.254091 Z M214.791352,259.55723 L131.728124,259.55723 C141.112784,240.980591 143.486561,221.109721 143.486561,216.406639 L203.036211,216.406639 C203.036211,221.109721 205.409988,240.986339 214.791352,259.55723 Z M341.082867,199.805015 C341.082867,205.986279 336.036943,211.012918 329.832979,211.012918 L16.6897933,211.012918 C10.4850048,211.012918 5.43990499,205.986279 5.43990499,199.805015 L5.43990499,17.2577727 C5.43990499,11.0765091 10.4850048,6.04904848 16.6897933,6.04904848 L329.832979,6.04904848 C336.036943,6.04904848 341.082867,11.0765091 341.082867,17.2577727 L341.082867,199.805015 Z" id="Shape"></path>
                <path d="M319.094936,16.8364909 L27.4270119,16.8364909 C21.2642589,16.8364909 16.2669644,21.8155 16.2669644,27.955703 L16.2669644,189.106264 C16.2669644,195.247288 21.2642589,200.225476 27.4270119,200.225476 L319.094936,200.225476 C325.258513,200.225476 330.255808,195.247288 330.255808,189.106264 L330.255808,27.955703 C330.255808,21.8155 325.258513,16.8364909 319.094936,16.8364909 Z M327.549043,189.106264 C327.549043,193.750218 323.75677,197.528615 319.094936,197.528615 L27.4270119,197.528615 C22.7660024,197.528615 18.9737292,193.750218 18.9737292,189.106264 L18.9737292,27.955703 C18.9737292,23.3117485 22.7660024,19.5333515 27.4270119,19.5333515 L319.094936,19.5333515 C323.75677,19.5333515 327.549043,23.3117485 327.549043,27.955703 L327.549043,189.106264 Z" id="Shape"></path>
            </g>
        </g>
    </g>
</svg>