<?xml version="1.0" encoding="UTF-8"?>
<svg width="588px" height="330px" viewBox="0 0 588 330" version="1.1" xmlns="http://www.w3.org/2000/svg" xmlns:xlink="http://www.w3.org/1999/xlink">
    <!-- Generator: Sketch 46.1 (44463) - http://www.bohemiancoding.com/sketch -->
    <title>player and TV</title>
    <desc>Created with Sketch.</desc>
    <defs></defs>
    <g id="Page-1" stroke="none" stroke-width="1" fill="none" fill-rule="evenodd">
        <g id="player-and-TV" fill-rule="nonzero" fill="#000000">
            <g id="player-with-wifi" transform="translate(0.000000, 194.000000)">
                <g id="player" transform="translate(0.000000, 84.000000)">
                    <path d="M100.351,38.799 C100.351,40.941 98.397,42.679 95.987,42.679 C93.578,42.679 91.625,40.941 91.625,38.799 C91.625,36.656 93.578,34.918 95.987,34.918 C98.397,34.918 100.351,36.656 100.351,38.799 Z" id="Shape"></path>
                    <path d="M113.165,18.779 L106.3,6.113 C104.515,2.821 100.702,0.721 96.512,0.721 L18.294,0.721 C14.104,0.721 10.29,2.821 8.506,6.113 L1.641,18.779 C0.963,20.029 0.611,21.395 0.611,22.777 L0.611,44.414 C0.611,48.162 4.113,51.202 8.43,51.202 L106.376,51.202 C110.693,51.202 114.195,48.162 114.195,44.414 L114.195,22.777 C114.195,21.395 113.843,20.029 113.165,18.779 Z M4.088,19.778 L10.953,7.114 C12.285,4.656 15.166,3.069 18.294,3.069 L96.512,3.069 C99.639,3.069 102.521,4.656 103.853,7.114 L110.717,19.778 C111.138,20.554 111.383,21.404 111.456,22.261 C111.382,22.835 111.151,23.393 110.765,23.883 C110.02,24.831 108.85,25.374 107.557,25.374 L7.249,25.374 C5.956,25.374 4.786,24.831 4.041,23.883 C3.654,23.393 3.424,22.835 3.349,22.261 C3.423,21.404 3.668,20.554 4.088,19.778 Z M111.49,44.414 C111.49,46.862 109.196,48.854 106.376,48.854 L8.43,48.854 C5.609,48.854 3.316,46.862 3.316,44.414 L3.316,24.98 C4.669,25.928 5.647,26.548 7.249,26.548 L107.557,26.548 C109.159,26.548 110.137,25.928 111.49,24.98 L111.49,44.414 Z" id="Shape"></path>
                </g>
                <g id="wifi" transform="translate(19.000000, 0.000000)">
                    <path d="M75.151,17.776 C65.089,6.151 52.402,0.086 38.403,0.086 C24.403,0.086 11.279,6.656 1.654,17.776 C0.78,18.787 0.78,20.303 1.654,21.314 C2.529,22.325 3.842,22.325 4.717,21.314 C13.466,10.7 25.716,5.14 37.965,5.14 C50.215,5.14 62.464,11.205 71.214,21.314 C71.651,21.819 72.526,21.819 72.964,21.819 C73.401,21.819 74.276,21.314 75.151,21.314 C76.026,20.303 76.026,18.787 75.151,17.776 Z" id="Shape"></path>
                    <path d="M12.591,30.917 C11.717,31.928 11.717,33.444 12.591,34.455 C13.466,35.466 14.779,35.466 15.654,34.455 C27.903,20.809 47.59,20.809 59.402,34.455 C59.839,34.961 60.714,34.961 61.152,34.961 C62.027,34.961 62.464,34.961 62.464,34.455 C63.339,33.444 63.339,31.928 62.464,30.917 C48.465,15.249 26.153,15.249 12.591,30.917 Z" id="Shape"></path>
                    <path d="M24.841,44.564 C23.966,45.575 23.966,47.091 24.841,48.102 C25.716,49.113 27.029,49.113 27.904,48.102 C33.153,41.532 42.34,41.532 48.028,48.102 C48.465,48.608 49.34,48.608 49.778,48.608 C50.215,48.608 50.652,48.102 51.09,48.102 C51.965,47.091 51.965,45.575 51.09,44.564 C44.09,35.971 32.278,35.971 24.841,44.564 Z" id="Shape"></path>
                    <path d="M36.215,57.705 C35.778,58.211 35.778,59.222 35.778,59.727 C35.778,60.232 35.778,60.738 36.215,61.243 C36.653,61.749 37.528,62.254 37.965,62.254 C38.403,62.254 39.278,61.749 39.715,61.243 C39.715,61.243 40.152,60.738 40.152,59.727 C40.152,58.716 39.715,58.211 39.278,57.705 C38.403,56.694 37.091,56.694 36.215,57.705 Z" id="Shape"></path>
                </g>
            </g>
            <g id="TV" transform="translate(167.000000, 0.000000)">
                <path d="M400.172,0.798 L20.249,0.798 C9.129,0.798 0.032,9.895 0.032,21.015 L0.032,243.305 C0.032,254.424 9.129,263.521 20.249,263.521 L170.802,263.521 C170.802,269.166 167.879,293.35 156.126,316.066 L137.962,316.066 L137.962,321.156 C137.962,325.583 141.581,329.202 146.007,329.202 L274.417,329.202 C278.84,329.202 282.459,325.583 282.459,321.156 L282.459,316.066 L264.295,316.066 C252.542,293.35 249.619,269.166 249.619,263.521 L400.172,263.521 C411.292,263.521 420.389,254.424 420.389,243.305 L420.389,21.015 C420.389,9.895 411.292,0.798 400.172,0.798 Z M279.175,319.35 L279.175,321.156 C279.175,323.783 277.041,325.918 274.417,325.918 L146.007,325.918 C143.38,325.918 141.246,323.783 141.246,321.156 L141.246,319.35 L279.175,319.35 Z M260.597,316.066 L159.82,316.066 C171.206,293.445 174.086,269.248 174.086,263.521 L246.335,263.521 C246.335,269.248 249.215,293.452 260.597,316.066 Z M413.821,243.305 C413.821,250.832 407.699,256.953 400.172,256.953 L20.249,256.953 C12.721,256.953 6.6,250.832 6.6,243.305 L6.6,21.015 C6.6,13.488 12.721,7.366 20.249,7.366 L400.172,7.366 C407.699,7.366 413.821,13.488 413.821,21.015 L413.821,243.305 Z" id="Shape"></path>
                <path d="M387.144,20.502 L33.276,20.502 C25.799,20.502 19.736,26.565 19.736,34.042 L19.736,230.277 C19.736,237.755 25.799,243.817 33.276,243.817 L387.144,243.817 C394.622,243.817 400.685,237.755 400.685,230.277 L400.685,34.042 C400.685,26.565 394.622,20.502 387.144,20.502 Z M397.401,230.277 C397.401,235.932 392.8,240.533 387.144,240.533 L33.276,240.533 C27.621,240.533 23.02,235.932 23.02,230.277 L23.02,34.042 C23.02,28.387 27.621,23.786 33.276,23.786 L387.144,23.786 C392.8,23.786 397.401,28.387 397.401,34.042 L397.401,230.277 Z" id="Shape"></path>
            </g>
            <g id="cord" transform="translate(108.000000, 282.000000)" stroke="#000000" fill-opacity="0">
                <path d="M88.49,11.122 C47.037,-7.534 32.52,3.194 0.886,12.031" id="Shape"></path>
                <path d="M88.49,11.122 C129.943,29.779 144.46,20.869 176.094,12.031" id="Shape"></path>
                <path d="M226.756,11.122 C210.13,11.122 203.549,5.841 176.094,12.031" id="Shape"></path>
            </g>
        </g>
    </g>
</svg>