<?xml version="1.0" encoding="UTF-8"?>
<svg width="500px" height="500px" viewBox="0 0 500 500" version="1.1" xmlns="http://www.w3.org/2000/svg" xmlns:xlink="http://www.w3.org/1999/xlink">
    <!-- Generator: Sketch 46.2 (44496) - http://www.bohemiancoding.com/sketch -->
    <title>Artboard</title>
    <desc>Created with Sketch.</desc>
    <defs></defs>
    <g id="icons" stroke="none" stroke-width="1" fill="none" fill-rule="evenodd">
        <g id="Artboard" fill-rule="nonzero" fill="#474545">
            <g id="remote-control" transform="translate(93.000000, 93.000000)">
                <path d="M90.7665515,315 C84.7383577,315 79.0726236,312.653311 74.8091163,308.389954 L6.59914431,240.182393 C-2.19971477,231.383845 -2.19971477,217.067199 6.59914431,208.270187 L208.264879,6.61004554 C212.52685,2.34668903 218.19412,0 224.222314,0 C230.250507,0 235.916242,2.34668903 240.179749,6.61004554 L308.389721,74.8191423 C312.651692,79.080963 315,84.7480327 315,90.7760134 C315,96.803994 312.653228,102.469528 308.389721,106.732884 L106.723987,308.39149 C102.462015,312.653311 96.7932094,315 90.7665515,315 Z M224.222314,6.143165 C219.835939,6.143165 215.710658,7.85096487 212.606714,10.9532632 L10.9425155,212.611869 C4.53957545,219.016118 4.53957545,229.433391 10.9425155,235.83764 L79.1524875,304.046737 C82.2548955,307.149035 86.3786408,308.856835 90.7665515,308.856835 C95.1544622,308.856835 99.2782074,307.149035 102.382151,304.046737 L304.04635,102.388131 C310.44929,95.9838815 310.44929,85.5666095 304.04635,79.16236 L235.836378,10.9532632 C232.73397,7.85096487 228.610224,6.143165 224.222314,6.143165 Z M112.405079,258.747038 C111.635621,258.747038 110.892271,258.458309 110.322473,257.933069 C109.692776,257.351004 109.333388,256.533963 109.333388,255.675456 L109.333388,243.257048 C109.333388,241.689005 110.515989,240.371296 112.074872,240.203895 C127.064725,238.586706 139.260874,227.05445 141.736657,212.158811 C141.982393,210.676772 143.263288,209.590968 144.766881,209.590968 L157.293237,209.590968 C158.173276,209.590968 159.010312,209.968772 159.593933,210.627627 C160.177555,211.288017 160.449399,212.164954 160.34189,213.037283 C157.322418,237.540833 137.267347,256.759724 112.650815,258.736288 C112.567879,258.743967 112.484943,258.747038 112.405079,258.747038 Z M115.47677,245.917038 L115.47677,252.224533 C134.515112,249.286564 149.882782,234.602864 153.685536,215.732597 L147.282596,215.732597 C143.654928,231.185728 131.071746,243.121898 115.47677,245.917038 Z M100.247326,258.237155 C100.079919,258.237155 99.90944,258.223333 99.7420328,258.195689 C77.0760244,254.416107 59.2863255,235.846855 56.477264,213.038819 C56.3712907,212.16649 56.6415995,211.288017 57.2252208,210.629162 C57.8088421,209.970308 58.6458779,209.592503 59.5259174,209.592503 L72.0522736,209.592503 C73.5558664,209.592503 74.8367616,210.678308 75.0824968,212.160346 C77.3432615,225.761314 87.4859854,236.511852 100.924634,239.549647 C102.323789,239.86602 103.319017,241.111547 103.319017,242.545976 L103.319017,255.167109 C103.319017,256.070154 102.921233,256.927125 102.233174,257.510726 C101.674126,257.980678 100.969173,258.237155 100.247326,258.237155 Z M63.1351544,215.734133 C66.6399539,233.074752 80.0263836,247.087311 97.1756349,251.390598 L97.1756349,244.921845 C83.3223082,240.890393 72.8109813,229.786623 69.5350228,215.734133 L63.1351544,215.734133 Z M108.410345,229.702154 C102.23471,229.702154 96.4276781,227.298641 92.0612693,222.93085 C87.6933246,218.564596 85.2897263,212.759305 85.2897263,206.582353 C85.2897263,200.4054 87.6933246,194.600109 92.0612693,190.233855 C96.4276781,185.866064 102.233174,183.462551 108.410345,183.462551 C114.58598,183.462551 120.391476,185.866064 124.759421,190.233855 C129.127365,194.600109 131.530964,200.4054 131.530964,206.582353 C131.530964,212.759305 129.127365,218.564596 124.759421,222.93085 C120.391476,227.298641 114.584444,229.702154 108.410345,229.702154 Z M108.410345,189.607252 C103.874993,189.607252 99.6114859,191.371876 96.4061763,194.578608 C93.2008667,197.78534 91.4346443,202.047161 91.4346443,206.582353 C91.4346443,211.117544 93.1993308,215.380901 96.4061763,218.586097 C99.6130218,221.791293 103.874993,223.557453 108.410345,223.557453 C112.944161,223.557453 117.209204,221.792829 120.414514,218.586097 C123.619823,215.379365 125.386046,211.117544 125.386046,206.582353 C125.386046,202.047161 123.621359,197.783804 120.414514,194.578608 C117.207668,191.373412 112.944161,189.607252 108.410345,189.607252 Z M157.291701,203.576809 L144.765345,203.576809 C143.261752,203.576809 141.980857,202.491005 141.735121,201.008966 C139.260874,186.113327 127.063189,174.58107 112.074872,172.965418 C110.512918,172.798017 109.331852,171.480308 109.331852,169.912265 L109.331852,157.492321 C109.331852,156.633814 109.689704,155.816773 110.320937,155.234708 C110.950634,154.654179 111.784598,154.353164 112.650815,154.431489 C137.265811,156.408052 157.322418,175.626944 160.34189,200.130494 C160.447864,201.002823 160.177555,201.881296 159.593933,202.54015 C159.008776,203.199004 158.17174,203.576809 157.291701,203.576809 Z M147.282596,197.433644 L153.685536,197.433644 C149.882782,178.563377 134.516647,163.879677 115.47677,160.941708 L115.47677,167.250739 C131.071746,170.045879 143.654928,181.980513 147.282596,197.433644 Z M72.0538094,203.576809 L59.5274532,203.576809 C58.6474137,203.576809 57.8103779,203.199004 57.2267566,202.54015 C56.6431353,201.87976 56.3712907,201.002823 56.4787998,200.130494 C59.2878613,177.320922 77.0775602,158.753206 99.7435686,154.973623 C100.632823,154.823116 101.545115,155.076521 102.23471,155.658586 C102.922769,156.242187 103.320553,157.099158 103.320553,158.002204 L103.320553,170.623336 C103.320553,172.059301 102.326861,173.301756 100.92617,173.619665 C87.4875213,176.658996 77.3447973,187.409535 75.0840327,201.008966 C74.8382974,202.491005 73.5574022,203.576809 72.0538094,203.576809 Z M63.1351544,197.433644 L69.5350228,197.433644 C72.8109813,183.384226 83.3223082,172.278919 97.1756349,168.245931 L97.1756349,161.777179 C80.0263836,166.080466 66.6414898,180.093025 63.1351544,197.433644 Z M201.098623,188.486124 C198.977621,188.486124 196.985629,187.661404 195.488179,186.162472 L187.082497,177.757087 C183.989304,174.664003 183.989304,169.631215 187.080961,166.53506 L189.051451,164.566176 C190.551972,163.067243 192.542428,162.242523 194.661895,162.242523 C196.782897,162.242523 198.774889,163.067243 200.272338,164.566176 L208.678021,172.970025 C211.771214,176.06618 211.771214,181.098968 208.678021,184.192052 L206.707531,186.162472 C205.208546,187.659869 203.216554,188.486124 201.098623,188.486124 Z M194.661895,168.387224 C194.182711,168.387224 193.734244,168.573055 193.394822,168.912465 L191.425868,170.879813 C190.728594,171.578598 190.727058,172.715084 191.425868,173.413869 L199.831551,181.819254 C200.508859,182.493467 201.686852,182.493467 202.36416,181.819254 L204.33465,179.848834 C205.033459,179.150049 205.031924,178.013564 204.333114,177.314779 L195.928967,168.910929 C195.591081,168.573055 195.141078,168.387224 194.661895,168.387224 Z M218.7931,170.790737 C216.672097,170.790737 214.678569,169.966018 213.18112,168.46555 L204.776973,160.0617 C203.277988,158.562768 202.451703,156.570846 202.451703,154.451454 C202.451703,152.332062 203.277988,150.338605 204.776973,148.841209 L206.747463,146.870789 C208.244913,145.371857 210.236904,144.547137 212.357907,144.547137 C214.477374,144.547137 216.470901,145.371857 217.968351,146.872325 L226.372497,155.276174 C229.46569,158.372329 229.46569,163.405117 226.372497,166.498201 L224.403543,168.467085 C222.906094,169.966018 220.912567,170.790737 218.7931,170.790737 Z M212.359443,150.690302 C211.880259,150.690302 211.431792,150.876132 211.093906,151.215542 L209.12188,153.185962 C208.783994,153.523836 208.596621,153.973823 208.596621,154.451454 C208.596621,154.929085 208.783994,155.379072 209.12188,155.718482 L217.527563,164.122332 C218.204871,164.799616 219.3844,164.799616 220.061708,164.122332 L222.030662,162.153447 C222.727936,161.454662 222.727936,160.318177 222.029126,159.619392 L213.624979,151.215542 C213.285558,150.876132 212.835555,150.690302 212.359443,150.690302 Z M171.972848,159.361379 C169.853382,159.361379 167.86139,158.536659 166.362405,157.039263 L157.958258,148.632341 C156.457737,147.134945 155.632988,145.143024 155.632988,143.023632 C155.632988,140.902704 156.457737,138.909247 157.958258,137.41185 L159.925676,135.442966 C161.426197,133.944034 163.416653,133.119314 165.537656,133.119314 C167.657122,133.119314 169.649114,133.944034 171.148099,135.44143 L179.552246,143.848352 C181.052767,145.345748 181.877516,147.337669 181.877516,149.458597 C181.877516,151.577989 181.052767,153.571446 179.552246,155.068842 L177.583292,157.037727 C176.084307,158.536659 174.093851,159.361379 171.972848,159.361379 Z M165.537656,139.262479 C165.058472,139.262479 164.610005,139.44831 164.270583,139.786184 L162.303165,141.756604 C161.962207,142.096014 161.77637,142.546001 161.77637,143.023632 C161.77637,143.501263 161.962207,143.95125 162.301629,144.287588 L170.705776,152.694509 C171.383084,153.368722 172.562613,153.368722 173.239921,152.694509 L175.208875,150.725625 C175.548297,150.386215 175.734134,149.936228 175.734134,149.458597 C175.734134,148.980966 175.548297,148.530979 175.208875,148.193105 L166.804728,139.786184 C166.466842,139.44831 166.016839,139.262479 165.537656,139.262479 Z M236.489112,153.095351 C234.369645,153.095351 232.376118,152.270631 230.878668,150.771699 L222.472986,142.367849 C219.379793,139.271694 219.379793,134.238906 222.472986,131.145822 L224.443475,129.175402 C225.940925,127.67647 227.932916,126.85175 230.053919,126.85175 C232.173386,126.85175 234.166913,127.67647 235.664363,129.176938 L244.06851,137.580787 C247.163238,140.675407 247.163238,145.708195 244.06851,148.802814 L242.099556,150.771699 C240.60057,152.269095 238.607043,153.095351 236.489112,153.095351 Z M230.053919,132.996451 C229.574735,132.996451 229.126268,133.182281 228.788382,133.521691 L226.816357,135.492111 C226.117547,136.189361 226.119083,137.325846 226.817893,138.024631 L235.222039,146.428481 C235.899347,147.102693 237.078877,147.102693 237.756185,146.428481 L239.725139,144.459597 C240.423948,143.760811 240.423948,142.624326 239.725139,141.925541 L231.320992,133.521691 C230.983106,133.182281 230.533103,132.996451 230.053919,132.996451 Z M189.667325,141.665992 C187.549394,141.665992 185.555866,140.841272 184.056881,139.343876 L175.652734,130.936955 C174.152213,129.439558 173.327464,127.447637 173.327464,125.326709 C173.327464,123.207317 174.152213,121.21386 175.652734,119.716464 L177.621688,117.747579 C179.122209,116.248647 181.112665,115.423927 183.232132,115.423927 C185.353135,115.423927 187.345126,116.248647 188.842576,117.747579 L197.246723,126.152965 C198.747244,127.650361 199.571993,129.642283 199.571993,131.76321 C199.571993,133.882602 198.747244,135.876059 197.246723,137.373456 L195.277769,139.34234 C193.780319,140.841272 191.788328,141.665992 189.667325,141.665992 Z M183.233668,121.567092 C182.754484,121.567092 182.306017,121.752923 181.966595,122.092333 L179.997641,124.059681 C179.65822,124.399091 179.472382,124.849078 179.472382,125.326709 C179.472382,125.80434 179.65822,126.254327 179.997641,126.592201 L188.401788,134.999122 C189.079096,135.673335 190.258625,135.673335 190.935933,134.999122 L192.904887,133.030238 C193.244309,132.690828 193.430146,132.240841 193.430146,131.76321 C193.430146,131.285579 193.244309,130.835592 192.904887,130.497718 L184.50074,122.090797 C184.161319,121.752923 183.711316,121.567092 183.233668,121.567092 Z M254.183588,135.399964 C252.064122,135.399964 250.07213,134.575244 248.573145,133.077848 L240.168998,124.670926 C238.668477,123.17353 237.843728,121.181609 237.843728,119.062217 C237.843728,116.941289 238.668477,114.947832 240.168998,113.450435 L242.136416,111.481551 C243.636937,109.982619 245.627393,109.156363 247.748396,109.156363 C249.867862,109.156363 251.859854,109.982619 253.358839,111.480015 L261.762986,119.886937 C263.263507,121.384333 264.088256,123.376254 264.088256,125.497182 C264.088256,127.616574 263.263507,129.610031 261.762986,131.107427 L259.794032,133.076312 C258.296583,134.575244 256.304591,135.399964 254.183588,135.399964 Z M247.749931,115.299528 C247.270748,115.299528 246.822281,115.486895 246.482859,115.824769 L244.515441,117.795189 C244.174483,118.134599 243.988646,118.584586 243.988646,119.062217 C243.988646,119.539848 244.174483,119.989835 244.513905,120.326173 L252.918052,128.733094 C253.59536,129.407306 254.774889,129.407306 255.452197,128.733094 L257.421151,126.76421 C257.760573,126.4248 257.94641,125.974813 257.94641,125.497182 C257.94641,125.019551 257.760573,124.569564 257.421151,124.23169 L249.017004,115.824769 C248.677582,115.486895 248.227579,115.299528 247.749931,115.299528 Z M142.84861,130.23817 C140.727607,130.23817 138.735615,129.41345 137.238166,127.914517 L128.832483,119.509132 C125.73929,116.416048 125.73929,111.38326 128.830947,108.287105 L130.801437,106.318221 C132.301958,104.819289 134.292414,103.993033 136.411881,103.993033 C138.532884,103.993033 140.524875,104.819289 142.022325,106.318221 L150.428007,114.722071 C153.5212,117.818226 153.5212,122.851014 150.428007,125.944097 L148.457517,127.914517 C146.960068,129.41345 144.968076,130.23817 142.84861,130.23817 Z M136.411881,110.137734 C135.932697,110.137734 135.48423,110.3251 135.144808,110.66451 L133.175854,112.631859 C132.47858,113.330644 132.477045,114.467129 133.175854,115.165914 L141.581537,123.5713 C142.255773,124.243976 143.433767,124.245512 144.114146,123.5713 L146.084636,121.60088 C146.783446,120.902095 146.78191,119.765609 146.0831,119.066824 L137.678953,110.662974 C137.341067,110.3251 136.891065,110.137734 136.411881,110.137734 Z M207.363337,123.973677 C205.24387,123.973677 203.251879,123.147421 201.752893,121.650025 L193.348747,113.243104 C190.255554,110.15002 190.255554,105.117232 193.347211,102.021077 L195.317701,100.052193 C196.818222,98.5532603 198.810213,97.7285404 200.928144,97.7285404 C203.049147,97.7285404 205.041139,98.5532603 206.538588,100.052193 L214.944271,108.457578 C216.443256,109.95651 217.269541,111.946896 217.269541,114.066288 C217.269541,116.187215 216.443256,118.179137 214.944271,119.676533 L212.973781,121.646953 C211.474796,123.147421 209.48434,123.973677 207.363337,123.973677 Z M200.928144,103.873241 C200.448961,103.873241 200.000494,104.059072 199.661072,104.398482 L197.692118,106.36583 C196.994844,107.064615 196.994844,108.201101 197.692118,108.899886 L206.096265,117.305271 C206.773572,117.979484 207.953102,117.979484 208.63041,117.305271 L210.6009,115.334851 C210.938786,114.995441 211.126159,114.545455 211.126159,114.067823 C211.126159,113.590192 210.938786,113.140206 210.6009,112.802331 L202.195217,104.396946 C201.857331,104.059072 201.407328,103.873241 200.928144,103.873241 Z M160.543086,112.542783 C158.422083,112.542783 156.428556,111.718063 154.931106,110.217595 L146.52696,101.813745 C143.433767,98.7175899 143.433767,93.684802 146.52696,90.5917184 L148.497449,88.6212983 C149.994899,87.122366 151.98689,86.2976461 154.107893,86.2976461 C156.22736,86.2976461 158.220887,87.122366 159.718337,88.622834 L168.122484,97.0266838 C171.217212,100.122839 171.215677,105.155627 168.122484,108.24871 L166.15353,110.217595 C164.65608,111.718063 162.662553,112.542783 160.543086,112.542783 Z M154.109429,92.4423469 C153.630245,92.4423469 153.181778,92.6281776 152.843892,92.9675875 L150.871867,94.9380077 C150.174593,95.6352569 150.174593,96.7717424 150.873402,97.4705274 L159.277549,105.874377 C159.954857,106.551661 161.134386,106.551661 161.811694,105.874377 L163.780648,103.905493 C164.479458,103.206708 164.477922,102.070222 163.779113,101.371437 L155.374966,92.9675875 C155.035544,92.6281776 154.585541,92.4423469 154.109429,92.4423469 Z M280.145521,106.692954 C276.516318,106.692954 273.102134,105.280026 270.5342,102.712183 C267.966266,100.14434 266.551753,96.7302761 266.551753,93.0996655 C266.551753,89.469055 267.966266,86.0549911 270.5342,83.4886839 C273.102134,80.9208409 276.516318,79.5063772 280.145521,79.5063772 C283.77626,79.5063772 287.190445,80.9208409 289.758379,83.4886839 C292.326312,86.0549911 293.740826,89.469055 293.740826,93.0996655 C293.740826,96.7302761 292.326312,100.14434 289.758379,102.712183 C287.190445,105.280026 283.777796,106.692954 280.145521,106.692954 Z M280.145521,85.651078 C278.156601,85.651078 276.285942,86.4266526 274.877571,87.8334373 C273.470737,89.2402221 272.695135,91.1108159 272.695135,93.1012013 C272.695135,95.0915868 273.470737,96.9621805 274.877571,98.3705011 C276.284406,99.7772859 278.156601,100.551325 280.145521,100.551325 C282.135977,100.551325 284.008173,99.7772859 285.415007,98.3705011 C286.821842,96.9621805 287.597444,95.0915868 287.597444,93.1012013 C287.597444,91.1108159 286.821842,89.2402221 285.415007,87.8334373 C284.006637,86.4251168 282.135977,85.651078 280.145521,85.651078 Z M225.059349,106.276754 C222.938347,106.276754 220.944819,105.452035 219.44737,103.951567 L211.043223,95.5477168 C207.95003,92.4546332 207.95003,87.4218453 211.041687,84.3256901 L213.012177,82.3568057 C214.511162,80.8563377 216.503154,80.0316178 218.622621,80.0316178 C220.743623,80.0316178 222.737151,80.8563377 224.2346,82.3568057 L232.638747,90.7606555 C235.73194,93.8568106 235.73194,98.8895985 232.638747,101.982682 L230.669793,103.951567 C229.172344,105.452035 227.178816,106.276754 225.059349,106.276754 Z M218.624157,86.1763186 C218.144973,86.1763186 217.696506,86.3621493 217.357084,86.7015592 L215.38813,88.6704436 C214.690856,89.3692286 214.68932,90.5057141 215.38813,91.2044991 L223.793813,99.6083489 C224.471121,100.285633 225.65065,100.285633 226.327958,99.6083489 L228.296912,97.6394645 C228.995722,96.9406795 228.994186,95.8041939 228.295376,95.1054089 L219.891229,86.7015592 C219.551807,86.3621493 219.101805,86.1763186 218.624157,86.1763186 Z M178.239098,94.8489318 C176.118096,94.8489318 174.124568,94.0242119 172.627119,92.5237438 L164.224508,84.1198941 C162.723987,82.6209618 161.899238,80.6290406 161.899238,78.5096487 C161.899238,76.388721 162.723987,74.3952639 164.224508,72.8978674 L166.193462,70.9305189 C167.690911,69.4300508 169.682903,68.6053309 171.803905,68.6053309 C173.923372,68.6053309 175.9169,69.4300508 177.414349,70.9305189 L185.818496,79.3343686 C188.913225,82.4289879 188.913225,87.4617759 185.818496,90.5563952 L183.849542,92.5252796 C182.352093,94.0242119 180.360101,94.8489318 178.239098,94.8489318 Z M171.803905,74.7484959 C171.324722,74.7484959 170.876255,74.9343266 170.538369,75.2737365 L168.567879,77.2426209 C168.228457,77.5820308 168.04262,78.0320176 168.04262,78.5096487 C168.04262,78.9872797 168.228457,79.4372666 168.567879,79.7766765 L176.972026,88.1805262 C177.649334,88.8578101 178.830399,88.8578101 179.504635,88.1805262 L181.475125,86.2116418 C181.813011,85.8722319 181.998848,85.4222451 181.998848,84.944614 C181.998848,84.4669829 181.813011,84.0169961 181.475125,83.6775862 L173.070978,75.2737365 C172.733092,74.9343266 172.283089,74.7484959 171.803905,74.7484959 Z M195.933575,77.153545 C193.814108,77.153545 191.822116,76.3272893 190.323131,74.8298928 L181.918984,66.4245073 C180.418463,64.9255751 179.593714,62.9336538 179.593714,60.8142619 C179.593714,58.6933342 180.418463,56.6998771 181.918984,55.2024807 L183.886402,53.2335963 C185.386923,51.734664 187.377379,50.9099441 189.498382,50.9099441 C191.617849,50.9099441 193.60984,51.734664 195.108826,53.2320605 L203.512972,61.6389818 C205.013494,63.1363783 205.838243,65.1282995 205.838243,67.2492272 C205.838243,69.3686192 205.013494,71.3620762 203.512972,72.8594727 L201.544018,74.828357 C200.046569,76.3272893 198.054577,77.153545 195.933575,77.153545 Z M189.499918,57.0531091 C189.020734,57.0531091 188.572267,57.2389399 188.232845,57.5768139 L186.265427,59.5472341 C185.924469,59.886644 185.738632,60.3366308 185.738632,60.8142619 C185.738632,61.291893 185.924469,61.7418798 186.263891,62.0812897 L194.668038,70.4851394 C195.345346,71.1593517 196.524875,71.1593517 197.202183,70.4851394 L199.171137,68.516255 C199.510559,68.1768451 199.696396,67.7268583 199.696396,67.2492272 C199.696396,66.7715962 199.510559,66.3216093 199.171137,65.9837352 L190.76699,57.5768139 C190.427568,57.2404757 189.977566,57.0531091 189.499918,57.0531091 Z M221.898579,48.446535 C218.26784,48.446535 214.853656,47.0320712 212.285722,44.4642283 C209.717788,41.8963853 208.303275,38.4823213 208.303275,34.8517108 C208.303275,31.2211003 209.717788,27.8070364 212.285722,25.2407292 C214.853656,22.6728862 218.26784,21.2584225 221.898579,21.2584225 C225.527782,21.2584225 228.941967,22.6728862 231.509901,25.2407292 C234.077834,27.8070364 235.492348,31.2211003 235.492348,34.8517108 C235.492348,38.4823213 234.077834,41.8963853 231.509901,44.4642283 C228.941967,47.0320712 225.527782,48.446535 221.898579,48.446535 Z M221.898579,27.4031233 C219.908124,27.4031233 218.037464,28.1786978 216.629093,29.5854826 C215.222259,30.9922674 214.446657,32.8628612 214.446657,34.8532466 C214.446657,36.8436321 215.222259,38.7142258 216.629093,40.1225464 C218.037464,41.5293312 219.908124,42.3049058 221.898579,42.3049058 C223.887499,42.3049058 225.758159,41.5293312 227.16653,40.1225464 C228.573364,38.7142258 229.348966,36.8436321 229.348966,34.8532466 C229.348966,32.8628612 228.573364,30.9922674 227.16653,29.5854826 C225.756623,28.1786978 223.885963,27.4031233 221.898579,27.4031233 Z" id="Shape"></path>
            </g>
        </g>
    </g>
</svg>