<?xml version="1.0" encoding="UTF-8"?>
<svg width="500px" height="500px" viewBox="0 0 500 500" version="1.1" xmlns="http://www.w3.org/2000/svg" xmlns:xlink="http://www.w3.org/1999/xlink">
    <!-- Generator: Sketch 46.2 (44496) - http://www.bohemiancoding.com/sketch -->
    <title>Artboard</title>
    <desc>Created with Sketch.</desc>
    <defs></defs>
    <g id="icons" stroke="none" stroke-width="1" fill="none" fill-rule="evenodd">
        <g id="Artboard" fill-rule="nonzero" fill="#474545">
            <g id="calendar" transform="translate(94.000000, 94.000000)">
                <path d="M247,182 C211.157917,182 182,211.157917 182,247 C182,282.842083 211.157917,312 247,312 C282.842083,312 312,282.842083 312,247 C312,211.157917 282.842083,182 247,182 Z M247,301.166667 C217.1325,301.166667 192.833333,276.8675 192.833333,247 C192.833333,217.1325 217.1325,192.833333 247,192.833333 C276.8675,192.833333 301.166667,217.1325 301.166667,247 C301.166667,276.8675 276.8675,301.166667 247,301.166667 Z" id="Shape"></path>
                <path d="M279.625,243.25 L252.75,243.25 L252.75,216.375 C252.75,213.402625 250.347375,211 247.375,211 C244.402625,211 242,213.402625 242,216.375 L242,248.625 C242,251.597375 244.402625,254 247.375,254 L279.625,254 C282.597375,254 285,251.597375 285,248.625 C285,245.652625 282.597375,243.25 279.625,243.25 Z" id="Shape"></path>
                <path d="M145.421053,114 L134.578947,114 L96.6315789,114 L85.7894737,114 L37,114 L37,162.413793 L37,173.172414 L37,210.827586 L37,221.586207 L37,270 L85.7894737,270 L96.6315789,270 L145.421053,270 L145.421053,221.586207 L145.421053,210.827586 L145.421053,173.172414 L183.368421,173.172414 L194.210526,173.172414 L243,173.172414 L243,114 L194.210526,114 L183.368421,114 L145.421053,114 Z M193.455696,124.4 L232.56962,124.4 L232.56962,160.8 L193.455696,160.8 L193.455696,124.4 Z M96.9746835,124.4 L136.088608,124.4 L136.088608,160.8 L96.9746835,160.8 L96.9746835,124.4 Z M47.4303797,124.4 L86.5443038,124.4 L86.5443038,160.8 L47.4303797,160.8 L47.4303797,124.4 Z M47.4303797,173.8 L86.5443038,173.8 L86.5443038,210.2 L47.4303797,210.2 L47.4303797,173.8 Z M86.5443038,257 L47.4303797,257 L47.4303797,220.6 L86.5443038,220.6 L86.5443038,257 Z M136.088608,257 L96.9746835,257 L96.9746835,220.6 L136.088608,220.6 L136.088608,257 Z M136.088608,210.2 L96.9746835,210.2 L96.9746835,173.8 L136.088608,173.8 L136.088608,210.2 Z M185.632911,160.8 L146.518987,160.8 L146.518987,124.4 L185.632911,124.4 L185.632911,160.8 Z" id="Shape"></path>
                <path d="M178.326923,295.263158 L10.8076923,295.263158 L10.8076923,85.8947368 L270.192308,85.8947368 L270.192308,155.684211 C270.192308,158.652947 272.607827,161.052632 275.596154,161.052632 C278.584481,161.052632 281,158.652947 281,155.684211 L281,80.5263158 L281,26.8421053 C281,23.8733684 278.584481,21.4736842 275.596154,21.4736842 L248.576923,21.4736842 L248.576923,5.36842105 C248.576923,2.39968421 246.161404,0 243.173077,0 L205.346154,0 C202.357827,0 199.942308,2.39968421 199.942308,5.36842105 L199.942308,21.4736842 L81.0576923,21.4736842 L81.0576923,5.36842105 C81.0576923,2.39968421 78.6421731,0 75.6538462,0 L37.8269231,0 C34.8385962,0 32.4230769,2.39968421 32.4230769,5.36842105 L32.4230769,21.4736842 L5.40384615,21.4736842 C2.41551923,21.4736842 0,23.8733684 0,26.8421053 L0,80.5263158 L0,300.631579 C0,303.600316 2.41551923,306 5.40384615,306 L178.326923,306 C181.31525,306 183.730769,303.600316 183.730769,300.631579 C183.730769,297.662842 181.31525,295.263158 178.326923,295.263158 Z M210.75,10.7368421 L237.769231,10.7368421 L237.769231,26.8421053 L237.769231,42.9473684 L210.75,42.9473684 L210.75,26.8421053 L210.75,10.7368421 Z M43.2307692,10.7368421 L70.25,10.7368421 L70.25,26.8421053 L70.25,42.9473684 L43.2307692,42.9473684 L43.2307692,26.8421053 L43.2307692,10.7368421 Z M10.8076923,32.2105263 L32.4230769,32.2105263 L32.4230769,48.3157895 C32.4230769,51.2845263 34.8385962,53.6842105 37.8269231,53.6842105 L75.6538462,53.6842105 C78.6421731,53.6842105 81.0576923,51.2845263 81.0576923,48.3157895 L81.0576923,32.2105263 L199.942308,32.2105263 L199.942308,48.3157895 C199.942308,51.2845263 202.357827,53.6842105 205.346154,53.6842105 L243.173077,53.6842105 C246.161404,53.6842105 248.576923,51.2845263 248.576923,48.3157895 L248.576923,32.2105263 L270.192308,32.2105263 L270.192308,75.1578947 L10.8076923,75.1578947 L10.8076923,32.2105263 Z" id="Shape"></path>
            </g>
        </g>
    </g>
</svg>