<?xml version="1.0" encoding="UTF-8"?>
<!DOCTYPE svg PUBLIC "-//W3C//DTD SVG 1.1//EN" "http://www.w3.org/Graphics/SVG/1.1/DTD/svg11.dtd">
<svg version="1.1" xmlns="http://www.w3.org/2000/svg" xmlns:xlink="http://www.w3.org/1999/xlink" x="0" y="0" width="128" height="128" viewBox="0, 0, 128, 128">
  <g id="Background">
    <rect x="0" y="0" width="128" height="128" fill="#FFFFFF"/>
  </g>
  <g id="Background">
    <path d="M0,0 L128,0 L128,128 L0,128 z" fill="#FFFFFF"/>
  </g>
  <g id="Layer_1">
    <g>
      <path d="M98.211,94.737 L98.211,53.947 C98.211,51.776 96.434,50 94.263,50 L33.737,50 C31.566,50 29.789,51.776 29.789,53.947 L29.789,94.737 L21.895,94.737 L21.895,97.368 C21.895,98.816 23.079,100 24.526,100 L103.474,100 C104.921,100 106.105,98.816 106.105,97.368 L106.105,94.737 L98.211,94.737 z M31.105,53.947 C31.105,52.496 32.286,51.316 33.737,51.316 L94.263,51.316 C95.714,51.316 96.895,52.496 96.895,53.947 L96.895,94.737 L31.105,94.737 L31.105,53.947 z M104.789,97.368 C104.789,98.094 104.199,98.684 103.474,98.684 L24.526,98.684 C23.801,98.684 23.211,98.094 23.211,97.368 L23.211,96.053 L29.789,96.053 L58.737,96.053 C58.737,96.776 59.329,97.368 60.053,97.368 L67.947,97.368 C68.671,97.368 69.263,96.776 69.263,96.053 L98.211,96.053 L104.789,96.053 L104.789,97.368 z" fill="#000000"/>
      <path d="M93.605,52.632 L34.395,52.632 C33.305,52.632 32.421,53.515 32.421,54.605 L32.421,91.447 C32.421,92.537 33.305,93.421 34.395,93.421 L93.605,93.421 C94.695,93.421 95.579,92.537 95.579,91.447 L95.579,54.605 C95.579,53.515 94.695,52.632 93.605,52.632 z M94.921,91.447 C94.921,92.173 94.331,92.763 93.605,92.763 L34.395,92.763 C33.669,92.763 33.079,92.173 33.079,91.447 L33.079,54.605 C33.079,53.88 33.669,53.289 34.395,53.289 L93.605,53.289 C94.331,53.289 94.921,53.88 94.921,54.605 L94.921,91.447 z" fill="#000000"/>
    </g>
    <g id="cloud-upload">
      <path d="M75.195,71.709 C74.301,69.245 72.005,67.491 69.314,67.491 C68.695,67.491 68.097,67.584 67.531,67.758 C65.998,65.194 63.259,63.487 60.135,63.487 C55.396,63.487 51.541,67.415 51.44,72.3 C49.706,73.34 48.539,75.284 48.539,77.503 C48.539,80.818 51.137,83.51 54.337,83.51 L60.135,83.51 L60.135,81.507 L54.334,81.507 C52.205,81.507 50.472,79.714 50.472,77.503 C50.472,75.608 51.745,74.017 53.455,73.603 C53.399,73.243 53.371,72.874 53.371,72.497 C53.371,68.627 56.399,65.489 60.135,65.489 C63.19,65.489 65.772,67.589 66.611,70.47 C67.354,69.858 68.291,69.493 69.314,69.493 C71.553,69.493 73.397,71.245 73.637,73.498 L73.666,73.498 C75.795,73.498 77.528,75.291 77.528,77.503 C77.528,79.711 75.799,81.507 73.666,81.507 L67.865,81.507 L67.865,83.51 L73.663,83.51 C76.863,83.51 79.461,80.814 79.461,77.503 C79.461,74.735 77.653,72.404 75.195,71.709 z" fill="#030104"/>
      <path d="M64,72.497 L59.168,78.504 L62.067,78.504 L62.067,86.513 L65.933,86.513 L65.933,78.504 L68.832,78.504 z" fill="#030104"/>
    </g>
  </g>
</svg>
