<?xml version="1.0" encoding="UTF-8"?>
<svg width="86px" height="50px" viewBox="0 0 86 50" version="1.1" xmlns="http://www.w3.org/2000/svg" xmlns:xlink="http://www.w3.org/1999/xlink">
    <!-- Generator: Sketch 46.1 (44463) - http://www.bohemiancoding.com/sketch -->
    <title>upload</title>
    <desc>Created with Sketch.</desc>
    <defs></defs>
    <g id="Page-1" stroke="none" stroke-width="1" fill="none" fill-rule="evenodd">
        <g id="upload" fill-rule="nonzero">
            <g id="Layer_1">
                <g id="Group" fill="#000000">
                    <path d="M77.211,44.737 L77.211,3.947 C77.211,1.776 75.434,0 73.263,0 L12.737,0 C10.566,0 8.789,1.776 8.789,3.947 L8.789,44.737 L0.895,44.737 L0.895,47.368 C0.895,48.816 2.079,50 3.526,50 L82.474,50 C83.921,50 85.105,48.816 85.105,47.368 L85.105,44.737 L77.211,44.737 Z M10.105,3.947 C10.105,2.496 11.286,1.316 12.737,1.316 L73.263,1.316 C74.714,1.316 75.895,2.496 75.895,3.947 L75.895,44.737 L10.105,44.737 L10.105,3.947 Z M83.789,47.368 C83.789,48.094 83.199,48.684 82.474,48.684 L3.526,48.684 C2.801,48.684 2.211,48.094 2.211,47.368 L2.211,46.053 L8.789,46.053 L37.737,46.053 C37.737,46.776 38.329,47.368 39.053,47.368 L46.947,47.368 C47.671,47.368 48.263,46.776 48.263,46.053 L77.211,46.053 L83.789,46.053 L83.789,47.368 Z" id="Shape"></path>
                    <path d="M72.605,2.632 L13.395,2.632 C12.305,2.632 11.421,3.515 11.421,4.605 L11.421,41.447 C11.421,42.537 12.305,43.421 13.395,43.421 L72.605,43.421 C73.695,43.421 74.579,42.537 74.579,41.447 L74.579,4.605 C74.579,3.515 73.695,2.632 72.605,2.632 Z M73.921,41.447 C73.921,42.173 73.331,42.763 72.605,42.763 L13.395,42.763 C12.669,42.763 12.079,42.173 12.079,41.447 L12.079,4.605 C12.079,3.88 12.669,3.289 13.395,3.289 L72.605,3.289 C73.331,3.289 73.921,3.88 73.921,4.605 L73.921,41.447 Z" id="Shape"></path>
                </g>
                <g id="cloud-upload" transform="translate(27.000000, 13.000000)" fill="#030104">
                    <path d="M27.195,8.709 C26.301,6.245 24.005,4.491 21.314,4.491 C20.695,4.491 20.097,4.584 19.531,4.758 C17.998,2.194 15.259,0.487 12.135,0.487 C7.396,0.487 3.541,4.415 3.44,9.3 C1.706,10.34 0.539,12.284 0.539,14.503 C0.539,17.818 3.137,20.51 6.337,20.51 L12.135,20.51 L12.135,18.507 L6.334,18.507 C4.205,18.507 2.472,16.714 2.472,14.503 C2.472,12.608 3.745,11.017 5.455,10.603 C5.399,10.243 5.371,9.874 5.371,9.497 C5.371,5.627 8.399,2.489 12.135,2.489 C15.19,2.489 17.772,4.589 18.611,7.47 C19.354,6.858 20.291,6.493 21.314,6.493 C23.553,6.493 25.397,8.245 25.637,10.498 L25.666,10.498 C27.795,10.498 29.528,12.291 29.528,14.503 C29.528,16.711 27.799,18.507 25.666,18.507 L19.865,18.507 L19.865,20.51 L25.663,20.51 C28.863,20.51 31.461,17.814 31.461,14.503 C31.461,11.735 29.653,9.404 27.195,8.709 Z" id="Shape"></path>
                    <polygon id="Shape" points="16 9.497 11.168 15.504 14.067 15.504 14.067 23.513 17.933 23.513 17.933 15.504 20.832 15.504"></polygon>
                </g>
            </g>
        </g>
    </g>
</svg>
